<svg xmlns="http://www.w3.org/2000/svg" viewBox="0 0 520 520">
  <g stroke="none" stroke-width="1" fill="none" fill-rule="evenodd">
    <g transform="translate(3.500000, 6.000000)" fill-rule="nonzero">
      <g class="layer-1 fill-transparent" transform="translate(7.950000, 425.727000)">
        <rect fill="#FAC41C" x="0" y="-1.42108547e-14" width="165.366" height="74.203"></rect>
        <rect fill="#FCD869" x="165.367" y="-1.42108547e-14" width="165.366" height="74.203"></rect>
        <rect fill="#FAC41C" x="330.733" y="-1.42108547e-14" width="165.366" height="74.203"></rect>
      </g>
      <g class="layer-3 fill-transparent" transform="translate(173.317000, 275.201000)">
        <rect fill="#FAC41C" x="-1.42108547e-14" y="-1.42108547e-14" width="165.366" height="74.203"></rect>
        <rect fill="#FCD869" x="165.366" y="-1.42108547e-14" width="165.366" height="74.203"></rect>
      </g>
      <g class="layer-2 fill-transparent" transform="translate(90.634000, 349.404000)">
        <rect fill="#FAC41C" x="0" y="-1.42108547e-14" width="165.366" height="74.203"></rect>
        <rect fill="#FCD869" x="165.366" y="-1.42108547e-14" width="165.366" height="74.203"></rect>
        <rect fill="#FAC41C" x="330.732" y="-1.42108547e-14" width="82.683" height="74.203"></rect>
      </g>
      <g class="layer-4 fill-transparent" transform="translate(256.000000, 200.998000)">
        <rect fill="#FAC41C" x="-1.42108547e-14" y="-1.42108547e-14" width="165.366" height="74.203"></rect>
        <rect fill="#FCD869" x="165.366" y="-1.42108547e-14" width="82.683" height="74.203"></rect>
      </g>
      <g class="tool" transform="translate(2.184750, 0.120000)">
        <path d="M164.77225,239.039 C123.79125,239.039 7.88625,164.836 7.88625,164.836 C7.88625,164.836 123.79125,90.633 164.77225,90.633 C205.75325,90.633 238.97525,123.855 238.97525,164.836 C238.97525,205.817 205.75325,239.039 164.77225,239.039 Z" id="Path" fill="#E5E5E5"></path>
        <path d="M164.77225,210.418 C135.31925,210.418 67.16325,172.089 31.15125,150.526 C17.05725,158.965 7.88625,164.837 7.88625,164.837 C7.88625,164.837 123.79125,239.04 164.77225,239.04 C205.75325,239.04 238.97525,205.818 238.97525,164.837 C238.97525,159.94 238.48725,155.159 237.58225,150.526 C230.91125,184.657 200.85525,210.418 164.77225,210.418 Z" id="Path" fill="#CCCCCC"></path>
        <path d="M501.86525,39.752 L501.86525,39.752 C501.86525,57.316 487.62825,71.553 470.06425,71.553 L357.69925,71.553 L357.69925,7.95 L470.06325,7.95 C487.62725,7.95 501.86525,22.188 501.86525,39.752 Z" id="Path" fill="#05dea9"></path>
        <path d="M357.69925,51.412 L357.69925,71.553 L470.06325,71.553 C483.50925,71.553 494.99625,63.205 499.64925,51.412 L357.69925,51.412 L357.69925,51.412 Z" id="Path" fill="#50A9A9"></path>
        <polygon id="Path" fill="#FCD869" points="249.57525 39.752 357.69925 71.553 357.69925 7.95"></polygon>
        <path d="M3.59925,171.532 C8.41225,174.614 121.95625,246.99 164.77225,246.99 C210.07125,246.99 246.92525,210.136 246.92525,164.837 C246.92525,142.357 237.84225,121.964 223.16225,107.116 L253.58325,49.219 L355.45625,79.182 C356.18425,79.395 356.93925,79.504 357.69925,79.504 L470.06325,79.504 C491.98325,79.504 509.81525,61.672 509.81525,39.752 C509.81525,17.832 491.98325,0 470.06325,0 L357.69925,0 C356.93925,0 356.18425,0.109 355.45625,0.323 L247.33225,32.125 C244.80625,32.868 242.87325,34.788 242.05525,37.179 C241.82625,37.493 210.66025,96.725 210.66025,96.725 C197.54825,87.863 181.75425,82.684 164.77225,82.684 C121.95625,82.684 8.41225,155.06 3.59925,158.142 C-1.19975,161.213 -1.19975,168.46 3.59925,171.532 Z M493.91425,39.752 C493.91425,52.904 483.21425,63.603 470.06325,63.603 L365.62325,63.603 C365.63525,63.427 365.64925,63.252 365.64925,63.073 L365.64925,15.901 L470.06325,15.901 C483.21425,15.901 493.91425,26.6 493.91425,39.752 Z M349.74925,18.575 L349.74925,60.927 L277.75125,39.752 L349.74925,18.575 Z M164.77225,98.584 C179.09225,98.584 192.35425,103.165 203.20225,110.92 L179.04925,156.887 L116.01025,156.887 C111.61925,156.887 108.06025,160.447 108.06025,164.837 C108.06025,169.227 111.62025,172.787 116.01025,172.787 L183.85325,172.787 C186.80725,172.787 189.51725,171.149 190.89125,168.534 L215.30925,122.062 C225.10225,133.613 231.02525,148.543 231.02525,164.837 C231.02525,201.368 201.30425,231.09 164.77225,231.09 C136.13125,231.09 60.53825,188.097 22.84225,164.837 C60.53825,141.577 136.13025,98.584 164.77225,98.584 Z" id="Shape" fill="#18181B"></path>
        <path d="M84.20825,156.886 L69.36825,156.886 C64.97725,156.886 61.41825,160.446 61.41825,164.836 C61.41825,169.226 64.97825,172.786 69.36825,172.786 L84.20925,172.786 C88.60025,172.786 92.15925,169.226 92.15925,164.836 C92.15925,160.446 88.59925,156.886 84.20825,156.886 Z" id="Path" fill="#18181B"></path>
      </g>
      <path d="M504.05,193.048 L400.166,193.048 C395.774,193.048 392.216,196.608 392.216,200.998 C392.216,205.389 395.775,208.948 400.166,208.948 L413.417,208.948 L413.417,267.25 L263.95,267.25 L263.95,208.948 L357.764,208.948 C362.156,208.948 365.714,205.388 365.714,200.998 C365.714,196.607 362.155,193.048 357.764,193.048 L256,193.048 C251.609,193.048 248.05,196.608 248.05,200.998 L248.05,267.251 L173.317,267.251 C168.926,267.251 165.367,270.811 165.367,275.201 L165.367,341.454 L90.634,341.454 C86.243,341.454 82.684,345.014 82.684,349.404 L82.684,417.777 L7.95,417.777 C3.559,417.777 0,421.337 0,425.727 L0,499.93 C0,504.321 3.56,507.88 7.95,507.88 L86.393,507.88 C90.784,507.88 94.343,504.32 94.343,499.93 C94.343,495.54 90.783,491.98 86.393,491.98 L15.901,491.98 L15.901,433.678 L165.367,433.678 L165.367,491.98 L128.796,491.98 C124.405,491.98 120.846,495.54 120.846,499.93 C120.846,504.32 124.406,507.88 128.796,507.88 L504.05,507.88 C508.442,507.88 512,504.32 512,499.93 L512,200.998 C512,196.607 508.441,193.048 504.05,193.048 Z M263.95,357.354 L413.416,357.354 L413.416,415.656 L263.95,415.656 L263.95,357.354 Z M346.634,283.151 L496.1,283.151 L496.1,341.453 L346.634,341.453 L346.634,283.151 Z M429.317,357.354 L496.1,357.354 L496.1,415.656 L429.317,415.656 L429.317,357.354 Z M429.317,208.948 L496.1,208.948 L496.1,267.25 L429.317,267.25 L429.317,208.948 Z M181.267,283.151 L330.733,283.151 L330.733,341.453 L181.267,341.453 L181.267,283.151 Z M98.584,357.354 L248.05,357.354 L248.05,415.656 L98.584,415.656 L98.584,357.354 Z M181.267,433.677 L330.733,433.677 L330.733,491.979 L181.267,491.979 L181.267,433.677 Z M496.1,491.979 L346.634,491.979 L346.634,433.677 L496.1,433.677 L496.1,491.979 L496.1,491.979 Z" fill="#18181B"></path>
    </g>
  </g>
</svg>