<?xml version="1.0" encoding="UTF-8"?>
<svg width="900px" height="420px" viewBox="0 0 900 420" version="1.1" xmlns="http://www.w3.org/2000/svg" xmlns:xlink="http://www.w3.org/1999/xlink">
    <!-- Generator: Sketch 55.2 (78181) - https://sketchapp.com -->
    <title>Artboard</title>
    <desc>Created with Sketch.</desc>
    <g id="Artboard" stroke="none" stroke-width="1" fill="none" fill-rule="evenodd">
        <g id="how-it-works_Artboard-5" transform="translate(15.500000, 6.500000)">
            <rect id="Rectangle" fill="#000000" fill-rule="nonzero" x="2.93" y="2.18" width="660.52" height="402.61" rx="3"></rect>
            <path d="M673.89,139 L866.6,139 L866.6,367.36 C866.6,387.916038 849.936038,404.58 829.38,404.58 L673.89,404.58 L673.89,139 Z" id="Path" fill="#000000" fill-rule="nonzero"></path>
            <path d="M829.38,406.57 L671.89,406.57 L671.89,137 L868.6,137 L868.6,367.36 C868.572442,389.007563 851.02757,406.547962 829.38,406.57 Z M675.89,402.57 L829.38,402.57 C848.820713,402.553467 864.577947,386.800708 864.6,367.36 L864.6,141 L675.89,141 L675.89,402.57 Z" id="Shape" fill="#FAC41C" fill-rule="nonzero"></path>
            <rect id="Rectangle" fill="#FAC41C" fill-rule="nonzero" x="697.76" y="170.95" width="67.43" height="4"></rect>
            <rect id="Rectangle" fill="#FAC41C" fill-rule="nonzero" x="697.76" y="198.22" width="67.43" height="4"></rect>
            <rect id="Rectangle" fill="#FAC41C" fill-rule="nonzero" x="697.76" y="230" width="77.43" height="4"></rect>
            <rect id="Rectangle" fill="#FAC41C" fill-rule="nonzero" x="782.19" y="230" width="57.43" height="4"></rect>
            <rect id="Rectangle" fill="#FAC41C" fill-rule="nonzero" x="697.76" y="279.8" width="77.43" height="4"></rect>
            <rect id="Rectangle" fill="#FAC41C" fill-rule="nonzero" x="697.76" y="296.4" width="107.43" height="4"></rect>
            <rect id="Rectangle" fill="#FAC41C" fill-rule="nonzero" x="782.19" y="279.8" width="57.43" height="4"></rect>
            <rect id="Rectangle" fill="#FAC41C" fill-rule="nonzero" x="762.19" y="263.2" width="77.43" height="4"></rect>
            <rect id="Rectangle" fill="#FAC41C" fill-rule="nonzero" x="697.76" y="263.2" width="57.43" height="4"></rect>
            <rect id="Rectangle" fill="#FAC41C" fill-rule="nonzero" x="697.76" y="246.6" width="47.43" height="4"></rect>
            <rect id="Rectangle" fill="#FAC41C" fill-rule="nonzero" x="752.53" y="246.6" width="47.43" height="4"></rect>
            <rect id="Rectangle" fill="#FAC41C" fill-rule="nonzero" x="807.9" y="246.6" width="31.43" height="4"></rect>
            <rect id="Rectangle" fill="#FAC41C" fill-rule="nonzero" x="697.76" y="184.59" width="87.43" height="4"></rect>
            <path d="M710.93,358.19 C711.810318,353.073809 713.241995,348.067971 715.2,343.26 C716.11,341.01 717.67,338.61 717.49,336.09 C717.375338,334.107031 715.97956,332.431286 714.05,331.96 C713.121202,331.747706 712.146112,331.96032 711.39,332.54 C710.57,333.22 710.27,334.78 709.95,335.77 C709.218259,338.115147 708.74216,340.532522 708.53,342.98 C708.309279,345.503031 708.379743,348.043086 708.74,350.55 C709.04,352.65 709.33,355.47 710.64,357.22 C711.232678,358.146301 712.361056,358.576546 713.42,358.28 C714.65,357.86 715.18,356.46 715.77,355.42 L720.46,347.19 L717.72,346.83 C718.121731,348.955551 718.299369,351.117382 718.25,353.28 C718.264346,354.021018 718.817746,354.640476 719.552467,354.737939 C720.287188,354.835402 720.982953,354.38165 721.19,353.67 C721.567543,352.012188 722.761671,350.659848 724.36,350.08 L722.46,348.63 L722.33,354.53 C722.339952,355.131647 722.706166,355.66996 723.262121,355.90016 C723.818076,356.13036 724.457642,356.008503 724.89,355.59 L728.06,351.72 L725.55,350.26 L724.87,354.04 C724.71,354.91 725.26,356.04 726.32,355.94 L738.78,354.72 L744.89,354.11 C746.57,353.95 748.42,353.98 749.65,352.65 C750.88,351.32 748.85,349.11 747.53,350.53 C747.03,351.07 746.07,351 745.38,351.07 L742.93,351.31 L737.31,351.86 L726.31,352.94 L727.75,354.84 L728.43,351.06 C728.67,349.75 726.97,348.32 725.93,349.6 L722.76,353.47 L725.32,354.53 L725.45,348.63 C725.447286,348.162247 725.227949,347.722161 724.856102,347.438383 C724.484255,347.154606 724.001888,347.05918 723.55,347.18 C720.949061,348.073595 718.972221,350.215798 718.29,352.88 L721.29,353.28 C721.332515,350.847541 721.117992,348.417394 720.65,346.03 C720.474857,345.462063 719.98477,345.048302 719.395505,344.97088 C718.80624,344.893458 718.225905,345.16658 717.91,345.67 L713.46,353.48 L712.86,354.54 L712.62,354.96 C712.24,355.33 712.28,355.49 712.75,355.44 C713.44,355.6 712.97,355.44 712.92,355.17 C712.87,354.9 712.7,354.52 712.62,354.22 C712.235004,352.908497 711.940972,351.571989 711.74,350.22 C710.964597,344.784083 711.655055,339.23971 713.74,334.16 L713.05,335.05 C713.55,334.74 714.11,335.23 714.34,335.69 C714.81,336.6 714.29,337.87 713.93,338.74 C713.12,340.74 712.21,342.64 711.47,344.64 C709.932409,348.777047 708.771038,353.04433 708,357.39 C707.67,359.28 710.56,360.09 710.9,358.19 L710.93,358.19 Z" id="Path" fill="#FAC41C" fill-rule="nonzero"></path>
            <polygon id="Path" fill="#FFFFFF" fill-rule="nonzero" opacity="0.1" points="662.54 183.34 274.55 403.31 196 403.13 661.27 132.24"></polygon>
            <polygon id="Path" fill="#FFFFFF" fill-rule="nonzero" opacity="0.1" points="614.52 6.38 4.95 375.87 4.95 328.15 546.77 6.38"></polygon>
            <polygon id="Path" fill="#FFFFFF" fill-rule="nonzero" opacity="0.1" points="662.54 403.22 520.34 402.99 661.8 332.31"></polygon>
            <rect id="Rectangle" fill="#000000" fill-rule="nonzero" x="26.26" y="24.37" width="613.86" height="358.23"></rect>
            <path d="M642.12,384.6 L24.26,384.6 L24.26,22.37 L642.12,22.37 L642.12,384.6 Z M28.26,380.6 L638.12,380.6 L638.12,26.37 L28.26,26.37 L28.26,380.6 Z" id="Shape" fill="#FAC41C" fill-rule="nonzero"></path>
            <rect id="Rectangle" fill="#FAC41C" fill-rule="nonzero" x="471.84" y="27.12" width="4" height="355.48"></rect>
            <path d="M615,87.49 L500.5,87.49 L500.5,64.26 L615,64.26 L615,87.49 Z M504.51,83.49 L611,83.49 L611,68.26 L504.5,68.26 L504.51,83.49 Z" id="Shape" fill="#FAC41C" fill-rule="nonzero"></path>
            <path d="M615,121.91 L500.5,121.91 L500.5,98.67 L615,98.67 L615,121.91 Z M504.51,117.91 L611,117.91 L611,102.67 L504.5,102.67 L504.51,117.91 Z" id="Shape" fill="#FAC41C" fill-rule="nonzero"></path>
            <path d="M530.94,161 L500.5,161 L500.5,143.09 L530.94,143.09 L530.94,161 Z M504.5,157 L526.94,157 L526.94,147.08 L504.5,147.08 L504.5,157 Z" id="Shape" fill="#FAC41C" fill-rule="nonzero"></path>
            <path d="M565.61,161 L536.61,161 L536.61,143.09 L565.61,143.09 L565.61,161 Z M540.61,157 L561.61,157 L561.61,147.08 L540.61,147.08 L540.61,157 Z" id="Shape" fill="#FAC41C" fill-rule="nonzero"></path>
            <path d="M614.52,161 L571.52,161 L571.52,143.09 L614.52,143.09 L614.52,161 Z M575.52,157 L610.52,157 L610.52,147.08 L575.52,147.08 L575.52,157 Z" id="Shape" fill="#FAC41C" fill-rule="nonzero"></path>
            <rect id="Rectangle" fill="#FAC41C" fill-rule="nonzero" x="500.48" y="183.48" width="114.05" height="19.91"></rect>
            <path d="M642.12,384.6 L24.26,384.6 L24.26,22.37 L642.12,22.37 L642.12,384.6 Z M28.26,380.6 L638.12,380.6 L638.12,26.37 L28.26,26.37 L28.26,380.6 Z" id="Shape" fill="#FAC41C" fill-rule="nonzero"></path>
            <rect id="Rectangle" fill="#FAC41C" fill-rule="nonzero" x="71.83" y="64.26" width="176.55" height="4"></rect>
            <rect id="Rectangle" fill="#FAC41C" fill-rule="nonzero" x="71.83" y="83.49" width="116.55" height="4"></rect>
            <path d="M521.76,189.47 L525.23,189.47 C525.97635,189.413482 526.7199,189.610823 527.34,190.03 C527.816426,190.42021 528.076765,191.015269 528.04,191.63 C528.062556,192.517115 527.410233,193.277438 526.53,193.39 L526.53,193.39 C527.011133,193.437577 527.458745,193.657831 527.79,194.01 C528.088987,194.337094 528.250189,194.766965 528.24,195.21 C528.274165,195.833094 527.996924,196.432535 527.5,196.81 C526.864681,197.229403 526.109653,197.429573 525.35,197.38 L521.76,197.38 L521.76,189.47 Z M525,192.8 C525.88,192.8 526.32,192.466667 526.32,191.8 C526.32,191.133333 525.88,190.8 525,190.8 L523.37,190.8 L523.37,192.8 L525,192.8 Z M525.21,196.15 C525.56451,196.178163 525.917841,196.082763 526.21,195.88 C526.419558,195.676612 526.53782,195.39703 526.53782,195.105 C526.53782,194.81297 526.419558,194.533388 526.21,194.33 C525.914593,194.135127 525.562914,194.04369 525.21,194.07 L523.37,194.07 L523.37,196.15 L525.21,196.15 Z" id="Shape" fill="#000000" fill-rule="nonzero"></path>
            <path d="M535.36,191.39 L535.36,197.39 L533.9,197.39 L533.84,196.39 C533.439992,197.165691 532.609012,197.620752 531.74,197.54 C531.175719,197.572206 530.620688,197.386002 530.19,197.02 C529.77779,196.585922 529.570421,195.996559 529.62,195.4 L529.62,191.4 L531.27,191.4 L531.27,195 C531.233717,195.353744 531.326013,195.708726 531.53,196 C531.735521,196.205395 532.020216,196.311243 532.31,196.29 C532.683543,196.296473 533.043967,196.152304 533.31,195.89 C533.593479,195.553324 533.733517,195.118848 533.7,194.68 L533.7,191.46 L535.36,191.39 Z" id="Path" fill="#000000" fill-rule="nonzero"></path>
            <path d="M540.41,197.77 C540.222585,198.413658 539.879077,199.001056 539.41,199.48 C538.966268,199.826424 538.412119,200.000484 537.85,199.97 C537.304579,200.003776 536.765169,199.840534 536.33,199.51 L536.74,198.34 C536.851336,198.475029 536.99616,198.578475 537.16,198.64 C537.348865,198.691597 537.544283,198.715181 537.74,198.71 C537.950405,198.720151 538.159125,198.667971 538.34,198.56 C538.524394,198.413572 538.660318,198.214915 538.73,197.99 L538.94,197.48 L538.28,195.92 L536.45,191.39 L538.27,191.39 L539.4,194.99 L539.73,196.19 L540.08,194.92 L541.19,191.39 L542.86,191.39 L540.41,197.77 Z" id="Path" fill="#000000" fill-rule="nonzero"></path>
            <polygon id="Path" fill="#000000" fill-rule="nonzero" points="549 190.81 549 192.81 552.37 192.81 552.37 194.15 549 194.15 549 197.39 547.35 197.39 547.35 189.47 553.27 189.47 553.27 190.81"></polygon>
            <path d="M558.26,191.41 L558.05,192.85 C557.823044,192.717792 557.562238,192.655199 557.3,192.67 C556.923773,192.669946 556.563359,192.821321 556.3,193.09 C556.005901,193.414185 555.854544,193.843031 555.88,194.28 L555.88,197.39 L554.23,197.39 L554.23,191.39 L555.66,191.39 L555.77,192.57 C556.017166,191.760416 556.784782,191.22391 557.63,191.27 C557.848389,191.263399 558.064961,191.311526 558.26,191.41 L558.26,191.41 Z" id="Path" fill="#000000" fill-rule="nonzero"></path>
            <path d="M565.06,196.35 L564.94,197.35 C564.695977,197.463255 564.428904,197.518039 564.16,197.51 C563.393333,197.51 562.933333,197.21 562.78,196.61 C562.589435,196.918882 562.300668,197.154826 561.96,197.28 C561.547203,197.44563 561.104568,197.523942 560.66,197.51 C560.172285,197.539448 559.689085,197.401895 559.29,197.12 C558.956706,196.838034 558.775247,196.415864 558.8,195.98 C558.8,194.98 559.58,194.37 561.14,194.08 L562.58,193.81 L562.58,193.52 C562.600682,193.239996 562.5027,192.964197 562.31,192.76 C562.11159,192.56265 561.839565,192.457466 561.56,192.47 C561.242419,192.455181 560.928034,192.539017 560.66,192.71 C560.403172,192.896317 560.230588,193.176766 560.18,193.49 L558.87,192.94 C558.988486,192.43759 559.296636,192.000447 559.73,191.72 C560.255466,191.398984 560.86486,191.242282 561.48,191.27 C562.19022,191.230639 562.893486,191.427553 563.48,191.83 C563.96796,192.23479 564.235093,192.846969 564.2,193.48 L564.2,195.94 C564.189959,196.066509 564.229393,196.19198 564.31,196.29 C564.400809,196.369418 564.519702,196.409049 564.64,196.4 C564.781678,196.403667 564.923142,196.386826 565.06,196.35 L565.06,196.35 Z M562.14,196.14 C562.406807,196.008168 562.576889,195.737584 562.58,195.44 L562.58,194.81 L561.29,195.1 C561.073694,195.142716 560.869082,195.231381 560.69,195.36 C560.553465,195.468043 560.478704,195.636254 560.49,195.81 C560.47874,195.976609 560.545195,196.139054 560.67,196.25 C560.813729,196.357466 560.990851,196.410602 561.17,196.4 C561.5108,196.401897 561.845837,196.312093 562.14,196.14 L562.14,196.14 Z" id="Shape" fill="#000000" fill-rule="nonzero"></path>
            <path d="M570.63,191.75 C571.066958,192.066136 571.384144,192.52077 571.53,193.04 L569.99,193.59 C569.85,192.86 569.46,192.5 568.83,192.5 C568.410732,192.476038 568.005392,192.654536 567.74,192.98 C567.460652,193.402416 567.327195,193.904635 567.36,194.41 C567.324533,194.91081 567.46222,195.408599 567.75,195.82 C568.012174,196.137191 568.409047,196.311518 568.82,196.29 C569.126827,196.314768 569.430776,196.215494 569.663829,196.014391 C569.896883,195.813288 570.039584,195.527147 570.06,195.22 L571.55,195.7 C571.432217,196.237267 571.11391,196.709364 570.66,197.02 C569.289019,197.850975 567.516894,197.558109 566.486166,196.33022 C565.455439,195.102332 565.47405,193.306266 566.53,192.1 C567.131989,191.522552 567.947224,191.221821 568.78,191.27 C569.431763,191.23185 570.079003,191.399782 570.63,191.75 Z" id="Path" fill="#000000" fill-rule="nonzero"></path>
            <path d="M577,197 C576.779248,197.161199 576.532273,197.282995 576.27,197.36 C575.971606,197.449306 575.661456,197.493131 575.35,197.49 C574.02,197.49 573.35,196.89 573.35,195.68 L573.35,192.6 L572.26,192.6 L572.26,191.37 L573.35,191.37 L573.35,190 L574.99,189.55 L574.99,191.38 L576.94,191.38 L576.94,192.61 L575,192.61 L575,195.43 C574.970078,195.657998 575.047848,195.886949 575.210449,196.049551 C575.373051,196.212152 575.602002,196.289922 575.83,196.26 C576.167793,196.262222 576.494835,196.141358 576.75,195.92 L577,197 Z" id="Path" fill="#000000" fill-rule="nonzero"></path>
            <path d="M577.82,189.65 C577.82,189.06 578.16,188.77 578.82,188.77 C579.48,188.77 579.82,189.06 579.82,189.65 C579.82,190.24 579.48,190.53 578.82,190.53 C578.16,190.53 577.82,190.24 577.82,189.65 Z M579.65,197.39 L578,197.39 L578,191.39 L579.64,191.39 L579.65,197.39 Z" id="Shape" fill="#000000" fill-rule="nonzero"></path>
            <path d="M586.41,192.1 C587.488579,193.439913 587.488579,195.350087 586.41,196.69 C585.102327,197.785112 583.197673,197.785112 581.89,196.69 C580.811421,195.350087 580.811421,193.439913 581.89,192.1 C583.193166,190.992556 585.106834,190.992556 586.41,192.1 L586.41,192.1 Z M583.09,192.97 C582.596842,193.855999 582.596842,194.934001 583.09,195.82 C583.347021,196.138236 583.741593,196.313188 584.15,196.29 C584.558713,196.314877 584.954026,196.139597 585.21,195.82 C585.703158,194.934001 585.703158,193.855999 585.21,192.97 C584.954026,192.650403 584.558713,192.475123 584.15,192.5 C583.736289,192.483922 583.34071,192.670515 583.09,193 L583.09,192.97 Z" id="Shape" fill="#000000" fill-rule="nonzero"></path>
            <path d="M593.78,191.84 C594.203136,192.268923 594.421658,192.858931 594.38,193.46 L594.38,197.39 L592.73,197.39 L592.73,193.94 C592.73,193.03 592.38,192.57 591.66,192.57 C591.283196,192.556386 590.918796,192.70579 590.66,192.98 C590.362116,193.325323 590.214513,193.775331 590.25,194.23 L590.25,197.39 L588.61,197.39 L588.61,191.39 L590.09,191.39 L590.09,192.46 C590.273253,192.088255 590.561928,191.778711 590.92,191.57 C591.296463,191.36352 591.720746,191.260036 592.15,191.27 C592.748951,191.225109 593.339548,191.431637 593.78,191.84 L593.78,191.84 Z" id="Path" fill="#000000" fill-rule="nonzero"></path>
            <path d="M660.45,406.79 L5.93,406.79 C3.16857625,406.79 0.93,404.551424 0.93,401.79 L0.93,5.18 C0.93,2.41857625 3.16857625,0.18 5.93,0.18 L660.45,0.18 C663.211424,0.18 665.45,2.41857625 665.45,5.18 L665.45,401.79 C665.45,403.116082 664.923216,404.387852 663.985534,405.325534 C663.047852,406.263216 661.776082,406.79 660.45,406.79 L660.45,406.79 Z M5.93,4.18 C5.37771525,4.18 4.93,4.62771525 4.93,5.18 L4.93,401.79 C4.93,402.342285 5.37771525,402.79 5.93,402.79 L660.45,402.79 C661.002285,402.79 661.45,402.342285 661.45,401.79 L661.45,5.18 C661.45,4.62771525 661.002285,4.18 660.45,4.18 L5.93,4.18 Z" id="Shape" fill="#FAC41C" fill-rule="nonzero"></path>
            <polygon id="Path" fill="#FAC41C" fill-rule="nonzero" points="178.91 317.87 74.92 317.45 74.65 137.02 279.46 137.02 279.46 228.35 231.42 228.35 231.42 224.35 275.46 224.35 275.46 141.02 78.66 141.02 78.91 313.47 174.91 313.85 174.91 278.37 178.91 278.37"></polygon>
            <polygon id="Path" fill="#FAC41C" fill-rule="nonzero" points="178.91 268.91 174.91 268.91 174.91 224.35 221.88 224.35 221.88 228.35 178.91 228.35"></polygon>
            <rect id="Rectangle" fill="#FAC41C" fill-rule="nonzero" x="174.91" y="139.02" width="4" height="35.88"></rect>
            <rect id="Rectangle" fill="#FAC41C" fill-rule="nonzero" x="174.91" y="184.26" width="4" height="42.09"></rect>
            <path d="M209.05,255.74 L209.05,288.85 C214.134349,286.338905 220.280767,287.698969 223.831036,292.120711 C227.381304,296.542452 227.381304,302.837548 223.831036,307.259289 C220.280767,311.681031 214.134349,313.041095 209.05,310.53 L209.05,343.06 L309.05,343.06 L309.05,255.74 L209.05,255.74 Z" id="Path" fill="#FAC41C" fill-rule="nonzero"></path>
            <path d="M255.13,308 L255.13,308 C254.732309,307.99965 254.351035,307.841385 254.07,307.56 L247.73,301.23 C247.144578,300.641817 247.146817,299.690422 247.735,299.105 C248.323183,298.519578 249.274578,298.521817 249.86,299.11 L255.13,304.38 L268.25,291.26 C268.623941,290.858694 269.187111,290.693502 269.718578,290.829229 C270.250045,290.964956 270.665044,291.379955 270.800771,291.911422 C270.936498,292.442889 270.771306,293.006059 270.37,293.38 L256.19,307.56 C255.907742,307.839551 255.527256,307.997488 255.13,308 L255.13,308 Z" id="Path" fill="#000000" fill-rule="nonzero"></path>
            <path d="M259.05,321.88 C246.634639,321.88 236.57,311.815361 236.57,299.4 C236.57,286.984639 246.634639,276.92 259.05,276.92 C271.465361,276.92 281.53,286.984639 281.53,299.4 C281.518973,311.810791 271.460791,321.868973 259.05,321.88 Z M259.05,279.88 C248.291493,279.88 239.57,288.601493 239.57,299.36 C239.57,310.118507 248.291493,318.84 259.05,318.84 C269.808507,318.84 278.53,310.118507 278.53,299.36 C278.496964,288.621687 269.788358,279.930963 259.05,279.92 L259.05,279.88 Z" id="Shape" fill="#000000" fill-rule="nonzero"></path>
            <path d="M825.63,403.22 L825.63,357.79 L866.63,357.79 L866.2,367.58 C866.200001,388.126611 849.54661,404.784478 829,404.79 L825.63,403.22 Z" id="Path" fill="#FFFFFF" fill-rule="nonzero" opacity="0.15"></path>
            <path d="M829,406.79 L828.55,406.79 L823.67,404.49 L823.67,355.79 L868.73,355.79 L868.21,367.66 C868.149408,389.27698 850.617059,406.773558 829,406.79 Z M827.67,401.95 L829.44,402.79 C848.702481,402.522305 864.184542,386.844324 864.21,367.58 L864.55,359.79 L827.67,359.79 L827.67,401.95 Z" id="Shape" fill="#FAC41C" fill-rule="nonzero"></path>
            <polygon id="Path" fill="#FFFFFF" fill-rule="nonzero" opacity="0.1" points="637.98 148.26 237.07 380.85 30.13 380.34 636.77 26.36 638.11 26.37"></polygon>
            <polygon id="Path" fill="#FFFFFF" fill-rule="nonzero" opacity="0.1" points="516.49 26.47 28.27 314.27 28.3 271.61 452.04 26.31"></polygon>
            <path d="M118.619993,232.57 C118.615895,235.162975 120.386337,237.422168 122.905108,238.038062 C125.42388,238.653956 128.037064,237.466656 129.229958,235.164366 C130.422852,232.862076 129.885759,230.04251 127.93,228.34 L120.55,228.34 C119.325151,229.404495 118.621258,230.947223 118.619993,232.57 L118.619993,232.57 Z" id="Path"></path>
            <rect id="Rectangle" fill="#FAC41C" fill-rule="nonzero" x="76.66" y="224.34" width="42.89" height="4"></rect>
            <rect id="Rectangle" fill="#FAC41C" fill-rule="nonzero" x="128.93" y="224.34" width="45.81" height="4"></rect>
            <path d="M131.3,233.65 C131.305112,236.90661 129.08201,239.744186 125.918808,240.518577 C122.755605,241.292968 119.473122,239.803226 117.973301,236.91254 C116.473479,234.021853 117.145509,230.480328 119.6,228.34 L113.4,228.34 C110.90175,233.419805 112.266126,239.553158 116.682244,243.094848 C121.098362,246.636539 127.381638,246.636539 131.797756,243.094848 C136.213874,239.553158 137.57825,233.419805 135.08,228.34 L128.88,228.34 C130.414648,229.678211 131.296799,231.613842 131.3,233.65 L131.3,233.65 Z" id="Path" fill="#FAC41C" fill-rule="nonzero"></path>
            <path d="M184.22,266.63 C187.477837,266.620281 190.319298,268.841026 191.09697,272.004698 C191.874641,275.16837 190.386564,278.453372 187.49549,279.955134 C184.604417,281.456897 181.061152,280.785415 178.92,278.33 L178.92,284.53 C180.568365,285.343841 182.381675,285.768087 184.22,285.77 C188.620446,285.896596 192.741903,283.621296 194.979485,279.830098 C197.217066,276.038901 197.217066,271.331099 194.979485,267.539902 C192.741903,263.748704 188.620446,261.473404 184.22,261.6 C182.380888,261.605023 180.567537,262.0327 178.92,262.85 L178.92,269.05 C180.251072,267.511497 182.185611,266.628179 184.22,266.63 Z" id="Path" fill="#FAC41C" fill-rule="nonzero"></path>
            <path d="M267.68,255.74 C269.422738,252.182717 268.804195,247.920567 266.12215,245.00543 C263.440104,242.090292 259.24414,241.119515 255.554275,242.56045 C251.86441,244.001384 249.436743,247.558765 249.439997,251.52 C249.44458,252.984826 249.786773,254.428881 250.439997,255.74" id="Path" fill="#FAC41C" fill-rule="nonzero"></path>
            <path d="M219.58,219.09 C219.574888,215.83339 221.79799,212.995814 224.961192,212.221423 C228.124395,211.447032 231.406878,212.936774 232.906699,215.82746 C234.406521,218.718147 233.734491,222.259672 231.28,224.4 L237.48,224.4 C239.991095,219.315651 238.631031,213.169233 234.209289,209.618964 C229.787548,206.068696 223.492452,206.068696 219.070711,209.618964 C214.648969,213.169233 213.288905,219.315651 215.8,224.4 L222,224.4 C220.465352,223.061789 219.583201,221.126158 219.58,219.09 Z" id="Path" fill="#FAC41C" fill-rule="nonzero"></path>
            <path d="M252,251.54 C251.986265,248.279453 254.207162,245.433623 257.373328,244.654683 C260.539493,243.875743 263.827237,245.366337 265.327829,248.261087 C266.828421,251.155836 266.151476,254.701662 263.69,256.84 L269.9,256.84 C270.713841,255.191635 271.138087,253.378325 271.14,251.54 C271.266596,247.139554 268.991296,243.018097 265.200098,240.780515 C261.408901,238.542934 256.701099,238.542934 252.909902,240.780515 C249.118704,243.018097 246.843404,247.139554 246.97,251.54 C246.971913,253.378325 247.396159,255.191635 248.21,256.84 L254.42,256.84 C252.881497,255.508928 251.998179,253.574389 252,251.54 Z" id="Path" fill="#FAC41C" fill-rule="nonzero"></path>
            <path d="M169.73,186.66 C166.45789,186.699521 163.587483,184.485345 162.794931,181.310423 C162.002379,178.135501 163.495435,174.832079 166.402241,173.329165 C169.309046,171.826251 172.867636,172.517805 175,175 L175,168.8 C173.349435,167.981207 171.532492,167.553489 169.69,167.55 C163.012877,167.55 157.6,172.962877 157.6,179.64 C157.6,186.317123 163.012877,191.73 169.69,191.73 C171.532492,191.726511 173.349435,191.298793 175,190.48 L175,184.28 C173.668407,185.795733 171.747567,186.663209 169.73,186.66 Z" id="Path" fill="#FAC41C" fill-rule="nonzero"></path>
        </g>
    </g>
</svg>