<?xml version="1.0" encoding="UTF-8"?>
<svg width="900px" height="420px" viewBox="0 0 900 420" version="1.1" xmlns="http://www.w3.org/2000/svg" xmlns:xlink="http://www.w3.org/1999/xlink">
    <!-- Generator: Sketch 55.2 (78181) - https://sketchapp.com -->
    <title>Artboard</title>
    <desc>Created with Sketch.</desc>
    <g id="Artboard" stroke="none" stroke-width="1" fill="none" fill-rule="evenodd">
        <g id="how-it-works_Artboard-6" transform="translate(28.500000, 6.500000)" fill-rule="nonzero">
            <g id="Oulined">
                <rect id="Rectangle" fill="#000000" x="2.1" y="2.57" width="660.52" height="402.61" rx="3"></rect>
                <polygon id="Path" fill="#FFFFFF" opacity="0.1" points="373.04 403.03 660.62 291.39 659.62 405.18"></polygon>
                <polygon id="Path" fill="#FFFFFF" opacity="0.1" points="5.13 200.75 489.92 4.87 663.07 4.87 4.1 281"></polygon>
                <rect id="Rectangle" fill="#000000" x="25.43" y="24.76" width="613.86" height="358.23"></rect>
                <path d="M641.29,385 L23.43,385 L23.43,22.76 L641.29,22.76 L641.29,385 Z M27.43,381 L637.29,381 L637.29,26.76 L27.43,26.76 L27.43,381 Z" id="Shape" fill="#FAC41C"></path>
                <rect id="Rectangle" fill="#FAC41C" x="25.43" y="61.67" width="613.86" height="4"></rect>
                <path d="M168.12,259.61 L50.89,259.61 L50.89,82.54 L168.12,82.54 L168.12,259.61 Z M54.89,255.61 L164.12,255.61 L164.12,86.54 L54.89,86.54 L54.89,255.61 Z" id="Shape" fill="#FAC41C"></path>
                <path d="M168.12,362.75 L50.89,362.75 L50.89,283.94 L168.12,283.94 L168.12,362.75 Z M54.89,358.75 L164.12,358.75 L164.12,287.94 L54.89,287.94 L54.89,358.75 Z" id="Shape" fill="#FAC41C"></path>
                <path d="M613.7,362.75 L196.4,362.75 L196.4,82.54 L613.7,82.54 L613.7,362.75 Z M200.4,358.75 L609.7,358.75 L609.7,86.54 L200.4,86.54 L200.4,358.75 Z" id="Shape" fill="#FAC41C"></path>
                <polygon id="Path" fill="#FAC41C" points="590.52 303.51 248.84 303.51 248.84 114.74 252.84 114.74 252.84 299.51 590.52 299.51"></polygon>
                <polygon id="Path" fill="#FAC41C" points="242.66 121.37 244.13 122.73 250.84 115.51 257.55 122.73 259.02 121.37 250.84 112.57"></polygon>
                <polygon id="Path" fill="#FAC41C" points="583.89 309.69 582.53 308.23 589.75 301.51 582.53 294.8 583.89 293.34 592.69 301.51"></polygon>
                <path d="M279.39,324.52 C280.189418,323.999039 280.957418,323.431387 281.69,322.82 C282.169001,322.431209 282.586983,321.972777 282.93,321.46 C283.168688,321.093364 283.300294,320.667378 283.31,320.23 C283.32337,319.885565 283.186734,319.552255 282.935446,319.316314 C282.684158,319.080372 282.342911,318.964982 282,319 C281.617183,318.997895 281.252309,319.162088 281,319.45 C280.726215,319.8281 280.579187,320.283184 280.58,320.75 L279.15,320.21 C279.173355,319.487084 279.495653,318.806276 280.04,318.33 C280.632786,317.852253 281.379379,317.606944 282.14,317.64 C282.684272,317.624546 283.223829,317.744829 283.71,317.99 C284.128031,318.189475 284.476441,318.510012 284.71,318.91 C284.929478,319.289793 285.043413,319.721364 285.04,320.16 C285.027391,320.942378 284.728557,321.693023 284.2,322.27 C283.41815,323.107189 282.514687,323.821869 281.52,324.39 L281.52,324.39 C281.99,324.39 282.52,324.39 282.97,324.39 L285.16,324.39 L285.16,325.72 L279.45,325.72 L279.39,324.52 Z" id="Path" fill="#FAC41C"></path>
                <path d="M287.14,324.74 C286.086157,322.843214 286.086157,320.536786 287.14,318.64 C287.752838,317.982565 288.611228,317.609231 289.51,317.609231 C290.408772,317.609231 291.267162,317.982565 291.88,318.64 C292.947468,320.533232 292.947468,322.846768 291.88,324.74 C291.267162,325.397435 290.408772,325.770769 289.51,325.770769 C288.611228,325.770769 287.752838,325.397435 287.14,324.74 L287.14,324.74 Z M290.65,323.74 C290.943081,323.087621 291.073478,322.373866 291.03,321.66 C291.073858,320.949347 290.943408,320.23874 290.65,319.59 C290.439337,319.156525 289.991514,318.889403 289.51,318.91 C289.029807,318.894571 288.584583,319.160143 288.37,319.59 C288.085648,320.241317 287.958884,320.950507 288,321.66 C287.959181,322.372716 288.0859,323.085082 288.37,323.74 C288.585527,324.167758 289.031423,324.42982 289.51,324.41 C289.983055,324.440562 290.429767,324.189777 290.65,323.77 L290.65,323.74 Z" id="Shape" fill="#FAC41C"></path>
                <path d="M294.11,324.52 C294.911191,324.001596 295.679343,323.433832 296.41,322.82 C296.889001,322.431209 297.306983,321.972777 297.65,321.46 C297.892708,321.095261 298.024683,320.66808 298.03,320.23 C298.0513,319.886187 297.922572,319.550013 297.677083,319.30836 C297.431594,319.066707 297.093435,318.943288 296.75,318.97 C296.366038,318.96239 295.998949,319.127581 295.75,319.42 C295.467626,319.793686 295.319639,320.251738 295.33,320.72 L293.9,320.18 C293.914712,319.455022 294.23858,318.770898 294.79,318.3 C295.377905,317.820437 296.122128,317.574737 296.88,317.61 C297.424272,317.594546 297.963829,317.714829 298.45,317.96 C298.865,318.16393 299.212253,318.483404 299.45,318.88 C299.662063,319.262343 299.772258,319.69279 299.77,320.13 C299.757391,320.912378 299.458557,321.663023 298.93,322.24 C298.149871,323.074962 297.250053,323.789424 296.26,324.36 L296.26,324.36 C296.72,324.36 297.2,324.36 297.71,324.36 L299.89,324.36 L299.89,325.69 L294.18,325.69 L294.11,324.52 Z" id="Path" fill="#FAC41C"></path>
                <path d="M301.87,324.74 C300.802532,322.846768 300.802532,320.533232 301.87,318.64 C302.482838,317.982565 303.341228,317.609231 304.24,317.609231 C305.138772,317.609231 305.997162,317.982565 306.61,318.64 C307.677468,320.533232 307.677468,322.846768 306.61,324.74 C305.997162,325.397435 305.138772,325.770769 304.24,325.770769 C303.341228,325.770769 302.482838,325.397435 301.87,324.74 L301.87,324.74 Z M305.38,323.74 C305.668891,323.086535 305.795818,322.373004 305.75,321.66 C305.796183,320.950215 305.669207,320.239837 305.38,319.59 C305.165417,319.160143 304.720193,318.894571 304.24,318.91 C303.758486,318.889403 303.310663,319.156525 303.1,319.59 C302.806592,320.23874 302.676142,320.949347 302.72,321.66 C302.676522,322.373866 302.806919,323.087621 303.1,323.74 C303.311578,324.171439 303.760128,324.43506 304.24,324.41 C304.711881,324.435461 305.156023,324.186118 305.38,323.77 L305.38,323.74 Z" id="Shape" fill="#FAC41C"></path>
                <path d="M330.41,324.52 C331.212873,324.004031 331.981177,323.436155 332.71,322.82 C333.189001,322.431209 333.606983,321.972777 333.95,321.46 C334.195727,321.096107 334.331151,320.669 334.34,320.23 C334.358272,319.885226 334.227158,319.549286 333.980169,319.308041 C333.73318,319.066796 333.394249,318.943622 333.05,318.97 C332.666038,318.96239 332.298949,319.127581 332.05,319.42 C331.767626,319.793686 331.619639,320.251738 331.63,320.72 L330.2,320.18 C330.214712,319.455022 330.53858,318.770898 331.09,318.3 C331.680973,317.818928 332.428866,317.573192 333.19,317.61 C333.731073,317.594524 334.267401,317.714854 334.75,317.96 C335.165,318.16393 335.512253,318.483404 335.75,318.88 C335.962063,319.262343 336.072258,319.69279 336.07,320.13 C336.057391,320.912378 335.758557,321.663023 335.23,322.24 C334.449871,323.074962 333.550053,323.789424 332.56,324.36 L332.56,324.36 C333.02,324.36 333.5,324.36 334.01,324.36 L336.19,324.36 L336.19,325.69 L330.48,325.69 L330.41,324.52 Z" id="Path" fill="#FAC41C"></path>
                <path d="M338.17,324.74 C337.102532,322.846768 337.102532,320.533232 338.17,318.64 C338.782838,317.982565 339.641228,317.609231 340.54,317.609231 C341.438772,317.609231 342.297162,317.982565 342.91,318.64 C343.977468,320.533232 343.977468,322.846768 342.91,324.74 C342.297162,325.397435 341.438772,325.770769 340.54,325.770769 C339.641228,325.770769 338.782838,325.397435 338.17,324.74 L338.17,324.74 Z M341.68,323.74 C341.968891,323.086535 342.095818,322.373004 342.05,321.66 C342.096183,320.950215 341.969207,320.239837 341.68,319.59 C341.451805,319.173652 341.014783,318.91482 340.54,318.91482 C340.065217,318.91482 339.628195,319.173652 339.4,319.59 C339.110793,320.239837 338.983817,320.950215 339.03,321.66 C338.984182,322.373004 339.111109,323.086535 339.4,323.74 C339.628195,324.156348 340.065217,324.41518 340.54,324.41518 C341.014783,324.41518 341.451805,324.156348 341.68,323.74 L341.68,323.74 Z" id="Shape" fill="#FAC41C"></path>
                <path d="M345.13,324.52 C345.934136,324.001245 346.705594,323.433506 347.44,322.82 C347.918942,322.434143 348.334041,321.975173 348.67,321.46 C348.915727,321.096107 349.051151,320.669 349.06,320.23 C349.081658,319.884301 348.951618,319.546322 348.703829,319.304295 C348.456039,319.062267 348.115094,318.940215 347.77,318.97 C347.386616,318.965194 347.020663,319.129873 346.77,319.42 C346.491727,319.795807 346.344206,320.252417 346.35,320.72 L344.92,320.18 C344.939719,319.45621 345.262672,318.774018 345.81,318.3 C346.402786,317.822253 347.149379,317.576944 347.91,317.61 C348.454272,317.594546 348.993829,317.714829 349.48,317.96 C349.895985,318.162488 350.243609,318.482301 350.48,318.88 C350.699478,319.259793 350.813413,319.691364 350.81,320.13 C350.797391,320.912378 350.498557,321.663023 349.97,322.24 C349.185922,323.074768 348.282843,323.789144 347.29,324.36 L347.29,324.36 C347.75,324.36 348.24,324.36 348.74,324.36 L350.93,324.36 L350.93,325.69 L345.21,325.69 L345.13,324.52 Z" id="Path" fill="#FAC41C"></path>
                <path d="M355.56,317.73 L355.56,325.65 L354,325.65 L354,319.75 C353.992882,319.650127 353.992882,319.549873 354,319.45 C353.716708,319.708245 353.404658,319.933055 353.07,320.12 C352.757923,320.294557 352.420538,320.41939 352.07,320.49 L351.86,319.1 C352.328753,319.022328 352.777424,318.852377 353.18,318.6 C353.5998,318.393267 353.968626,318.096158 354.26,317.73 L355.56,317.73 Z" id="Path" fill="#FAC41C"></path>
                <path d="M380.83,324.52 C381.631191,324.001596 382.399343,323.433832 383.13,322.82 C383.609001,322.431209 384.026983,321.972777 384.37,321.46 C384.608688,321.093364 384.740294,320.667378 384.75,320.23 C384.7713,319.886187 384.642572,319.550013 384.397083,319.30836 C384.151594,319.066707 383.813435,318.943288 383.47,318.97 C383.069856,318.95294 382.683607,319.118475 382.42,319.42 C382.146215,319.7981 381.999187,320.253184 382,320.72 L380.58,320.18 C380.595952,319.457477 380.915381,318.775062 381.46,318.3 C382.052786,317.822253 382.799379,317.576944 383.56,317.61 C384.104272,317.594546 384.643829,317.714829 385.13,317.96 C385.545,318.16393 385.892253,318.483404 386.13,318.88 C386.342063,319.262343 386.452258,319.69279 386.45,320.13 C386.437391,320.912378 386.138557,321.663023 385.61,322.24 C384.82815,323.077189 383.924687,323.791869 382.93,324.36 L382.93,324.36 C383.4,324.36 383.93,324.36 384.39,324.36 L386.57,324.36 L386.57,325.69 L380.86,325.69 L380.83,324.52 Z" id="Path" fill="#FAC41C"></path>
                <path d="M388.59,324.74 C387.522532,322.846768 387.522532,320.533232 388.59,318.64 C389.202838,317.982565 390.061228,317.609231 390.96,317.609231 C391.858772,317.609231 392.717162,317.982565 393.33,318.64 C394.383843,320.536786 394.383843,322.843214 393.33,324.74 C392.717162,325.397435 391.858772,325.770769 390.96,325.770769 C390.061228,325.770769 389.202838,325.397435 388.59,324.74 Z M392.1,323.74 C392.3841,323.085082 392.510819,322.372716 392.47,321.66 C392.511116,320.950507 392.384352,320.241317 392.1,319.59 C391.885417,319.160143 391.440193,318.894571 390.96,318.91 C390.478486,318.889403 390.030663,319.156525 389.82,319.59 C389.526592,320.23874 389.396142,320.949347 389.44,321.66 C389.396522,322.373866 389.526919,323.087621 389.82,323.74 C390.031578,324.171439 390.480128,324.43506 390.96,324.41 C391.431881,324.435461 391.876023,324.186118 392.1,323.77 L392.1,323.74 Z" id="Shape" fill="#FAC41C"></path>
                <path d="M395.55,324.52 C396.354136,324.001245 397.125594,323.433506 397.86,322.82 C398.336291,322.431345 398.750991,321.972815 399.09,321.46 C399.335727,321.096107 399.471151,320.669 399.48,320.23 C399.493669,319.891404 399.36704,319.562169 399.13,319.32 C398.881335,319.073966 398.539021,318.946508 398.19,318.97 C397.806038,318.96239 397.438949,319.127581 397.19,319.42 C396.907626,319.793686 396.759639,320.251738 396.77,320.72 L395.34,320.18 C395.359719,319.45621 395.682672,318.774018 396.23,318.3 C396.820973,317.818928 397.568866,317.573192 398.33,317.61 C398.871073,317.594524 399.407401,317.714854 399.89,317.96 C400.305,318.16393 400.652253,318.483404 400.89,318.88 C401.106442,319.260589 401.216941,319.692225 401.21,320.13 C401.197391,320.912378 400.898557,321.663023 400.37,322.24 C399.589871,323.074962 398.690053,323.789424 397.7,324.36 L397.7,324.36 C398.16,324.36 398.7,324.36 399.15,324.36 L401.33,324.36 L401.33,325.69 L395.62,325.69 L395.55,324.52 Z" id="Path" fill="#FAC41C"></path>
                <path d="M402.64,324.52 C403.444136,324.001245 404.215594,323.433506 404.95,322.82 C405.428942,322.434143 405.844041,321.975173 406.18,321.46 C406.425727,321.096107 406.561151,320.669 406.57,320.23 C406.591658,319.884301 406.461618,319.546322 406.213829,319.304295 C405.966039,319.062267 405.625094,318.940215 405.28,318.97 C404.896616,318.965194 404.530663,319.129873 404.28,319.42 C403.997626,319.793686 403.849639,320.251738 403.86,320.72 L402.43,320.18 C402.449719,319.45621 402.772672,318.774018 403.32,318.3 C403.912786,317.822253 404.659379,317.576944 405.42,317.61 C405.971067,317.605204 406.514459,317.739333 407,318 C407.415985,318.202488 407.763609,318.522301 408,318.92 C408.219478,319.299793 408.333413,319.731364 408.33,320.17 C408.317391,320.952378 408.018557,321.703023 407.49,322.28 C406.705922,323.114768 405.802843,323.829144 404.81,324.4 L404.81,324.4 C405.27,324.4 405.76,324.4 406.26,324.4 L408.45,324.4 L408.45,325.73 L402.73,325.73 L402.64,324.52 Z" id="Path" fill="#FAC41C"></path>
                <path d="M431.13,324.52 C431.929418,323.999039 432.697418,323.431387 433.43,322.82 C433.909001,322.431209 434.326983,321.972777 434.67,321.46 C434.908688,321.093364 435.040294,320.667378 435.05,320.23 C435.0713,319.886187 434.942572,319.550013 434.697083,319.30836 C434.451594,319.066707 434.113435,318.943288 433.77,318.97 C433.387183,318.967895 433.022309,319.132088 432.77,319.42 C432.496215,319.7981 432.349187,320.253184 432.35,320.72 L430.93,320.18 C430.945952,319.457477 431.265381,318.775062 431.81,318.3 C432.402786,317.822253 433.149379,317.576944 433.91,317.61 C434.454272,317.594546 434.993829,317.714829 435.48,317.96 C435.898031,318.159475 436.246441,318.480012 436.48,318.88 C436.699478,319.259793 436.813413,319.691364 436.81,320.13 C436.797391,320.912378 436.498557,321.663023 435.97,322.24 C435.18815,323.077189 434.284687,323.791869 433.29,324.36 L433.29,324.36 C433.76,324.36 434.24,324.36 434.74,324.36 L436.93,324.36 L436.93,325.69 L431.22,325.69 L431.13,324.52 Z" id="Path" fill="#FAC41C"></path>
                <path d="M438.88,324.74 C437.826157,322.843214 437.826157,320.536786 438.88,318.64 C439.492838,317.982565 440.351228,317.609231 441.25,317.609231 C442.148772,317.609231 443.007162,317.982565 443.62,318.64 C444.687468,320.533232 444.687468,322.846768 443.62,324.74 C443.007162,325.397435 442.148772,325.770769 441.25,325.770769 C440.351228,325.770769 439.492838,325.397435 438.88,324.74 L438.88,324.74 Z M442.39,323.74 C442.683081,323.087621 442.813478,322.373866 442.77,321.66 C442.813858,320.949347 442.683408,320.23874 442.39,319.59 C442.179337,319.156525 441.731514,318.889403 441.25,318.91 C440.769807,318.894571 440.324583,319.160143 440.11,319.59 C439.825648,320.241317 439.698884,320.950507 439.74,321.66 C439.699181,322.372716 439.8259,323.085082 440.11,323.74 C440.325527,324.167758 440.771423,324.42982 441.25,324.41 C441.723055,324.440562 442.169767,324.189777 442.39,323.77 L442.39,323.74 Z" id="Shape" fill="#FAC41C"></path>
                <path d="M445.85,324.52 C446.652873,324.004031 447.421177,323.436155 448.15,322.82 C448.629001,322.431209 449.046983,321.972777 449.39,321.46 C449.632708,321.095261 449.764683,320.66808 449.77,320.23 C449.7913,319.886187 449.662572,319.550013 449.417083,319.30836 C449.171594,319.066707 448.833435,318.943288 448.49,318.97 C448.106038,318.96239 447.738949,319.127581 447.49,319.42 C447.207626,319.793686 447.059639,320.251738 447.07,320.72 L445.64,320.18 C445.654712,319.455022 445.97858,318.770898 446.53,318.3 C447.120973,317.818928 447.868866,317.573192 448.63,317.61 C449.17095,317.595791 449.70697,317.716052 450.19,317.96 C450.605,318.16393 450.952253,318.483404 451.19,318.88 C451.402063,319.262343 451.512258,319.69279 451.51,320.13 C451.497391,320.912378 451.198557,321.663023 450.67,322.24 C449.889871,323.074962 448.990053,323.789424 448,324.36 L448,324.36 C448.46,324.36 448.94,324.36 449.45,324.36 L451.63,324.36 L451.63,325.69 L445.92,325.69 L445.85,324.52 Z" id="Path" fill="#FAC41C"></path>
                <path d="M457.7,318.21 C458.167248,318.590628 458.429876,319.167669 458.41,319.77 C458.414964,320.118167 458.332441,320.46201 458.17,320.77 C458.031145,321.027012 457.832147,321.246597 457.59,321.41 C457.392407,321.53706 457.164685,321.609517 456.93,321.62 L456.93,321.62 C457.507926,321.620405 458.040124,321.934364 458.32,322.44 C458.494871,322.743532 458.58146,323.089885 458.57,323.44 C458.571509,323.863653 458.438448,324.276842 458.19,324.62 C457.919419,324.977346 457.556347,325.253972 457.14,325.42 C456.656084,325.623236 456.134723,325.722056 455.61,325.71 C454.941828,325.735819 454.279892,325.572934 453.7,325.24 C453.184696,324.887837 452.806746,324.368597 452.63,323.77 L454.13,323.1 C454.175667,323.479119 454.348381,323.831598 454.62,324.1 C454.902632,324.32514 455.259578,324.435793 455.62,324.41 C455.980765,324.438835 456.338805,324.327843 456.62,324.1 C456.862525,323.898677 456.995937,323.594794 456.98,323.28 C457.007735,322.973231 456.880109,322.672936 456.64,322.48 C456.311346,322.295766 455.93575,322.212301 455.56,322.24 L455.17,322.24 L455.17,321.09 L455.5,321.09 C456.37,321.09 456.8,320.72 456.8,319.99 C456.819311,319.694534 456.714158,319.404459 456.51,319.19 C456.275432,318.993892 455.975319,318.893855 455.67,318.91 C455.346232,318.885229 455.025946,318.990552 454.780068,319.202645 C454.53419,319.414739 454.383008,319.716102 454.36,320.04 L452.89,319.5 C453.014172,318.90682 453.375452,318.39019 453.89,318.07 C454.448772,317.72836 455.095431,317.558003 455.75,317.58 C456.453798,317.554607 457.144096,317.777627 457.7,318.21 Z" id="Path" fill="#FAC41C"></path>
                <path d="M481.77,324.52 C482.574136,324.001245 483.345594,323.433506 484.08,322.82 C484.558942,322.434143 484.974041,321.975173 485.31,321.46 C485.555727,321.096107 485.691151,320.669 485.7,320.23 C485.721658,319.884301 485.591618,319.546322 485.343829,319.304295 C485.096039,319.062267 484.755094,318.940215 484.41,318.97 C484.026616,318.965194 483.660663,319.129873 483.41,319.42 C483.127626,319.793686 482.979639,320.251738 482.99,320.72 L481.56,320.18 C481.579719,319.45621 481.902672,318.774018 482.45,318.3 C483.042786,317.822253 483.789379,317.576944 484.55,317.61 C485.094272,317.594546 485.633829,317.714829 486.12,317.96 C486.535985,318.162488 486.883609,318.482301 487.12,318.88 C487.339478,319.259793 487.453413,319.691364 487.45,320.13 C487.437391,320.912378 487.138557,321.663023 486.61,322.24 C485.823687,323.072331 484.920987,323.786408 483.93,324.36 L483.93,324.36 C484.39,324.36 484.88,324.36 485.38,324.36 L487.57,324.36 L487.57,325.69 L481.85,325.69 L481.77,324.52 Z" id="Path" fill="#FAC41C"></path>
                <path d="M489.53,324.74 C488.462532,322.846768 488.462532,320.533232 489.53,318.64 C490.142838,317.982565 491.001228,317.609231 491.9,317.609231 C492.798772,317.609231 493.657162,317.982565 494.27,318.64 C495.337468,320.533232 495.337468,322.846768 494.27,324.74 C493.657162,325.397435 492.798772,325.770769 491.9,325.770769 C491.001228,325.770769 490.142838,325.397435 489.53,324.74 L489.53,324.74 Z M493.04,323.74 C493.328891,323.086535 493.455818,322.373004 493.41,321.66 C493.456183,320.950215 493.329207,320.239837 493.04,319.59 C492.811805,319.173652 492.374783,318.91482 491.9,318.91482 C491.425217,318.91482 490.988195,319.173652 490.76,319.59 C490.470793,320.239837 490.343817,320.950215 490.39,321.66 C490.344182,322.373004 490.471109,323.086535 490.76,323.74 C490.988195,324.156348 491.425217,324.41518 491.9,324.41518 C492.374783,324.41518 492.811805,324.156348 493.04,323.74 L493.04,323.74 Z" id="Shape" fill="#FAC41C"></path>
                <path d="M496.5,324.52 C497.299418,323.999039 498.067418,323.431387 498.8,322.82 C499.279001,322.431209 499.696983,321.972777 500.04,321.46 C500.278688,321.093364 500.410294,320.667378 500.42,320.23 C500.4413,319.886187 500.312572,319.550013 500.067083,319.30836 C499.821594,319.066707 499.483435,318.943288 499.14,318.97 C498.757183,318.967895 498.392309,319.132088 498.14,319.42 C497.866215,319.7981 497.719187,320.253184 497.72,320.72 L496.3,320.18 C496.315952,319.457477 496.635381,318.775062 497.18,318.3 C497.772786,317.822253 498.519379,317.576944 499.28,317.61 C499.824272,317.594546 500.363829,317.714829 500.85,317.96 C501.268031,318.159475 501.616441,318.480012 501.85,318.88 C502.069478,319.259793 502.183413,319.691364 502.18,320.13 C502.167391,320.912378 501.868557,321.663023 501.34,322.24 C500.55815,323.077189 499.654687,323.791869 498.66,324.36 L498.66,324.36 C499.13,324.36 499.61,324.36 500.11,324.36 L502.3,324.36 L502.3,325.69 L496.5,325.69 L496.5,324.52 Z" id="Path" fill="#FAC41C"></path>
                <path d="M509.76,323.79 L508.47,323.79 L508.47,325.65 L507,325.65 L507,323.79 L503,323.79 L503,322.92 L506.46,317.73 L508.46,317.73 L508.46,322.59 L509.75,322.59 L509.76,323.79 Z M504.62,322.59 L507,322.59 L507,320.17 L507,318.87 L507,318.87 C506.796211,319.327558 506.551904,319.765972 506.27,320.18 L504.62,322.59 Z" id="Shape" fill="#FAC41C"></path>
                <path d="M532.48,324.52 C533.284136,324.001245 534.055594,323.433506 534.79,322.82 C535.263641,322.428565 535.67796,321.970456 536.02,321.46 C536.262708,321.095261 536.394683,320.66808 536.4,320.23 C536.4213,319.886187 536.292572,319.550013 536.047083,319.30836 C535.801594,319.066707 535.463435,318.943288 535.12,318.97 C534.736038,318.96239 534.368949,319.127581 534.12,319.42 C533.837626,319.793686 533.689639,320.251738 533.7,320.72 L532.27,320.18 C532.289719,319.45621 532.612672,318.774018 533.16,318.3 C533.750973,317.818928 534.498866,317.573192 535.26,317.61 C535.801073,317.594524 536.337401,317.714854 536.82,317.96 C537.235,318.16393 537.582253,318.483404 537.82,318.88 C538.032063,319.262343 538.142258,319.69279 538.14,320.13 C538.127391,320.912378 537.828557,321.663023 537.3,322.24 C536.519871,323.074962 535.620053,323.789424 534.63,324.36 L534.63,324.36 C535.09,324.36 535.57,324.36 536.08,324.36 L538.26,324.36 L538.26,325.69 L532.55,325.69 L532.48,324.52 Z" id="Path" fill="#FAC41C"></path>
                <path d="M540.24,324.74 C539.172532,322.846768 539.172532,320.533232 540.24,318.64 C540.852838,317.982565 541.711228,317.609231 542.61,317.609231 C543.508772,317.609231 544.367162,317.982565 544.98,318.64 C546.047468,320.533232 546.047468,322.846768 544.98,324.74 C544.367162,325.397435 543.508772,325.770769 542.61,325.770769 C541.711228,325.770769 540.852838,325.397435 540.24,324.74 L540.24,324.74 Z M543.75,323.74 C544.038891,323.086535 544.165818,322.373004 544.12,321.66 C544.166183,320.950215 544.039207,320.239837 543.75,319.59 C543.521805,319.173652 543.084783,318.91482 542.61,318.91482 C542.135217,318.91482 541.698195,319.173652 541.47,319.59 C541.180793,320.239837 541.053817,320.950215 541.1,321.66 C541.054182,322.373004 541.181109,323.086535 541.47,323.74 C541.698195,324.156348 542.135217,324.41518 542.61,324.41518 C543.084783,324.41518 543.521805,324.156348 543.75,323.74 L543.75,323.74 Z" id="Shape" fill="#FAC41C"></path>
                <path d="M547.21,324.52 C548.009418,323.999039 548.777418,323.431387 549.51,322.82 C549.988942,322.434143 550.404041,321.975173 550.74,321.46 C550.985727,321.096107 551.121151,320.669 551.13,320.23 C551.151658,319.884301 551.021618,319.546322 550.773829,319.304295 C550.526039,319.062267 550.185094,318.940215 549.84,318.97 C549.456616,318.965194 549.090663,319.129873 548.84,319.42 C548.561727,319.795807 548.414206,320.252417 548.42,320.72 L546.99,320.18 C547.009719,319.45621 547.332672,318.774018 547.88,318.3 C548.472786,317.822253 549.219379,317.576944 549.98,317.61 C550.524272,317.594546 551.063829,317.714829 551.55,317.96 C551.965985,318.162488 552.313609,318.482301 552.55,318.88 C552.769478,319.259793 552.883413,319.691364 552.88,320.13 C552.867391,320.912378 552.568557,321.663023 552.04,322.24 C551.255922,323.074768 550.352843,323.789144 549.36,324.36 L549.36,324.36 C549.82,324.36 550.36,324.36 550.81,324.36 L553,324.36 L553,325.69 L547.29,325.69 L547.21,324.52 Z" id="Path" fill="#FAC41C"></path>
                <path d="M559.27,321.23 C559.723918,321.708902 559.965476,322.350652 559.94,323.01 C559.973786,323.762753 559.678076,324.492901 559.13,325.01 C558.532236,325.501935 557.773372,325.754889 557,325.72 C556.375695,325.742469 555.75603,325.604765 555.2,325.32 C554.690038,325.038461 554.273072,324.614545 554,324.1 L555.49,323.28 C555.55965,323.614275 555.726662,323.920464 555.97,324.16 C556.258015,324.372966 556.612733,324.475834 556.97,324.45 C557.335699,324.464653 557.693257,324.339508 557.97,324.1 C558.238907,323.839652 558.378148,323.473228 558.35,323.1 C558.387181,322.72806 558.251803,322.359601 557.98266,322.10021 C557.713517,321.840818 557.340315,321.719124 556.97,321.77 C556.423852,321.720907 555.886516,321.932135 555.52,322.34 L554.22,322.2 L554.71,317.71 L559.48,317.71 L559.48,319.04 L556,319.04 L555.77,320.9 L555.77,321.13 L555.77,321.13 C555.963829,320.928283 556.204188,320.7772 556.47,320.69 C556.790726,320.57589 557.129682,320.521657 557.47,320.53 C558.140738,320.505839 558.791811,320.759034 559.27,321.23 Z" id="Path" fill="#FAC41C"></path>
                <path d="M312.6,303.51 L272.6,303.51 L272.6,230.39 L312.6,230.39 L312.6,303.51 Z M276.6,299.51 L308.6,299.51 L308.6,234.39 L276.6,234.39 L276.6,299.51 Z" id="Shape" fill="#FAC41C"></path>
                <path d="M363,303.51 L323,303.51 L323,211.88 L363,211.88 L363,303.51 Z M327,299.51 L359,299.51 L359,215.88 L327,215.88 L327,299.51 Z" id="Shape" fill="#FAC41C"></path>
                <path d="M413.48,303.51 L373.48,303.51 L373.48,195.19 L413.48,195.19 L413.48,303.51 Z M377.48,299.51 L409.48,299.51 L409.48,199.19 L377.48,199.19 L377.48,299.51 Z" id="Shape" fill="#FAC41C"></path>
                <path d="M463.92,303.51 L423.92,303.51 L423.92,174 L463.92,174 L463.92,303.51 Z M427.92,299.51 L459.92,299.51 L459.92,178 L427.92,178 L427.92,299.51 Z" id="Shape" fill="#FAC41C"></path>
                <path d="M514.37,303.51 L474.37,303.51 L474.37,155.51 L514.37,155.51 L514.37,303.51 Z M478.37,299.51 L510.37,299.51 L510.37,159.51 L478.37,159.51 L478.37,299.51 Z" id="Shape" fill="#FAC41C"></path>
                <path d="M564.81,303.51 L524.81,303.51 L524.81,128.74 L564.81,128.74 L564.81,303.51 Z M528.81,299.51 L560.81,299.51 L560.81,132.74 L528.81,132.74 L528.81,299.51 Z" id="Shape" fill="#FAC41C"></path>
                <path d="M292.58,209.43 L542.24,112.1" id="Path" fill="#000000"></path>
                <rect id="Rectangle" fill="#FAC41C" transform="translate(417.398811, 160.807661) rotate(-21.300000) translate(-417.398811, -160.807661) " x="283.418811" y="158.807661" width="267.96" height="4"></rect>
                <path d="M232.3,250 C232.776756,249.470498 233.468786,249.187059 234.18,249.23 C234.87242,249.195273 235.542749,249.478873 236,250 C236.473034,250.609278 236.707688,251.370126 236.66,252.14 L236.66,253.81 L239.54,253.81 L239.54,255.47 L231.62,255.47 L231.62,252.1 C231.587763,251.34114 231.829069,250.595929 232.3,250 L232.3,250 Z M235.09,251.27 C234.853126,251.017679 234.515214,250.885453 234.17,250.91 C233.827283,250.882593 233.491211,251.015544 233.26,251.27 C233.03266,251.600791 232.926674,252.000006 232.96,252.4 L232.96,253.81 L235.39,253.81 L235.39,252.4 C235.432913,251.986689 235.326497,251.571667 235.09,251.23 L235.09,251.27 Z" id="Shape" fill="#FAC41C"></path>
                <path d="M233.57,243.8 L235.01,244 C234.87912,244.231129 234.81669,244.494721 234.83,244.76 C234.826639,245.138908 234.982677,245.501786 235.26,245.76 C235.57945,246.062841 236.010753,246.21869 236.45,246.19 L239.56,246.19 L239.56,247.83 L233.56,247.83 L233.56,246.41 L234.73,246.3 C233.924393,246.049115 233.392667,245.28244 233.44,244.44 C233.427722,244.219048 233.472489,243.998652 233.57,243.8 Z" id="Path" fill="#FAC41C"></path>
                <path d="M234.27,237.88 C235.605379,236.799199 237.514621,236.799199 238.85,237.88 C239.957444,239.183166 239.957444,241.096834 238.85,242.4 C237.514621,243.480801 235.605379,243.480801 234.27,242.4 C233.162556,241.096834 233.162556,239.183166 234.27,237.88 L234.27,237.88 Z M235.14,241.2 C236.022401,241.693307 237.097599,241.693307 237.98,241.2 C238.279374,240.928913 238.450156,240.543873 238.450156,240.14 C238.450156,239.736127 238.279374,239.351087 237.98,239.08 C237.097599,238.586693 236.022401,238.586693 235.14,239.08 C234.834787,239.34772 234.659785,239.734009 234.659785,240.14 C234.659785,240.545991 234.834787,240.93228 235.14,241.2 L235.14,241.2 Z" id="Shape" fill="#FAC41C"></path>
                <path d="M234.26,230.24 C235.655465,229.332611 237.454535,229.332611 238.85,230.24 C239.404608,230.707335 239.711173,231.405418 239.68,232.13 C239.697412,232.916707 239.26726,233.645254 238.57,234.01 L242.08,234.01 L242.08,235.65 L233.56,235.65 L233.56,234.2 L234.75,234.14 C234.347785,233.978047 234.000648,233.703809 233.75,233.35 C233.512648,232.988083 233.390613,232.562703 233.4,232.13 C233.374579,231.400027 233.692938,230.700377 234.26,230.24 L234.26,230.24 Z M237.94,231.57 C237.086053,231.076973 236.033947,231.076973 235.18,231.57 C234.894104,231.819207 234.724307,232.17578 234.711041,232.554811 C234.697775,232.933843 234.842227,233.301414 235.11,233.57 C235.443763,233.840762 235.860222,233.988993 236.29,233.99 L236.82,233.99 C237.249778,233.988993 237.666237,233.840762 238,233.57 C238.286089,233.318816 238.440935,232.950134 238.42,232.57 C238.423222,232.180381 238.24601,231.811188 237.94,231.57 L237.94,231.57 Z" id="Shape" fill="#FAC41C"></path>
                <path d="M237.18,222.55 L237.18,226.8 C237.942141,226.731125 238.507766,226.063063 238.45,225.3 C238.462843,225.001661 238.397337,224.70516 238.26,224.44 C238.13983,224.223953 237.943891,224.060077 237.71,223.98 L238.2,222.63 C238.674865,222.820408 239.065331,223.175377 239.3,223.63 C239.568737,224.155288 239.699501,224.740282 239.68,225.33 C239.730484,226.17623 239.434449,227.006572 238.86,227.63 C237.516898,228.710163 235.603102,228.710163 234.26,227.63 C233.684017,227.035818 233.386155,226.225778 233.44,225.4 C233.390282,224.605369 233.681206,223.827149 234.24,223.26 C234.878521,222.724883 235.698631,222.456288 236.53,222.51 C236.747347,222.507652 236.96458,222.521021 237.18,222.55 Z M235,226.36 C235.278047,226.610923 235.627797,226.768311 236,226.81 L236,224 C235.626811,224.045152 235.277123,224.206009 235,224.46 C234.763828,224.710826 234.6378,225.045701 234.65,225.39 C234.63147,225.747245 234.757632,226.096893 235,226.36 L235,226.36 Z" id="Shape" fill="#FAC41C"></path>
                <path d="M233.57,217.08 L235.01,217.28 C234.878068,217.510715 234.815564,217.774619 234.83,218.04 C234.826639,218.418908 234.982677,218.781786 235.26,219.04 C235.581976,219.338721 236.011444,219.493907 236.45,219.47 L239.56,219.47 L239.56,221.11 L233.56,221.11 L233.56,219.68 L234.73,219.57 C233.922139,219.322193 233.388995,218.553473 233.44,217.71 C233.427631,217.492255 233.472448,217.275063 233.57,217.08 Z" id="Path" fill="#FAC41C"></path>
                <path d="M239.19,212.17 C239.353066,212.385937 239.47509,212.629985 239.55,212.89 C239.633795,213.189575 239.677509,213.498936 239.68,213.81 C239.68,215.15 239.07,215.81 237.87,215.81 L234.78,215.81 L234.78,216.9 L233.56,216.9 L233.56,215.81 L232.18,215.81 L231.72,214.16 L233.56,214.16 L233.56,212.22 L234.78,212.22 L234.78,214.16 L237.6,214.16 C237.828932,214.194259 238.060545,214.117909 238.224227,213.954227 C238.387909,213.790545 238.464259,213.558932 238.43,213.33 C238.437005,212.991385 238.315526,212.662679 238.09,212.41 L239.19,212.17 Z" id="Path" fill="#FAC41C"></path>
                <path d="M239.93,207.81 C240.577398,207.995521 241.168478,208.339173 241.65,208.81 C241.990189,209.253144 242.163647,209.801837 242.14,210.36 C242.170671,210.909714 242.003992,211.452307 241.67,211.89 L240.51,211.48 C240.642801,211.364666 240.742833,211.216343 240.8,211.05 C240.856632,210.861996 240.883623,210.666315 240.88,210.47 C240.891688,210.258089 240.835652,210.047954 240.72,209.87 C240.576984,209.688618 240.381385,209.555891 240.16,209.49 L239.64,209.27 L238.08,209.93 L233.56,211.77 L233.56,210 L237.16,208.87 L238.36,208.55 L237.09,208.19 L233.56,207.09 L233.56,205.42 L239.93,207.81 Z" id="Path" fill="#FAC41C"></path>
                <polygon id="Path" fill="#FAC41C" points="239.56 197.3 239.56 199.23 231.64 202.12 231.64 200.37 236.64 198.7 238.2 198.25 236.65 197.8 231.6 196.12 231.6 194.42"></polygon>
                <path d="M238.51,188.22 L239.51,188.34 C239.626701,188.583191 239.684917,188.850302 239.68,189.12 C239.773121,189.74162 239.386401,190.33459 238.78,190.5 C239.087669,190.687433 239.323583,190.972643 239.45,191.31 C239.610176,191.727819 239.688268,192.172607 239.68,192.62 C239.711549,193.109455 239.569955,193.594415 239.28,193.99 C239.000995,194.327271 238.576711,194.509638 238.14,194.48 C237.14,194.48 236.53,193.7 236.25,192.14 L236,190.7 L235.71,190.7 C235.430824,190.685235 235.157287,190.782413 234.95,190.97 C234.756302,191.170104 234.654825,191.441917 234.67,191.72 C234.655181,192.037581 234.739017,192.351966 234.91,192.62 C235.101901,192.870725 235.379698,193.041677 235.69,193.1 L235.14,194.41 C234.633907,194.29387 234.192817,193.985466 233.91,193.55 C233.597155,193.017845 233.444387,192.40677 233.47,191.79 C233.425199,191.079196 233.622601,190.374188 234.03,189.79 C234.43479,189.30204 235.046969,189.034907 235.68,189.07 L238.14,189.07 C238.263526,189.080652 238.386122,189.040989 238.48,188.96 C238.563825,188.871776 238.604126,188.750874 238.59,188.63 C238.588144,188.489641 238.561046,188.350761 238.51,188.22 Z M238.3,191.14 C238.169986,190.871558 237.898268,190.700764 237.6,190.7 L237,190.7 L237.29,191.98 C237.328017,192.199084 237.41333,192.407249 237.54,192.59 C237.651067,192.722581 237.817163,192.796401 237.99,192.79 C238.156859,192.802832 238.319977,192.736102 238.43,192.61 C238.538176,192.462809 238.591261,192.28232 238.58,192.1 C238.580319,191.759819 238.48315,191.42667 238.3,191.14 L238.3,191.14 Z" id="Shape" fill="#FAC41C"></path>
                <path d="M237.65,185.6 C237.858683,185.620649 238.068578,185.575172 238.25,185.47 C238.378465,185.353682 238.441947,185.181905 238.42,185.01 C238.431182,184.893601 238.431182,184.776399 238.42,184.66 C238.42,184.56 238.36,184.44 238.32,184.3 L239.46,184.45 C239.54852,184.604977 239.609427,184.774162 239.64,184.95 C239.687393,185.153236 239.710886,185.361313 239.71,185.57 C239.754172,186.035265 239.597744,186.497274 239.28,186.84 C238.895749,187.1455 238.409077,187.292218 237.92,187.25 L230.92,187.25 L230.92,185.6 L237.65,185.6 Z" id="Path" fill="#FAC41C"></path>
                <path d="M233.56,177.69 L239.56,177.69 L239.56,179.16 L238.56,179.22 C239.335691,179.620008 239.790752,180.450988 239.71,181.32 C239.735596,181.880334 239.550035,182.429879 239.19,182.86 C238.752846,183.273807 238.159765,183.481204 237.56,183.43 L233.56,183.43 L233.56,181.79 L237.11,181.79 C237.465439,181.829121 237.822553,181.7327 238.11,181.52 C238.315395,181.314479 238.421243,181.029784 238.4,180.74 C238.412389,180.365394 238.26732,180.002722 238,179.74 C237.663324,179.456521 237.228848,179.316483 236.79,179.35 L233.58,179.35 L233.56,177.69 Z" id="Path" fill="#FAC41C"></path>
                <path d="M237.18,170.41 L237.18,174.66 C237.942141,174.591125 238.507766,173.923063 238.45,173.16 C238.462843,172.861661 238.397337,172.56516 238.26,172.3 C238.13983,172.083953 237.943891,171.920077 237.71,171.84 L238.2,170.49 C238.67297,170.683422 239.06251,171.03755 239.3,171.49 C239.568737,172.015288 239.699501,172.600282 239.68,173.19 C239.730484,174.03623 239.434449,174.866572 238.86,175.49 C238.234766,176.061453 237.405733,176.357021 236.56,176.31 C235.719394,176.358511 234.893383,176.074794 234.26,175.52 C233.68881,174.918766 233.391979,174.10791 233.44,173.28 C233.391562,172.48556 233.682297,171.707845 234.24,171.14 C234.878521,170.604883 235.698631,170.336288 236.53,170.39 C236.746866,170.381017 236.964097,170.387701 237.18,170.41 Z M235,174.22 C235.273179,174.478283 235.625517,174.636835 236,174.67 L236,171.87 C235.626811,171.915152 235.277123,172.076009 235,172.33 C234.763828,172.580826 234.6378,172.915701 234.65,173.26 C234.633057,173.614011 234.759186,173.959963 235,174.22 L235,174.22 Z" id="Shape" fill="#FAC41C"></path>
                <polygon id="Path" fill="#FAC41C" points="74.91 345.87 72.08 343.04 90.16 324.97 113.28 336.88 140.02 316.25 142.47 319.41 113.71 341.6 90.92 329.86"></polygon>
                <circle id="Oval" fill="#000000" cx="73.64" cy="340.65" r="3.78"></circle>
                <path d="M73.64,346.43 C70.4477941,346.43 67.86,343.842206 67.86,340.65 C67.86,337.457794 70.4477941,334.87 73.64,334.87 C76.8322059,334.87 79.42,337.457794 79.42,340.65 C79.42,343.842206 76.8322059,346.43 73.64,346.43 Z M73.64,338.879972 C72.9191496,338.880011 72.2694734,339.314784 71.9945594,339.981153 C71.7196454,340.647522 71.8737765,341.41391 72.3849285,341.922191 C72.8960805,342.430471 73.6633246,342.580282 74.3281341,342.301618 C74.9929437,342.022954 75.4240497,341.370839 75.4200283,340.65 C75.4200283,340.178829 75.2321538,339.727101 74.8980485,339.394872 C74.5639431,339.062644 74.1111634,338.877338 73.64,338.879972 L73.64,338.879972 Z" id="Shape" fill="#FAC41C"></path>
                <circle id="Oval" fill="#000000" cx="90.75" cy="326.65" r="3.78"></circle>
                <path d="M90.75,332.43 C87.5577941,332.43 84.97,329.842206 84.97,326.65 C84.97,323.457794 87.5577941,320.87 90.75,320.87 C93.9422059,320.87 96.53,323.457794 96.53,326.65 C96.53,329.842206 93.9422059,332.43 90.75,332.43 Z M90.75,324.879972 C90.0291496,324.880011 89.3794734,325.314784 89.1045594,325.981153 C88.8296454,326.647522 88.9837765,327.41391 89.4949285,327.922191 C90.0060805,328.430471 90.7733246,328.580282 91.4381341,328.301618 C92.1029437,328.022954 92.5340497,327.370839 92.5300283,326.65 C92.5300283,326.178829 92.3421538,325.727101 92.0080485,325.394872 C91.6739431,325.062644 91.2211634,324.877338 90.75,324.879972 Z" id="Shape" fill="#FAC41C"></path>
                <circle id="Oval" fill="#000000" cx="113.28" cy="336.88" r="3.78"></circle>
                <path d="M113.28,342.650009 C110.940393,342.654044 108.829097,341.247277 107.931899,339.086533 C107.034701,336.92579 107.528577,334.437286 109.182931,332.782931 C110.837286,331.128577 113.32579,330.634701 115.486533,331.531899 C117.647277,332.429097 119.054044,334.540393 119.050009,336.88 C119.044495,340.0644 116.4644,342.644495 113.28,342.650009 Z M113.28,335.099972 C112.559161,335.09595 111.907046,335.527056 111.628382,336.191866 C111.349718,336.856675 111.499529,337.62392 112.007809,338.135072 C112.51609,338.646223 113.282478,338.800355 113.948847,338.525441 C114.615216,338.250527 115.05,337.60085 115.05,336.88 C115.05,335.900825 114.259159,335.105501 113.28,335.099972 L113.28,335.099972 Z" id="Shape" fill="#FAC41C"></path>
                <circle id="Oval" fill="#000000" cx="139.68" cy="317.1" r="3.78"></circle>
                <path d="M139.68,322.88 C136.487794,322.88 133.9,320.292206 133.9,317.1 C133.9,313.907794 136.487794,311.32 139.68,311.32 C142.872206,311.32 145.46,313.907794 145.46,317.1 C145.46,320.292206 142.872206,322.88 139.68,322.88 Z M139.68,315.33 C138.95915,315.33 138.309473,315.764784 138.034559,316.431153 C137.759645,317.097522 137.913777,317.86391 138.424928,318.372191 C138.93608,318.880471 139.703325,319.030282 140.368134,318.751618 C141.032944,318.472954 141.46405,317.820839 141.460028,317.1 C141.454499,316.120841 140.659175,315.33 139.68,315.33 L139.68,315.33 Z" id="Shape" fill="#FAC41C"></path>
                <path d="M75,135.79 L69.5,129.25 L72.31,129.25 C73.756986,129.25 74.93,128.076986 74.93,126.63 C74.93,125.183014 73.756986,124.01 72.31,124.01 L69.31,124.01 L69.31,123.36 L72.31,123.36 C74.1159711,123.36 75.58,124.824029 75.58,126.63 C75.58,128.435971 74.1159711,129.9 72.31,129.9 L70.9,129.9 L75.5,135.37 L75,135.79 Z" id="Path" fill="#FAC41C"></path>
                <rect id="Rectangle" fill="#FAC41C" x="69.24" y="123.36" width="8.8" height="1"></rect>
                <rect id="Rectangle" fill="#FAC41C" x="69.24" y="126.32" width="8.8" height="1"></rect>
                <path d="M89.16,122.91 L89.16,133.47 L87.48,133.47 L87.48,125.66 C87.48,125.3 87.48,125.02 87.48,124.81 C87.112564,125.171369 86.6949319,125.477857 86.24,125.72 C85.7957296,125.970985 85.317423,126.156245 84.82,126.27 L84.5,124.78 C84.8756033,124.718518 85.2397311,124.600514 85.58,124.43 C86.0224012,124.231519 86.4443974,123.990378 86.84,123.71 C87.1688693,123.492644 87.4594683,123.222319 87.7,122.91 L89.16,122.91 Z" id="Path" fill="#FAC41C"></path>
                <path d="M92,132.25 C90.627263,129.717386 90.627263,126.662614 92,124.13 C92.7599103,123.244833 93.8683876,122.735528 95.035,122.735528 C96.2016124,122.735528 97.3100897,123.244833 98.07,124.13 C99.4575676,126.658833 99.4575676,129.721167 98.07,132.25 C97.3100897,133.135167 96.2016124,133.644472 95.035,133.644472 C93.8683876,133.644472 92.7599103,133.135167 92,132.25 L92,132.25 Z M96.77,131.17 C97.5812743,129.252271 97.5812743,127.087729 96.77,125.17 C96.4294933,124.530829 95.7536881,124.142435 95.03,124.17 C93.48,124.17 92.71,125.49 92.71,128.17 C92.71,130.85 93.48,132.17 95.03,132.17 C95.7607682,132.205415 96.4463354,131.815888 96.79,131.17 L96.77,131.17 Z" id="Shape" fill="#FAC41C"></path>
                <path d="M102.43,131.78 C102.683113,132.135418 102.813051,132.56386 102.8,133 C102.800838,133.595357 102.630771,134.178445 102.31,134.68 C101.970594,135.205783 101.483595,135.619733 100.91,135.87 L100.08,135.17 C100.490849,135.028939 100.866165,134.800338 101.18,134.5 C101.465063,134.227407 101.669246,133.881335 101.77,133.5 L101.69,133.5 C101.564364,133.60357 101.401512,133.650616 101.24,133.63 C100.974197,133.631537 100.718719,133.527187 100.53,133.34 C100.313812,133.119703 100.201157,132.818079 100.22,132.51 C100.21343,132.190331 100.340243,131.882358 100.57,131.66 C100.802531,131.441847 101.111225,131.323394 101.43,131.33 C101.816702,131.308327 102.189759,131.476203 102.43,131.78 Z" id="Path" fill="#FAC41C"></path>
                <path d="M104.8,132.25 C103.427263,129.717386 103.427263,126.662614 104.8,124.13 C105.559953,123.241334 106.670703,122.729692 107.84,122.729692 C109.009297,122.729692 110.120047,123.241334 110.88,124.13 C112.252737,126.662614 112.252737,129.717386 110.88,132.25 C110.120047,133.138666 109.009297,133.650308 107.84,133.650308 C106.670703,133.650308 105.559953,133.138666 104.8,132.25 L104.8,132.25 Z M109.58,131.17 C110.377784,129.249557 110.377784,127.090443 109.58,125.17 C109.23596,124.534262 108.562501,124.147216 107.84,124.17 C106.29,124.17 105.51,125.49 105.51,128.17 C105.51,130.85 106.29,132.17 107.84,132.17 C108.562501,132.192784 109.23596,131.805738 109.58,131.17 L109.58,131.17 Z" id="Shape" fill="#FAC41C"></path>
                <path d="M114.21,132.25 C112.837263,129.717386 112.837263,126.662614 114.21,124.13 C114.96991,123.244833 116.078388,122.735528 117.245,122.735528 C118.411612,122.735528 119.52009,123.244833 120.28,124.13 C121.667568,126.658833 121.667568,129.721167 120.28,132.25 C119.52009,133.135167 118.411612,133.644472 117.245,133.644472 C116.078388,133.644472 114.96991,133.135167 114.21,132.25 L114.21,132.25 Z M118.99,131.17 C119.787784,129.249557 119.787784,127.090443 118.99,125.17 C118.644337,124.530959 117.966049,124.143366 117.24,124.17 C115.7,124.17 114.92,125.49 114.92,128.17 C114.92,130.85 115.7,132.17 117.24,132.17 C117.969591,132.200513 118.652728,131.812367 119,131.17 L118.99,131.17 Z" id="Shape" fill="#FAC41C"></path>
                <path d="M124.63,131.78 C124.883113,132.135418 125.013051,132.56386 125,133 C125.004388,133.594439 124.837769,134.177605 124.52,134.68 C124.17397,135.203787 123.684483,135.616901 123.11,135.87 L122.28,135.17 C122.690849,135.028939 123.066165,134.800338 123.38,134.5 C123.66848,134.230132 123.873283,133.883008 123.97,133.5 L123.89,133.5 C123.764364,133.60357 123.601512,133.650616 123.44,133.63 C123.174197,133.631537 122.918719,133.527187 122.73,133.34 C122.513812,133.119703 122.401157,132.818079 122.42,132.51 C122.41343,132.190331 122.540243,131.882358 122.77,131.66 C123.006169,131.441239 123.318158,131.322898 123.64,131.33 C124.022613,131.314905 124.389792,131.481804 124.63,131.78 Z" id="Path" fill="#FAC41C"></path>
                <path d="M127,132.25 C125.612432,129.721167 125.612432,126.658833 127,124.13 C127.709937,123.201792 128.833225,122.68508 130,122.75 C131.165104,122.693791 132.284537,123.20873 133,124.13 C134.387568,126.658833 134.387568,129.721167 133,132.25 C132.284537,133.17127 131.165104,133.686209 130,133.63 C128.833225,133.69492 127.709937,133.178208 127,132.25 L127,132.25 Z M131.77,131.17 C132.567784,129.249557 132.567784,127.090443 131.77,125.17 C131.429493,124.530829 130.753688,124.142435 130.03,124.17 C128.48,124.17 127.71,125.49 127.71,128.17 C127.71,130.85 128.48,132.17 130.03,132.17 C130.753688,132.197565 131.429493,131.809171 131.77,131.17 L131.77,131.17 Z" id="Shape" fill="#FAC41C"></path>
                <path d="M136.4,132.25 C135.027263,129.717386 135.027263,126.662614 136.4,124.13 C137.15991,123.244833 138.268388,122.735528 139.435,122.735528 C140.601612,122.735528 141.71009,123.244833 142.47,124.13 C143.857568,126.658833 143.857568,129.721167 142.47,132.25 C141.71009,133.135167 140.601612,133.644472 139.435,133.644472 C138.268388,133.644472 137.15991,133.135167 136.4,132.25 L136.4,132.25 Z M141.18,131.17 C141.977784,129.249557 141.977784,127.090443 141.18,125.17 C140.834337,124.530959 140.156049,124.143366 139.43,124.17 C137.89,124.17 137.11,125.49 137.11,128.17 C137.11,130.85 137.89,132.17 139.43,132.17 C140.156049,132.196634 140.834337,131.809041 141.18,131.17 L141.18,131.17 Z" id="Shape" fill="#FAC41C"></path>
                <path d="M145.81,132.25 C144.437263,129.717386 144.437263,126.662614 145.81,124.13 C146.56991,123.244833 147.678388,122.735528 148.845,122.735528 C150.011612,122.735528 151.12009,123.244833 151.88,124.13 C153.267568,126.658833 153.267568,129.721167 151.88,132.25 C151.12009,133.135167 150.011612,133.644472 148.845,133.644472 C147.678388,133.644472 146.56991,133.135167 145.81,132.25 L145.81,132.25 Z M150.59,131.17 C151.387784,129.249557 151.387784,127.090443 150.59,125.17 C150.244337,124.530959 149.566049,124.143366 148.84,124.17 C147.3,124.17 146.52,125.49 146.52,128.17 C146.52,130.85 147.3,132.17 148.84,132.17 C149.566049,132.196634 150.244337,131.809041 150.59,131.17 L150.59,131.17 Z" id="Shape" fill="#FAC41C"></path>
                <rect id="Rectangle" fill="#FAC41C" x="67.83" y="110.41" width="41.67" height="4"></rect>
                <path d="M75,221.12 L69.5,214.58 L72.31,214.58 C73.756986,214.58 74.93,213.406986 74.93,211.96 C74.93,210.513014 73.756986,209.34 72.31,209.34 L69.31,209.34 L69.31,208.69 L72.31,208.69 C73.4782586,208.69 74.5577742,209.313258 75.1419035,210.325 C75.7260329,211.336741 75.7260329,212.583259 75.1419035,213.595 C74.5577742,214.606742 73.4782586,215.23 72.31,215.23 L70.9,215.23 L75.5,220.7 L75,221.12 Z" id="Path" fill="#FAC41C"></path>
                <rect id="Rectangle" fill="#FAC41C" x="69.24" y="208.69" width="8.8" height="1"></rect>
                <rect id="Rectangle" fill="#FAC41C" x="69.24" y="211.65" width="8.8" height="1"></rect>
                <path d="M91.82,209.54 C92.6022386,210.722236 92.9843153,212.124353 92.91,213.54 C93.0116932,214.972662 92.6315488,216.398203 91.83,217.59 C91.0695068,218.520093 89.909414,219.029493 88.71,218.96 C87.8892575,218.994722 87.076163,218.789711 86.37,218.37 C85.7384766,217.932087 85.2567429,217.31072 84.99,216.59 L86.6,215.84 C86.722382,216.309037 86.9674429,216.737031 87.31,217.08 C87.7084026,217.388056 88.2083573,217.534471 88.71,217.49 C89.5264054,217.545029 90.3027235,217.129698 90.71,216.42 C91.1725157,215.45854 91.3824516,214.395094 91.32,213.33 L91.32,213.15 L91.25,213.15 C91.1364019,213.732399 90.7700598,214.234288 90.25,214.52 C89.6971919,214.817382 89.0776582,214.968823 88.45,214.96 C87.818055,214.971516 87.1929941,214.827271 86.63,214.54 C86.1094595,214.27275 85.6784363,213.859107 85.39,213.35 C85.0826342,212.80068 84.9272986,212.179337 84.94,211.55 C84.8857415,210.597817 85.2511704,209.669628 85.94,209.01 C86.7074492,208.358863 87.6949858,208.026106 88.7,208.08 C89.9186848,208.014445 91.0894939,208.562324 91.82,209.54 L91.82,209.54 Z M87.21,210.1 C86.8376671,210.496228 86.6427009,211.026969 86.67,211.57 C86.6409579,212.09842 86.8371764,212.614402 87.21,212.99 C88.0930985,213.673817 89.3269015,213.673817 90.21,212.99 C90.5906805,212.625786 90.7980159,212.116541 90.78,211.59 C90.8044121,211.050617 90.5969673,210.526546 90.21,210.15 C89.8043463,209.772347 89.2636292,209.574084 88.71,209.6 C88.1645049,209.56907 87.6278383,209.747959 87.21,210.1 L87.21,210.1 Z" id="Shape" fill="#FAC41C"></path>
                <path d="M96.27,217.11 C96.5216717,217.469411 96.6481691,217.901611 96.63,218.34 C96.6330322,218.93112 96.4664447,219.510706 96.15,220.01 C95.810594,220.535783 95.3235946,220.949733 94.75,221.2 L93.92,220.5 C94.3308494,220.358939 94.7061646,220.130338 95.02,219.83 C95.3050632,219.557407 95.5092457,219.211335 95.61,218.83 L95.53,218.83 C95.4043641,218.93357 95.2415121,218.980616 95.08,218.96 C94.814197,218.961537 94.5587188,218.857187 94.37,218.67 C94.153812,218.449703 94.0411572,218.148079 94.06,217.84 C94.0534303,217.520331 94.1802428,217.212358 94.41,216.99 C94.6425306,216.771847 94.9512248,216.653394 95.27,216.66 C95.656702,216.638327 96.0297593,216.806203 96.27,217.11 L96.27,217.11 Z" id="Path" fill="#FAC41C"></path>
                <path d="M98.64,217.58 C97.267263,215.047386 97.267263,211.992614 98.64,209.46 C99.3999103,208.574833 100.508388,208.065528 101.675,208.065528 C102.841612,208.065528 103.95009,208.574833 104.71,209.46 C106.097568,211.988833 106.097568,215.051167 104.71,217.58 C103.95009,218.465167 102.841612,218.974472 101.675,218.974472 C100.508388,218.974472 99.3999103,218.465167 98.64,217.58 L98.64,217.58 Z M103.42,216.5 C104.217784,214.579557 104.217784,212.420443 103.42,210.5 C103.074337,209.860959 102.396049,209.473366 101.67,209.5 C100.13,209.5 99.35,210.82 99.35,213.5 C99.35,216.18 100.13,217.5 101.67,217.5 C102.396049,217.526634 103.074337,217.139041 103.42,216.5 Z" id="Shape" fill="#FAC41C"></path>
                <path d="M108.05,217.58 C106.677263,215.047386 106.677263,211.992614 108.05,209.46 C108.80991,208.574833 109.918388,208.065528 111.085,208.065528 C112.251612,208.065528 113.36009,208.574833 114.12,209.46 C115.507568,211.988833 115.507568,215.051167 114.12,217.58 C113.36009,218.465167 112.251612,218.974472 111.085,218.974472 C109.918388,218.974472 108.80991,218.465167 108.05,217.58 L108.05,217.58 Z M112.83,216.5 C113.627784,214.579557 113.627784,212.420443 112.83,210.5 C112.484337,209.860959 111.806049,209.473366 111.08,209.5 C109.54,209.5 108.76,210.82 108.76,213.5 C108.76,216.18 109.54,217.5 111.08,217.5 C111.806049,217.526634 112.484337,217.139041 112.83,216.5 L112.83,216.5 Z" id="Shape" fill="#FAC41C"></path>
                <path d="M117.46,217.58 C116.087263,215.047386 116.087263,211.992614 117.46,209.46 C118.21991,208.574833 119.328388,208.065528 120.495,208.065528 C121.661612,208.065528 122.77009,208.574833 123.53,209.46 C124.917568,211.988833 124.917568,215.051167 123.53,217.58 C122.77009,218.465167 121.661612,218.974472 120.495,218.974472 C119.328388,218.974472 118.21991,218.465167 117.46,217.58 L117.46,217.58 Z M122.23,216.5 C123.041274,214.582271 123.041274,212.417729 122.23,210.5 C121.889493,209.860829 121.213688,209.472435 120.49,209.5 C118.94,209.5 118.17,210.82 118.17,213.5 C118.17,216.18 118.94,217.5 120.49,217.5 C121.213688,217.527565 121.889493,217.139171 122.23,216.5 L122.23,216.5 Z" id="Shape" fill="#FAC41C"></path>
                <path d="M126.87,217.58 C125.482432,215.051167 125.482432,211.988833 126.87,209.46 C127.579937,208.531792 128.703225,208.01508 129.87,208.08 C131.035104,208.023791 132.154537,208.53873 132.87,209.46 C134.257568,211.988833 134.257568,215.051167 132.87,217.58 C132.154537,218.50127 131.035104,219.016209 129.87,218.96 C128.703225,219.02492 127.579937,218.508208 126.87,217.58 L126.87,217.58 Z M131.64,216.5 C132.437784,214.579557 132.437784,212.420443 131.64,210.5 C131.299493,209.860829 130.623688,209.472435 129.9,209.5 C128.35,209.5 127.58,210.82 127.58,213.5 C127.58,216.18 128.35,217.5 129.9,217.5 C130.623688,217.527565 131.299493,217.139171 131.64,216.5 L131.64,216.5 Z" id="Shape" fill="#FAC41C"></path>
                <rect id="Rectangle" fill="#FAC41C" x="67.83" y="195.74" width="41.67" height="4"></rect>
                <rect id="Rectangle" fill="#FAC41C" x="67.83" y="299.51" width="41.67" height="4"></rect>
                <path d="M73,168.48 L73,179 L71.32,179 L71.32,171.19 C71.32,170.82 71.32,170.54 71.32,170.34 C70.9499184,170.698247 70.5327478,171.004397 70.08,171.25 C69.6357296,171.500985 69.157423,171.686245 68.66,171.8 L68.34,170.31 C68.7156033,170.248518 69.0797311,170.130514 69.42,169.96 C69.8595574,169.755971 70.2810611,169.515112 70.68,169.24 C71.006702,169.019902 71.2968897,168.749959 71.54,168.44 L73,168.48 Z" id="Path" fill="#FAC41C"></path>
                <path d="M81.41,169.1 C82.4340378,169.964777 82.672074,171.448253 81.97,172.59 C81.6795401,172.999909 81.2816025,173.321719 80.82,173.52 L80.82,173.52 C81.3911233,173.714851 81.8990103,174.060353 82.29,174.52 C82.6423409,174.996696 82.8253582,175.577423 82.81,176.17 C82.8382964,177.034547 82.4331214,177.856152 81.73,178.36 C80.8817167,178.939956 79.8661348,179.2246 78.84,179.17 C77.8076227,179.224568 76.7857121,178.940118 75.93,178.36 C75.2268786,177.856152 74.8217036,177.034547 74.85,176.17 C74.8367479,175.576144 75.0234006,174.995055 75.38,174.52 C75.7626475,174.051156 76.273387,173.703714 76.85,173.52 L76.85,173.52 C76.3822779,173.331998 75.9816882,173.008043 75.7,172.59 C75.4184252,172.167348 75.2751521,171.66764 75.29,171.16 C75.2691883,170.348933 75.6417034,169.577827 76.29,169.09 C77.0424563,168.550878 77.9555388,168.282947 78.88,168.33 C79.7862428,168.292397 80.6783591,168.563911 81.41,169.1 Z M80.48,177.29 C80.8622338,176.972726 81.0833815,176.501755 81.0833815,176.005 C81.0833815,175.508245 80.8622338,175.037274 80.48,174.72 C80.0034952,174.387593 79.4303322,174.222325 78.85,174.25 C78.2665577,174.222358 77.6902372,174.387523 77.21,174.72 C76.8066318,175.02423 76.575578,175.504971 76.59,176.01 C76.5696819,176.51118 76.7979252,176.990117 77.2,177.29 C78.2108276,177.903635 79.4791724,177.903635 80.49,177.29 L80.48,177.29 Z M77.48,170.18 C77.1674123,170.474747 76.9902219,170.885364 76.9902219,171.315 C76.9902219,171.744636 77.1674123,172.155253 77.48,172.45 C78.2892991,172.99798 79.3507009,172.99798 80.16,172.45 C80.5004536,172.1762 80.6899031,171.756439 80.67,171.32 C80.689123,170.885886 80.5041323,170.467807 80.17,170.19 C79.7887813,169.892636 79.3127495,169.743432 78.83,169.77 C78.3492509,169.746723 77.8754167,169.891702 77.49,170.18 L77.48,170.18 Z" id="Shape" fill="#FAC41C"></path>
                <path d="M92.91,169.12 C93.8839351,170.380449 93.8839351,172.139551 92.91,173.4 C91.8336836,174.469057 90.0963164,174.469057 89.02,173.4 C88.0460649,172.139551 88.0460649,170.380449 89.02,169.12 C90.0963164,168.050943 91.8336836,168.050943 92.91,169.12 L92.91,169.12 Z M90,170 C89.7579433,170.37384 89.6422699,170.815502 89.67,171.26 C89.6408223,171.698359 89.7567936,172.13413 90,172.5 C90.2212472,172.793144 90.5731703,172.957874 90.94,172.94 C91.3096078,172.957725 91.6644757,172.793365 91.89,172.5 C92.1332064,172.13413 92.2491777,171.698359 92.22,171.26 C92.2477301,170.815502 92.1320567,170.37384 91.89,170 C91.6644757,169.706635 91.3096078,169.542275 90.94,169.56 C90.5731703,169.542126 90.2212472,169.706856 90,170 Z M97.43,168.48 L98.9,168.48 L92,179 L90.51,179 L97.43,168.48 Z M100.43,174.12 C101.402301,175.377285 101.402301,177.132715 100.43,178.39 C99.9362463,178.935461 99.2250302,179.232412 98.49,179.2 C97.7525225,179.229837 97.039292,178.933572 96.54,178.39 C95.5815596,177.128015 95.5815596,175.381985 96.54,174.12 C97.039292,173.576428 97.7525225,173.280163 98.49,173.31 C99.2353284,173.26844 99.9594707,173.566184 100.46,174.12 L100.43,174.12 Z M97.55,175.01 C97.3067936,175.37587 97.1908223,175.811641 97.22,176.25 C97.1922699,176.694498 97.3079433,177.13616 97.55,177.51 C97.7712472,177.803144 98.1231703,177.967874 98.49,177.95 C98.8767972,177.984924 99.2544268,177.818767 99.49,177.51 C99.7320567,177.13616 99.8477301,176.694498 99.82,176.25 C99.8491777,175.811641 99.7332064,175.37587 99.49,175.01 C99.2544268,174.701233 98.8767972,174.535076 98.49,174.57 C98.1353796,174.559673 97.7971867,174.719479 97.58,175 L97.55,175.01 Z" id="Shape" fill="#FAC41C"></path>
                <rect id="Rectangle" fill="#FAC41C" x="67.83" y="156.04" width="41.67" height="4"></rect>
                <rect id="Rectangle" fill="#000000" x="697.86" y="132.07" width="143.12" height="271.29" rx="3.31"></rect>
                <path d="M837.83,403.36 L701,403.36 C700.440718,403.320372 699.887437,403.219775 699.35,403.06 L841,332.83 L841,399.83 C841.054514,400.720144 840.749701,401.594957 840.153838,402.258489 C839.557975,402.922021 838.72086,403.318818 837.83,403.36 Z" id="Path" fill="#FFFFFF" opacity="0.1"></path>
                <path d="M837.83,405 L701,405 C698.309328,404.844039 696.244967,402.552287 696.37,399.86 L696.37,135.55 C696.244967,132.857713 698.309328,130.565961 701,130.41 L837.83,130.41 C840.524649,130.560702 842.594892,132.854031 842.47,135.55 L842.47,399.88 C842.583605,402.568336 840.51651,404.849268 837.83,405 Z M701,133.72 C700.040986,133.773813 699.304582,134.590551 699.35,135.55 L699.35,399.88 C699.304582,400.839449 700.040986,401.656187 701,401.71 L837.83,401.71 C838.79299,401.661477 839.5353,400.843147 839.49,399.88 L839.49,135.55 C839.529768,134.588849 838.790466,133.773835 837.83,133.72 L701,133.72 Z" id="Shape" fill="#FAC41C"></path>
                <rect id="Rectangle" fill="#000000" x="713.62" y="155.79" width="111.61" height="211.41"></rect>
                <polygon id="Path" fill="#FFFFFF" opacity="0.1" points="713.62 364.71 713.62 316.64 825.22 258.13 825.22 303.95"></polygon>
                <polygon id="Path" fill="#FFFFFF" opacity="0.1" points="715.11 288.29 714.44 260.07 826.04 201.56 826.04 230.83"></polygon>
                <path d="M826.71,368.85 L712.12,368.85 L712.12,154.13 L826.71,154.13 L826.71,368.85 Z M715.11,365.54 L823.73,365.54 L823.73,157.44 L715.11,157.44 L715.11,365.54 Z" id="Shape" fill="#FAC41C"></path>
                <path d="M755.8,232.79 L753.33,232.79 L753.33,237.37 L751.49,237.37 L751.49,225.91 L756.16,225.91 C757.217591,225.849535 758.261495,226.172648 759.1,226.82 C759.831159,227.451465 760.229743,228.385185 760.18,229.35 C760.202679,230.088867 759.977376,230.814063 759.54,231.41 C759.082596,231.984704 758.450907,232.395301 757.74,232.58 L760.85,237.37 L758.72,237.37 L755.8,232.79 Z M753.33,231.24 L756,231.24 C756.596473,231.286899 757.190618,231.124216 757.68,230.78 C758.42553,229.983968 758.42553,228.746032 757.68,227.95 C757.190618,227.605784 756.596473,227.443101 756,227.49 L753.32,227.49 L753.33,231.24 Z" id="Shape" fill="#FAC41C"></path>
                <path d="M770.36,233.72 L764,233.72 C764.049029,234.382212 764.336868,235.004087 764.81,235.47 C765.28184,235.882105 765.894111,236.096937 766.52,236.07 C767.007397,236.086087 767.491369,235.983114 767.93,235.77 C768.290438,235.583937 768.568552,235.270168 768.71,234.89 L770.25,235.53 C769.541864,236.905809 768.057817,237.701546 766.52,237.53 C765.329005,237.598241 764.164163,237.162786 763.31,236.33 C762.501512,235.419656 762.087835,234.22539 762.16,233.01 C762.088157,231.798579 762.485673,230.606031 763.27,229.68 C764.094992,228.853735 765.234454,228.420521 766.4,228.49 C767.523766,228.417488 768.622045,228.845817 769.4,229.66 C770.134964,230.516845 770.514226,231.62243 770.46,232.75 C770.449063,233.075252 770.41565,233.399358 770.36,233.72 Z M764.77,230.58 C764.323692,231.048073 764.051837,231.655332 764,232.3 L768.69,232.3 C768.641993,231.666124 768.381225,231.067063 767.95,230.6 C767.541549,230.188587 766.979291,229.967312 766.4,229.99 C765.799842,229.962188 765.213311,230.174491 764.77,230.58 Z" id="Shape" fill="#FAC41C"></path>
                <path d="M779.78,229.35 C780.418811,229.974887 780.751438,230.848491 780.69,231.74 L780.69,237.37 L778.84,237.37 L778.84,232.37 C778.84,230.84 778.21,230.07 776.98,230.07 C776.355445,230.057279 775.752582,230.299146 775.31,230.74 C774.800242,231.299381 774.546586,232.045852 774.61,232.8 L774.61,237.4 L772.75,237.4 L772.75,228.72 L774.4,228.72 L774.49,230.16 C774.757153,229.641144 775.17563,229.215692 775.69,228.94 C776.229739,228.66964 776.826381,228.532481 777.43,228.54 C778.288519,228.496561 779.130577,228.786802 779.78,229.35 L779.78,229.35 Z" id="Path" fill="#FAC41C"></path>
                <path d="M789,236.8 C788.702316,237.041774 788.363597,237.228069 788,237.35 C787.583441,237.485133 787.147922,237.552655 786.71,237.55 C786.018912,237.585481 785.337916,237.37267 784.79,236.95 C784.273174,236.470688 784.001111,235.783177 784.05,235.08 L784.05,230.15 L782.4,230.15 L782.4,228.69 L784.05,228.69 L784.05,226.69 L785.91,226.17 L785.91,228.73 L788.91,228.73 L788.91,230.19 L785.91,230.19 L785.91,234.81 C785.888036,235.153943 786.01138,235.491324 786.25,235.74 C786.512585,235.950917 786.843663,236.057716 787.18,236.04 C787.705307,236.04576 788.211788,235.844604 788.59,235.48 L789,236.8 Z" id="Path" fill="#FAC41C"></path>
                <path d="M737.46,254.3 L735,254.3 L735,258.89 L733.15,258.89 L733.15,247.42 L737.83,247.42 C738.884661,247.358334 739.925839,247.681704 740.76,248.33 C741.491159,248.961465 741.889743,249.895185 741.84,250.86 C741.866344,251.597806 741.64452,252.323137 741.21,252.92 C740.748761,253.490467 740.118592,253.900077 739.41,254.09 L742.52,258.89 L740.38,258.89 L737.46,254.3 Z M735,252.75 L737.67,252.75 C738.26958,252.796736 738.866821,252.634173 739.36,252.29 C739.751376,251.930248 739.954411,251.40974 739.91,250.88 C739.954518,250.347312 739.75172,249.823723 739.36,249.46 C738.866821,249.115827 738.26958,248.953264 737.67,249 L735,249 L735,252.75 Z" id="Shape" fill="#FAC41C"></path>
                <path d="M752,255.24 L745.64,255.24 C745.699283,255.898635 745.989768,256.515031 746.46,256.98 C746.929296,257.389681 747.537517,257.604347 748.16,257.58 C748.650753,257.597728 749.138354,257.494713 749.58,257.28 C749.937272,257.092757 750.21184,256.778965 750.35,256.4 L751.9,257.04 C751.18626,258.415324 749.700139,259.210041 748.16,259.04 C746.97184,259.109146 745.809723,258.673353 744.96,257.84 C744.146926,256.931799 743.729445,255.736939 743.8,254.52 C743.725535,253.311272 744.123526,252.120884 744.91,251.2 C745.73355,250.371512 746.874055,249.937902 748.04,250.01 C749.162198,249.934915 750.260233,250.359489 751.04,251.17 C751.775864,252.02633 752.155252,253.132284 752.1,254.26 C752.094231,254.588894 752.06078,254.916719 752,255.24 L752,255.24 Z M746.42,252.09 C745.972071,252.55802 745.696958,253.16468 745.64,253.81 L750.33,253.81 C750.279703,253.176694 750.019248,252.578351 749.59,252.11 C749.180184,251.700667 748.618873,251.479764 748.04,251.5 C747.450084,251.480183 746.875824,251.691942 746.44,252.09 L746.42,252.09 Z" id="Shape" fill="#FAC41C"></path>
                <path d="M762,252.46 L760.26,253.15 C760.088391,252.183831 759.241174,251.484878 758.26,251.5 C757.564015,251.464951 756.892579,251.761718 756.45,252.3 C755.984938,252.958189 755.759095,253.755696 755.81,254.56 C755.756317,255.358377 755.982636,256.150494 756.45,256.8 C757.301055,257.689312 758.66866,257.837047 759.69,257.15 C760.061193,256.825596 760.311475,256.384959 760.4,255.9 L762.1,256.47 C761.874053,257.238653 761.394744,257.908276 760.74,258.37 C760.020302,258.852681 759.165893,259.094296 758.3,259.06 C757.109005,259.128241 755.944163,258.692786 755.09,257.86 C754.280542,256.950224 753.866722,255.755543 753.94,254.54 C753.869493,253.326599 754.278954,252.134133 755.08,251.22 C755.927968,250.397701 757.080517,249.966401 758.26,250.03 C759.915042,249.891943 761.453672,250.891641 762,252.46 L762,252.46 Z" id="Path" fill="#FAC41C"></path>
                <path d="M772,255.24 L765.64,255.24 C765.691389,255.898688 765.97905,256.516626 766.45,256.98 C766.92184,257.392105 767.534111,257.606937 768.16,257.58 C768.647397,257.596087 769.131369,257.493114 769.57,257.28 C769.932275,257.096308 770.211126,256.781707 770.35,256.4 L771.89,257.04 C771.181864,258.415809 769.697817,259.211546 768.16,259.04 C766.969005,259.108241 765.804163,258.672786 764.95,257.84 C764.140542,256.930224 763.726722,255.735543 763.8,254.52 C763.725535,253.311272 764.123526,252.120884 764.91,251.2 C765.717991,250.371955 766.844928,249.93431 768,250 C769.122198,249.924915 770.220233,250.349489 771,251.16 C771.731408,252.018875 772.110173,253.12301 772.06,254.25 C772.062717,254.580985 772.042669,254.911765 772,255.24 L772,255.24 Z M766.41,252.09 C765.965052,252.558985 765.693423,253.165739 765.64,253.81 L770.33,253.81 C770.279703,253.176694 770.019248,252.578351 769.59,252.11 C769.178853,251.702703 768.618459,251.482161 768.04,251.5 C767.422857,251.458481 766.815666,251.671721 766.36,252.09 L766.41,252.09 Z" id="Shape" fill="#FAC41C"></path>
                <path d="M774.36,248.44 C774.131751,248.213928 774.01157,247.900728 774.03,247.58 C774.007731,247.261631 774.128741,246.94994 774.36,246.73 C774.617634,246.517146 774.946414,246.409935 775.28,246.43 C775.611004,246.406262 775.938009,246.514066 776.19,246.73 C776.421259,246.94994 776.542269,247.261631 776.52,247.58 C776.53843,247.900728 776.418249,248.213928 776.19,248.44 C775.938009,248.655934 775.611004,248.763738 775.28,248.74 C774.946414,248.760065 774.617634,248.652854 774.36,248.44 L774.36,248.44 Z M776.2,258.89 L774.34,258.89 L774.34,250.2 L776.2,250.2 L776.2,258.89 Z" id="Shape" fill="#FAC41C"></path>
                <polygon id="Path" fill="#FAC41C" points="786.76 250.2 783.31 258.89 781.31 258.89 777.83 250.2 779.88 250.2 782.33 257.37 784.85 250.2"></polygon>
                <path d="M796,255.24 L789.64,255.24 C789.699283,255.898635 789.989768,256.515031 790.46,256.98 C790.929296,257.389681 791.537517,257.604347 792.16,257.58 C792.650753,257.597728 793.138354,257.494713 793.58,257.28 C793.937272,257.092757 794.21184,256.778965 794.35,256.4 L795.89,257.04 C795.181864,258.415809 793.697817,259.211546 792.16,259.04 C790.971648,259.110412 789.809035,258.674432 788.96,257.84 C788.143001,256.93412 787.724928,255.737567 787.8,254.52 C787.725535,253.311272 788.123526,252.120884 788.91,251.2 C789.717991,250.371955 790.844928,249.93431 792,250 C793.122198,249.924915 794.220233,250.349489 795,251.16 C795.735864,252.01633 796.115252,253.122284 796.06,254.25 C796.068013,254.581103 796.047941,254.912289 796,255.24 Z M790.41,252.09 C789.969013,252.561627 789.698032,253.166934 789.64,253.81 L794.33,253.81 C794.279703,253.176694 794.019248,252.578351 793.59,252.11 C793.180184,251.700667 792.618873,251.479764 792.04,251.5 C791.437101,251.473903 790.848097,251.685801 790.4,252.09 L790.41,252.09 Z" id="Shape" fill="#FAC41C"></path>
                <path d="M806.43,246.29 L806.43,258.89 L804.8,258.89 L804.69,257.34 C804.435087,257.85875 804.035746,258.292816 803.54,258.59 C803.004291,258.906082 802.391946,259.068682 801.77,259.06 C800.69849,259.109749 799.661941,258.672339 798.95,257.87 C798.22385,256.925698 797.868172,255.748404 797.95,254.56 C797.874236,253.366113 798.229036,252.184629 798.95,251.23 C799.658285,250.421532 800.696329,249.979811 801.77,250.03 C802.360561,250.018098 802.943716,250.163024 803.46,250.45 C803.934581,250.720947 804.320212,251.12395 804.57,251.61 L804.57,246.29 L806.43,246.29 Z M803.93,256.78 C804.387971,256.167754 804.614669,255.413274 804.57,254.65 L804.57,254.44 C804.614669,253.676726 804.387971,252.922246 803.93,252.31 C803.500381,251.797935 802.857897,251.513617 802.19,251.54 C801.51056,251.505689 800.85593,251.799529 800.43,252.33 C799.964787,252.969156 799.738325,253.751157 799.79,254.54 C799.741979,255.334656 799.967873,256.121754 800.43,256.77 C800.854891,257.302885 801.50913,257.600267 802.19,257.57 C802.861587,257.593055 803.505328,257.300782 803.93,256.78 Z" id="Shape" fill="#FAC41C"></path>
                <polygon id="Path" fill="#FAC41C" points="766.85 299.3 760.55 293 762.89 290.65 766.85 294.62 775.95 285.52 778.29 287.86"></polygon>
                <path d="M769.42,307.540003 C763.036677,307.544045 757.279648,303.701937 754.834053,297.805677 C752.388458,291.909416 753.736058,285.120517 758.248319,280.605395 C762.76058,276.090273 769.548623,274.73837 775.446433,277.180227 C781.344242,279.622084 785.19,285.376676 785.19,291.76 C785.178995,300.466588 778.12658,307.523475 769.42,307.540003 L769.42,307.540003 Z M769.42,279.299996 C764.374538,279.295956 759.823823,282.33269 757.89114,286.993316 C755.958456,291.653943 757.024701,297.019936 760.592382,300.587618 C764.160064,304.155299 769.526057,305.221544 774.186684,303.28886 C778.84731,301.356177 781.884044,296.805462 781.880004,291.76 C781.868988,284.883098 776.296902,279.311012 769.42,279.299996 Z" id="Shape" fill="#FAC41C"></path>
                <rect id="Rectangle" fill="#1E1D1B" x="751.08" y="141.46" width="40.25" height="4.68"></rect>
                <rect id="Rectangle" fill="#FAC41C" x="752.27" y="141.8" width="37.86" height="4"></rect>
                <path d="M767,394.920005 C762.764373,394.924045 758.943563,392.375678 757.319854,388.463629 C755.696146,384.551581 756.589445,380.046608 759.583056,377.050135 C762.576667,374.053662 767.080784,373.156059 770.994382,374.776028 C774.907981,376.395998 777.46,380.214371 777.46,384.45 C777.454499,390.226239 772.776231,394.908979 767,394.920005 L767,394.920005 Z M767,377.299993 C764.102234,377.295956 761.487739,379.03895 760.376943,381.715364 C759.266147,384.391779 759.878091,387.473846 761.927122,389.522878 C763.976154,391.571909 767.058221,392.183853 769.734636,391.073057 C772.41105,389.962261 774.154044,387.347766 774.150007,384.45 C774.150007,380.501164 770.948836,377.299993 767,377.299993 L767,377.299993 Z" id="Shape" fill="#000000"></path>
                <path d="M770.25,394.920005 C766.014373,394.924045 762.193563,392.375678 760.569854,388.463629 C758.946146,384.551581 759.839445,380.046608 762.833056,377.050135 C765.826667,374.053662 770.330784,373.156059 774.244382,374.776028 C778.157981,376.395998 780.71,380.214371 780.71,384.45 C780.699015,390.223964 776.023951,394.903498 770.25,394.920005 Z M770.25,377.299993 C767.352234,377.295956 764.737739,379.03895 763.626943,381.715364 C762.516147,384.391779 763.128091,387.473846 765.177122,389.522878 C767.226154,391.571909 770.308221,392.183853 772.984636,391.073057 C775.66105,389.962261 777.404044,387.347766 777.400007,384.45 C777.394492,380.503448 774.196552,377.305508 770.25,377.299993 L770.25,377.299993 Z" id="Shape" fill="#FAC41C"></path>
                <path d="M367.21,346 C366.571137,346.395496 365.831182,346.596986 365.08,346.58 C364.382755,346.58728 363.694915,346.41876 363.08,346.09 C362.510366,345.760726 362.051041,345.270084 361.76,344.68 C361.147206,343.291262 361.147206,341.708738 361.76,340.32 C362.051041,339.729916 362.510366,339.239274 363.08,338.91 C363.691444,338.572265 364.381684,338.403157 365.08,338.42 C365.810168,338.39595 366.532979,338.57233 367.17,338.93 C367.742386,339.27971 368.165993,339.827906 368.36,340.47 L366.86,341.11 C366.727068,340.285507 365.982362,339.701937 365.15,339.77 C364.540741,339.743759 363.95492,340.007007 363.57,340.48 C362.829754,341.71059 362.829754,343.24941 363.57,344.48 C363.937016,344.958988 364.517579,345.224924 365.12,345.19 C365.997238,345.256521 366.784704,344.654088 366.95,343.79 L368.47,344.24 C368.283651,344.963022 367.834383,345.590571 367.21,346 Z" id="Path" fill="#FAC41C"></path>
                <path d="M375.58,345.38 L375.46,346.38 C375.216809,346.496701 374.949698,346.554917 374.68,346.55 C374.05838,346.643121 373.46541,346.256401 373.3,345.65 C373.112567,345.957669 372.827357,346.193583 372.49,346.32 C372.072181,346.480176 371.627393,346.558268 371.18,346.55 C370.690545,346.581549 370.205585,346.439955 369.81,346.15 C369.472729,345.870995 369.290362,345.446711 369.32,345.01 C369.32,344.01 370.1,343.4 371.66,343.12 L373.1,342.84 L373.1,342.55 C373.114765,342.270824 373.017587,341.997287 372.83,341.79 C372.629896,341.596302 372.358083,341.494825 372.08,341.51 C371.762419,341.495181 371.448034,341.579017 371.18,341.75 C370.929275,341.941901 370.758323,342.219698 370.7,342.53 L369.39,341.98 C369.50613,341.473907 369.814534,341.032817 370.25,340.75 C370.782155,340.437155 371.39323,340.284387 372.01,340.31 C372.720804,340.265199 373.425812,340.462601 374.01,340.87 C374.49796,341.27479 374.765093,341.886969 374.73,342.52 L374.73,345 C374.719348,345.123526 374.759011,345.246122 374.84,345.34 C374.928224,345.423825 375.049126,345.464126 375.17,345.45 C375.309751,345.451341 375.448611,345.427633 375.58,345.38 L375.58,345.38 Z M372.66,345.17 C372.928442,345.039986 373.099236,344.768268 373.1,344.47 L373.1,343.85 L371.82,344.14 C371.600916,344.178017 371.392751,344.26333 371.21,344.39 C371.077419,344.501067 371.003599,344.667163 371.01,344.84 C370.997168,345.006859 371.063898,345.169977 371.19,345.28 C371.337191,345.388176 371.51768,345.441261 371.7,345.43 C372.038204,345.436311 372.371205,345.346123 372.66,345.17 L372.66,345.17 Z" id="Shape" fill="#FAC41C"></path>
                <path d="M382,341.13 C382.907389,342.525465 382.907389,344.324535 382,345.72 C381.53865,346.276816 380.842298,346.584248 380.12,346.55 C379.722332,346.560659 379.330015,346.456504 378.99,346.25 C378.666955,346.055082 378.403968,345.774793 378.23,345.44 L378.23,349 L376.59,349 L376.59,340.48 L378,340.48 L378.06,341.67 C378.221953,341.267785 378.496191,340.920648 378.85,340.67 C379.21501,340.431277 379.64399,340.309209 380.08,340.32 C380.812619,340.267953 381.52604,340.568928 382,341.13 Z M380.67,344.81 C381.163027,343.956053 381.163027,342.903947 380.67,342.05 C380.429796,341.742765 380.05996,341.565244 379.67,341.57 C379.292244,341.550936 378.925648,341.70124 378.67,341.98 C378.399238,342.313763 378.251007,342.730222 378.25,343.16 L378.25,343.69 C378.251007,344.119778 378.399238,344.536237 378.67,344.87 C378.935777,345.141798 379.303181,345.289953 379.683157,345.278554 C380.063133,345.267154 380.420994,345.097241 380.67,344.81 L380.67,344.81 Z" id="Shape" fill="#FAC41C"></path>
                <path d="M383.93,338.69 C383.93,338.1 384.27,337.8 384.93,337.8 C385.59,337.8 385.93,338.1 385.93,338.69 C385.93,339.28 385.59,339.56 384.93,339.56 C384.27,339.56 383.93,339.27 383.93,338.69 Z M385.77,346.43 L384.13,346.43 L384.13,340.43 L385.77,340.43 L385.77,346.43 Z" id="Shape" fill="#FAC41C"></path>
                <path d="M391.63,346.06 C391.409248,346.221199 391.162273,346.342995 390.9,346.42 C390.600573,346.504499 390.291117,346.548227 389.98,346.55 C388.65,346.55 387.98,345.94 387.98,344.74 L387.98,341.65 L386.89,341.65 L386.89,340.43 L388,340.43 L388,339.05 L389.64,338.59 L389.64,340.43 L391.64,340.43 L391.64,341.65 L389.64,341.65 L389.64,344.47 C389.610078,344.697998 389.687848,344.926949 389.850449,345.089551 C390.013051,345.252152 390.242002,345.329922 390.47,345.3 C390.808615,345.307005 391.137321,345.185526 391.39,344.96 L391.63,346.06 Z" id="Path" fill="#FAC41C"></path>
                <path d="M398.61,345.38 L398.49,346.38 C398.246809,346.496701 397.979698,346.554917 397.71,346.55 C396.943333,346.55 396.483333,346.25 396.33,345.65 C396.136038,345.955888 395.848411,346.1909 395.51,346.32 C395.095927,346.481119 394.654219,346.559267 394.21,346.55 C393.720545,346.581549 393.235585,346.439955 392.84,346.15 C392.502729,345.870995 392.320362,345.446711 392.35,345.01 C392.35,344.01 393.13,343.4 394.69,343.12 L396.13,342.84 L396.13,342.55 C396.144765,342.270824 396.047587,341.997287 395.86,341.79 C395.659896,341.596302 395.388083,341.494825 395.11,341.51 C394.792419,341.495181 394.478034,341.579017 394.21,341.75 C393.953172,341.936317 393.780588,342.216766 393.73,342.53 L392.42,341.98 C392.53613,341.473907 392.844534,341.032817 393.28,340.75 C394.466602,340.123289 395.895775,340.168901 397.04,340.87 C397.52796,341.27479 397.795093,341.886969 397.76,342.52 L397.76,345 C397.749348,345.123526 397.789011,345.246122 397.87,345.34 C397.958224,345.423825 398.079126,345.464126 398.2,345.45 C398.339751,345.451341 398.478611,345.427633 398.61,345.38 Z M395.69,345.17 C395.958442,345.039986 396.129236,344.768268 396.13,344.47 L396.13,343.85 L394.84,344.14 C394.624491,344.179696 394.419935,344.264927 394.24,344.39 C394.11964,344.506766 394.051712,344.667307 394.051712,344.835 C394.051712,345.002693 394.11964,345.163234 394.24,345.28 C394.383729,345.387466 394.560851,345.440602 394.74,345.43 C395.074612,345.432815 395.403455,345.342816 395.69,345.17 L395.69,345.17 Z" id="Shape" fill="#FAC41C"></path>
                <path d="M401.23,344.52 C401.211323,344.727386 401.252996,344.93575 401.35,345.12 C401.46905,345.244363 401.638687,345.307054 401.81,345.29 C401.929718,345.30164 402.050282,345.30164 402.17,345.29 L402.52,345.19 L402.38,346.33 C402.222127,346.420005 402.049393,346.48097 401.87,346.51 C401.670245,346.557914 401.465416,346.581419 401.26,346.58 C400.791973,346.621986 400.327753,346.466038 399.98,346.15 C399.685088,345.760711 399.54281,345.276966 399.58,344.79 L399.58,337.79 L401.23,337.79 L401.23,344.52 Z" id="Path" fill="#FAC41C"></path>
                <path d="M411.16,344.5 L408.16,344.5 L407.52,346.43 L405.82,346.43 L408.72,338.51 L410.72,338.51 L413.61,346.43 L411.89,346.43 L411.16,344.5 Z M410.75,343.27 L410,341 L409.64,339.8 L409.64,339.8 L409.3,340.98 L408.53,343.23 L410.75,343.27 Z" id="Shape" fill="#FAC41C"></path>
                <path d="M420,341.13 C420.907389,342.525465 420.907389,344.324535 420,345.72 C419.532665,346.274608 418.834582,346.581173 418.11,346.55 C417.323293,346.567412 416.594746,346.13726 416.23,345.44 L416.23,349 L414.59,349 L414.59,340.48 L416,340.48 L416.06,341.67 C416.217737,341.268201 416.488697,340.920817 416.84,340.67 C417.206047,340.433558 417.63431,340.311695 418.07,340.32 C418.805229,340.269587 419.520966,340.569974 420,341.13 L420,341.13 Z M418.67,344.81 C419.163027,343.956053 419.163027,342.903947 418.67,342.05 C418.420793,341.764104 418.06422,341.594307 417.685189,341.581041 C417.306157,341.567775 416.938586,341.712227 416.67,341.98 C416.399238,342.313763 416.251007,342.730222 416.25,343.16 L416.25,343.69 C416.251007,344.119778 416.399238,344.536237 416.67,344.87 C416.921184,345.156089 417.289866,345.310935 417.67,345.29 C418.045554,345.281108 418.397554,345.105108 418.63,344.81 L418.67,344.81 Z" id="Shape" fill="#FAC41C"></path>
                <path d="M427.51,341.13 C428.417389,342.525465 428.417389,344.324535 427.51,345.72 C427.042665,346.274608 426.344582,346.581173 425.62,346.55 C425.222529,346.558982 424.830675,346.45495 424.49,346.25 C424.168962,346.055707 423.909061,345.775014 423.74,345.44 L423.74,349 L422.09,349 L422.09,340.48 L423.55,340.48 L423.61,341.67 C423.767737,341.268201 424.038697,340.920817 424.39,340.67 C424.756047,340.433558 425.18431,340.311695 425.62,340.32 C426.34151,340.28237 427.039656,340.581576 427.51,341.13 L427.51,341.13 Z M426.17,344.81 C426.675747,343.959506 426.675747,342.900494 426.17,342.05 C425.932879,341.738955 425.561004,341.560455 425.17,341.57 C424.792001,341.549508 424.424819,341.700053 424.17,341.98 C423.899238,342.313763 423.751007,342.730222 423.75,343.16 L423.75,343.69 C423.751007,344.119778 423.899238,344.536237 424.17,344.87 C424.434267,345.144659 424.802324,345.294808 425.183301,345.283379 C425.564279,345.27195 425.922673,345.100006 426.17,344.81 L426.17,344.81 Z" id="Shape" fill="#FAC41C"></path>
                <path d="M433.69,340.44 L433.48,341.88 C433.253044,341.747792 432.992238,341.685199 432.73,341.7 C432.351829,341.70026 431.990335,341.855703 431.73,342.13 C431.433899,342.452987 431.282233,342.882707 431.31,343.32 L431.31,346.43 L429.66,346.43 L429.66,340.43 L431.09,340.43 L431.2,341.6 C431.450885,340.794393 432.21756,340.262667 433.06,340.31 C433.277541,340.300298 433.494069,340.344979 433.69,340.44 L433.69,340.44 Z" id="Path" fill="#FAC41C"></path>
                <path d="M440.14,344.05 L435.89,344.05 C435.958875,344.812141 436.626937,345.377766 437.39,345.32 C437.688339,345.332843 437.98484,345.267337 438.25,345.13 C438.466047,345.00983 438.629923,344.813891 438.71,344.58 L440.06,345.07 C439.872743,345.546831 439.51688,345.93828 439.06,346.17 C438.534712,346.438737 437.949718,346.569501 437.36,346.55 C436.51377,346.600484 435.683428,346.304449 435.06,345.73 C433.979837,344.386898 433.979837,342.473102 435.06,341.13 C435.654182,340.554017 436.464222,340.256155 437.29,340.31 C438.084631,340.260282 438.862851,340.551206 439.43,341.11 C439.965117,341.748521 440.233712,342.568631 440.18,343.4 C440.182348,343.617347 440.168979,343.83458 440.14,344.05 L440.14,344.05 Z M436.33,341.87 C436.079077,342.148047 435.921689,342.497797 435.88,342.87 L438.68,342.87 C438.634848,342.496811 438.473991,342.147123 438.22,341.87 C437.969174,341.633828 437.634299,341.5078 437.29,341.52 C436.936162,341.504184 436.59063,341.630159 436.33,341.87 Z" id="Shape" fill="#FAC41C"></path>
                <path d="M446.17,340.79 C446.604569,341.104144 446.921417,341.554772 447.07,342.07 L445.53,342.62 C445.39,341.9 445,341.53 444.37,341.53 C443.948038,341.503286 443.540106,341.686668 443.28,342.02 C443.000729,342.438714 442.867179,342.937769 442.9,343.44 C442.864533,343.94081 443.00222,344.438599 443.29,344.85 C443.547021,345.168236 443.941593,345.343188 444.35,345.32 C444.656854,345.347641 444.961967,345.250998 445.196949,345.051733 C445.431932,344.852468 445.577131,344.567246 445.6,344.26 L447.09,344.74 C446.968519,345.275676 446.651048,345.746532 446.2,346.06 C445.246966,346.807228 443.942915,346.922097 442.873929,346.352981 C441.804943,345.783865 441.172171,344.637853 441.26,343.43 C441.207979,342.585359 441.500182,341.755646 442.07,341.13 C442.67366,340.556193 443.488691,340.25916 444.32,340.31 C444.971763,340.27185 445.619003,340.439782 446.17,340.79 Z" id="Path" fill="#FAC41C"></path>
                <path d="M448.21,338.69 C448.21,338.1 448.55,337.8 449.21,337.8 C449.87,337.8 450.21,338.1 450.21,338.69 C450.21,339.28 449.87,339.56 449.21,339.56 C448.55,339.56 448.21,339.27 448.21,338.69 Z M450.04,346.43 L448.4,346.43 L448.4,340.43 L450,340.43 L450.04,346.43 Z" id="Shape" fill="#FAC41C"></path>
                <path d="M457.67,345.38 L457.55,346.38 C457.306809,346.496701 457.039698,346.554917 456.77,346.55 C456.14838,346.643121 455.55541,346.256401 455.39,345.65 C455.202567,345.957669 454.917357,346.193583 454.58,346.32 C454.162181,346.480176 453.717393,346.558268 453.27,346.55 C452.780734,346.579847 452.296341,346.438418 451.9,346.15 C451.562729,345.870995 451.380362,345.446711 451.41,345.01 C451.41,344.01 452.19,343.4 453.75,343.12 L455.19,342.84 L455.19,342.55 C455.204765,342.270824 455.107587,341.997287 454.92,341.79 C454.719896,341.596302 454.448083,341.494825 454.17,341.51 C453.852419,341.495181 453.538034,341.579017 453.27,341.75 C453.019275,341.941901 452.848323,342.219698 452.79,342.53 L451.48,341.98 C451.598585,341.472271 451.910758,341.030923 452.35,340.75 C453.533037,340.12304 454.959468,340.168686 456.1,340.87 C456.58796,341.27479 456.855093,341.886969 456.82,342.52 L456.82,345 C456.809348,345.123526 456.849011,345.246122 456.93,345.34 C457.021305,345.425457 457.145942,345.46578 457.27,345.45 C457.40643,345.450579 457.541875,345.426876 457.67,345.38 Z M454.75,345.17 C455.018442,345.039986 455.189236,344.768268 455.19,344.47 L455.19,343.85 L453.91,344.14 C453.690916,344.178017 453.482751,344.26333 453.3,344.39 C453.167419,344.501067 453.093599,344.667163 453.1,344.84 C453.087168,345.006859 453.153898,345.169977 453.28,345.28 C453.427191,345.388176 453.60768,345.441261 453.79,345.43 C454.128204,345.436311 454.461205,345.346123 454.75,345.17 L454.75,345.17 Z" id="Shape" fill="#FAC41C"></path>
                <path d="M462.55,346.06 C462.329248,346.221199 462.082273,346.342995 461.82,346.42 C461.520573,346.504499 461.211117,346.548227 460.9,346.55 C459.57,346.55 458.9,345.94 458.9,344.74 L458.9,341.65 L457.81,341.65 L457.81,340.43 L458.9,340.43 L458.9,339.05 L460.54,338.59 L460.54,340.43 L462.54,340.43 L462.54,341.65 L460.54,341.65 L460.54,344.47 C460.510078,344.697998 460.587848,344.926949 460.750449,345.089551 C460.913051,345.252152 461.142002,345.329922 461.37,345.3 C461.708615,345.307005 462.037321,345.185526 462.29,344.96 L462.55,346.06 Z" id="Path" fill="#FAC41C"></path>
                <path d="M463.39,338.69 C463.39,338.1 463.73,337.8 464.39,337.8 C465.05,337.8 465.39,338.1 465.39,338.69 C465.39,339.28 465.05,339.56 464.39,339.56 C463.73,339.56 463.39,339.27 463.39,338.69 Z M465.22,346.43 L463.58,346.43 L463.58,340.43 L465.22,340.43 L465.22,346.43 Z" id="Shape" fill="#FAC41C"></path>
                <path d="M472,341.14 C473.080801,342.475379 473.080801,344.384621 472,345.72 C470.696834,346.827444 468.783166,346.827444 467.48,345.72 C466.399199,344.384621 466.399199,342.475379 467.48,341.14 C468.783166,340.032556 470.696834,340.032556 472,341.14 L472,341.14 Z M468.68,342.01 C468.186693,342.892401 468.186693,343.967599 468.68,344.85 C468.951087,345.149374 469.336127,345.320156 469.74,345.320156 C470.143873,345.320156 470.528913,345.149374 470.8,344.85 C471.293307,343.967599 471.293307,342.892401 470.8,342.01 C470.53228,341.704787 470.145991,341.529785 469.74,341.529785 C469.334009,341.529785 468.94772,341.704787 468.68,342.01 L468.68,342.01 Z" id="Shape" fill="#FAC41C"></path>
                <path d="M479.35,340.87 C479.769836,341.301015 479.987791,341.889493 479.95,342.49 L479.95,346.43 L478.3,346.43 L478.3,343 C478.3,342.09 477.95,341.63 477.23,341.63 C476.853196,341.616386 476.488796,341.76579 476.23,342.04 C475.932116,342.385323 475.784513,342.835331 475.82,343.29 L475.82,346.46 L474.18,346.46 L474.18,340.46 L475.66,340.46 L475.66,341.53 C475.840202,341.156159 476.129625,340.845814 476.49,340.64 C476.866463,340.43352 477.290746,340.330036 477.72,340.34 C478.312774,340.28788 478.901236,340.479221 479.35,340.87 Z" id="Path" fill="#FAC41C"></path>
                <path d="M660.45,406.79 L5.93,406.79 C3.16857625,406.79 0.93,404.551424 0.93,401.79 L0.93,5.18 C0.93,2.41857625 3.16857625,0.18 5.93,0.18 L660.45,0.18 C663.211424,0.18 665.45,2.41857625 665.45,5.18 L665.45,401.79 C665.45,404.551424 663.211424,406.79 660.45,406.79 L660.45,406.79 Z M5.93,4.18 C5.37771525,4.18 4.93,4.62771525 4.93,5.18 L4.93,401.79 C4.93,402.342285 5.37771525,402.79 5.93,402.79 L660.45,402.79 C661.002285,402.79 661.45,402.342285 661.45,401.79 L661.45,5.18 C661.45,4.62771525 661.002285,4.18 660.45,4.18 L5.93,4.18 Z" id="Shape" fill="#FAC41C"></path>
                <polygon id="Path" fill="#FFFFFF" opacity="0.1" points="178.4 381 27.43 381 637.41 121.26 637.38 182.75"></polygon>
                <polygon id="Path" fill="#FFFFFF" opacity="0.1" points="325.02 358.24 637.41 232.88 637.38 271.37 409.37 358.58"></polygon>
            </g>
        </g>
    </g>
</svg>