<svg id="Oulined" xmlns="http://www.w3.org/2000/svg" viewBox="0 0 206.8 206.8"><defs><style>.cls-1{fill:#18181b;}.cls-2{fill:#fac41c;}</style></defs><title>Exit Options_3</title><circle class="cls-1" cx="103.4" cy="103.4" r="95.12"/><path class="cls-1" d="M77.23,76.11l5.21,1.71A7.42,7.42,0,0,0,87,77.47l5.28-2.15,30.92,10.79s.44,6-4.44,6.83-16.29-4.57-16.29-4.57-4.13,19.83-23.18,10c0,0,6.68,3.94,15.69.54l1.15,2.63L77.83,112.18s-3.15.45-3.17,2.51h0l-9.53-4Z"/><rect class="cls-1" x="46.13" y="83.81" width="37.64" height="14.85" transform="translate(-42.37 123.27) rotate(-71.17)"/><rect class="cls-1" x="136.42" y="73.9" width="14.85" height="37.61" transform="translate(-26.34 74.78) rotate(-26.79)"/><path class="cls-1" d="M99.17,110.69,80.7,120a4.15,4.15,0,0,1-5.57-1.84h0A5.39,5.39,0,0,1,77.51,111l17.37-8.77-2-5.36,9.26-10.69L117,88.27v-3l11.7-6,17.51,32.59-48.2,27.47a4.16,4.16,0,0,1-5.58-1.83h0a4.16,4.16,0,0,1,1.84-5.58l14.45-7.3"/><path class="cls-1" d="M111,115.61,81.32,129a4.13,4.13,0,0,1-5.57-1.83h0a4.15,4.15,0,0,1,1.83-5.57l26.81-14"/><path class="cls-1" d="M110.4,123.71,87.59,135.24A4.15,4.15,0,0,1,82,133.41h0a4.15,4.15,0,0,1,1.83-5.57l22.47-11.14"/><path class="cls-1" d="M74.84,75.32l7.6,2.5A7.42,7.42,0,0,0,87,77.47l5.28-2.15,30.92,10.79s.44,6-4.44,6.83-16.29-4.57-16.29-4.57-4.13,17.58-23.18,10"/><path class="cls-2" d="M88.11,100.76a24.57,24.57,0,0,1-9-1.94l.37-.93c5.9,2.35,10.92,2.49,14.93.4,5.89-3.07,7.57-10,7.59-10l.14-.6.56.26c.11.06,11.33,5.32,16,4.54,3.81-.64,4-4.77,4-6L92.31,75.85l-5.1,2.09a8,8,0,0,1-4.89.37L74.68,75.8l.31-1,7.6,2.5A7,7,0,0,0,86.83,77l5.45-2.22.18.06,31.23,10.9,0,.33c0,.06.41,6.47-4.85,7.35-4.42.73-13.69-3.29-16.05-4.36-.55,1.81-2.62,7.33-7.94,10.1A14.41,14.41,0,0,1,88.11,100.76Z"/><rect class="cls-2" x="46.13" y="83.81" width="37.64" height="14.85" transform="translate(-42.37 123.27) rotate(-71.17)"/><rect class="cls-2" x="136.42" y="73.9" width="14.85" height="37.61" transform="translate(-26.34 74.78) rotate(-26.79)"/><path class="cls-1" d="M99.17,110.69,80.7,120a4.15,4.15,0,0,1-5.57-1.84h0A5.39,5.39,0,0,1,77.51,111l17.37-8.77"/><path class="cls-2" d="M78.84,121a4.65,4.65,0,0,1-4.16-2.55,5.89,5.89,0,0,1-.33-4.49,5.79,5.79,0,0,1,2.93-3.41l17.37-8.77.45.89L77.74,111.4A4.88,4.88,0,0,0,75.58,118a3.66,3.66,0,0,0,4.9,1.61L99,110.25l.45.89-18.47,9.32A4.59,4.59,0,0,1,78.84,121Z"/><path class="cls-1" d="M103.8,117.76,81.32,129a4.13,4.13,0,0,1-5.57-1.83h0a4.15,4.15,0,0,1,1.83-5.57l21.59-10.9"/><path class="cls-2" d="M79.46,129.93a4.65,4.65,0,0,1-2.1-8.8l21.58-10.9.45.9L77.81,122a3.66,3.66,0,0,0-1.62,4.9,3.67,3.67,0,0,0,4.91,1.62l22.48-11.23.45.9L81.54,129.43A4.55,4.55,0,0,1,79.46,129.93Z"/><path class="cls-1" d="M107.54,125.17l-20,10.07A4.15,4.15,0,0,1,82,133.41h0a4.15,4.15,0,0,1,1.83-5.57l20-10.08"/><path class="cls-2" d="M85.73,136.19a4.65,4.65,0,0,1-2.1-8.8l20-10.07.45.89-20,10.07a3.66,3.66,0,0,0-1.62,4.9,3.67,3.67,0,0,0,4.91,1.62l19.95-10.08.45.89-20,10.08A4.62,4.62,0,0,1,85.73,136.19Z"/><path class="cls-1" d="M146.25,111.85l-48.2,27.47a4.16,4.16,0,0,1-5.58-1.83h0a4.16,4.16,0,0,1,1.84-5.58l14.45-7.3"/><path class="cls-2" d="M96.17,140.27a4.65,4.65,0,0,1-2.09-8.8l14.46-7.3.45.89-14.46,7.3a3.65,3.65,0,0,0,.51,6.72,3.59,3.59,0,0,0,2.78-.21L146,111.41l.5.87L98.29,139.75A4.67,4.67,0,0,1,96.17,140.27Z"/><circle class="cls-2" cx="61.22" cy="103.59" r="2"/><path class="cls-1" d="M61.21,102.59h.09A1,1,0,0,1,62,103a1,1,0,0,1-.76,1.64h-.09a1,1,0,0,1-.91-1.08,1,1,0,0,1,1-.91m0-1a2,2,0,0,0-.16,4h.17a2,2,0,0,0,.16-4Z"/><circle class="cls-2" cx="149.17" cy="104.02" r="2"/><path class="cls-1" d="M149.17,103h.08a1,1,0,0,1,.68.35,1,1,0,0,1-.76,1.64h-.09a1,1,0,0,1,.09-2m0-1a2,2,0,0,0-.17,4h.17a2,2,0,0,0,.17-4Z"/><path class="cls-2" d="M103.43,186.09v-5c.65,0,1.29,0,1.94,0l.12,5C104.81,186.09,104.12,186.09,103.43,186.09Zm-2.06,0L99.31,186l.24-5c.65,0,1.29.06,1.94.07Zm6.18-.08-.25-5,1.94-.12.37,5C108.92,185.92,108.24,186,107.55,186Zm-10.29-.12c-.69-.05-1.38-.11-2.06-.18l.49-5c.64.06,1.29.12,1.93.16Zm14.4-.18-.49-5,1.92-.21.62,5Zm-18.51-.23-2-.27.74-4.95c.64.1,1.27.18,1.92.26Zm22.6-.28-.74-5c.64-.09,1.28-.2,1.91-.31l.87,4.93C117.11,185,116.43,185.08,115.75,185.18Zm-26.68-.32-2-.38,1-4.9,1.91.35Zm30.75-.4-1-4.9c.64-.12,1.27-.26,1.9-.4l1.11,4.87C121.16,184.18,120.49,184.33,119.82,184.46ZM85,184.05l-2-.49,1.24-4.84c.62.16,1.25.31,1.88.45Zm38.8-.5-1.23-4.85c.63-.16,1.25-.32,1.87-.5l1.35,4.82ZM81,183c-.67-.18-1.33-.37-2-.58l1.47-4.78c.61.19,1.23.38,1.85.55Zm46.76-.6-1.47-4.77c.61-.2,1.23-.39,1.84-.6l1.59,4.74C129.11,182,128.46,182.23,127.8,182.43Zm-50.71-.61-2-.68,1.71-4.7,1.84.64Zm54.62-.7-1.71-4.7,1.81-.68,1.83,4.65Zm-58.51-.71-1.92-.78,2-4.61,1.79.73Zm62.35-.8-2-4.6c.6-.25,1.19-.51,1.78-.78l2.06,4.56Zm-66.16-.81-1.88-.88,2.18-4.5,1.76.82Zm69.9-.88-2.17-4.5,1.72-.86,2.29,4.44C140.52,177.32,139.91,177.62,139.29,177.92ZM65.67,177q-.93-.47-1.83-1l2.39-4.39,1.72.91Zm77.27-1-2.39-4.39,1.69-.94,2.5,4.32C144.15,175.38,143.55,175.71,142.94,176ZM62,175q-.9-.51-1.77-1.05l2.61-4.27c.55.34,1.11.67,1.67,1Zm84.47-1-2.61-4.26,1.63-1,2.72,4.2C147.67,173.26,147.09,173.63,146.51,174Zm-88-1.11-1.72-1.15,2.83-4.12c.53.36,1.06.72,1.61,1.07ZM150,171.75l-2.83-4.13c.54-.36,1.06-.74,1.59-1.11l2.92,4.06Zm-94.86-1.21c-.56-.4-1.11-.81-1.66-1.23l3-4c.51.39,1,.78,1.55,1.15Zm98.2-1.2-3-4c.52-.39,1-.79,1.53-1.19l3.12,3.91ZM51.83,168.05c-.54-.43-1.07-.87-1.6-1.31l3.22-3.83c.49.42,1,.83,1.49,1.23Zm104.69-1.27-3.21-3.84c.5-.41,1-.83,1.47-1.26l3.31,3.75ZM48.67,165.39q-.78-.67-1.53-1.38l3.4-3.66c.48.44,1,.87,1.44,1.3Zm110.94-1.34-3.39-3.67c.47-.44.94-.88,1.4-1.33l3.49,3.58C160.61,163.11,160.12,163.58,159.61,164.05Zm-114-1.46c-.49-.48-1-1-1.46-1.46l3.58-3.49c.45.46.91.92,1.37,1.37Zm116.92-1.42L159,157.68c.45-.46.89-.93,1.33-1.4l3.67,3.4C163.52,160.18,163.05,160.68,162.57,161.17Zm-119.8-1.53c-.47-.51-.93-1-1.38-1.53l3.74-3.31,1.31,1.44Zm122.6-1.49-3.74-3.31q.63-.72,1.26-1.47l3.83,3.22Q166.06,157.39,165.37,158.15ZM40,156.55,38.74,155l3.91-3.12c.4.5.81,1,1.22,1.49ZM168,155l-3.91-3.12,1.19-1.53,4,3C168.88,153.92,168.46,154.46,168,155ZM37.47,153.33c-.41-.55-.82-1.1-1.22-1.66l4.06-2.92c.38.53.76,1.05,1.15,1.56Zm133.05-1.62-4.06-2.92,1.12-1.59,4.13,2.82C171.32,150.59,170.92,151.15,170.52,151.71ZM35.07,150q-.59-.86-1.14-1.71l4.2-2.72c.35.54.7,1.08,1.07,1.61Zm137.78-1.68-4.2-2.72c.36-.55.7-1.09,1-1.64l4.26,2.61C173.59,147.14,173.23,147.73,172.85,148.31Zm-140-1.77q-.54-.89-1-1.77l4.33-2.51c.32.56.65,1.11,1,1.66ZM175,144.79l-4.33-2.51c.33-.56.64-1.12.95-1.69L176,143C175.69,143.59,175.35,144.19,175,144.79ZM30.77,143c-.33-.6-.65-1.2-1-1.81l4.45-2.29c.29.58.59,1.14.9,1.71ZM177,141.16l-4.45-2.28c.3-.58.59-1.16.87-1.75l4.5,2.18C177.61,139.93,177.3,140.55,177,141.16Zm-148.1-1.84q-.45-.93-.87-1.86l4.55-2.07c.27.59.54,1.17.82,1.75Zm149.89-1.88-4.55-2.06c.27-.59.53-1.18.78-1.78l4.6,1.94C179.35,136.18,179.07,136.81,178.78,137.44ZM27.19,135.57c-.26-.63-.52-1.26-.77-1.9l4.65-1.83c.24.6.48,1.2.73,1.79Zm153.2-1.94-4.65-1.83c.24-.6.46-1.21.69-1.82l4.69,1.72C180.89,132.34,180.65,133,180.39,133.63Zm-154.7-1.89c-.24-.64-.46-1.29-.68-1.94l4.73-1.6c.21.61.42,1.22.65,1.83Zm156.12-2-4.74-1.59c.21-.62.4-1.23.6-1.85l4.77,1.47C182.24,128.43,182,129.09,181.81,129.74ZM24.37,127.83c-.2-.65-.39-1.31-.58-2l4.81-1.36c.18.63.36,1.24.55,1.86Zm158.66-2-4.82-1.35c.18-.62.34-1.24.5-1.87l4.85,1.23C183.39,124.47,183.21,125.13,183,125.79ZM23.26,123.87c-.17-.67-.33-1.34-.49-2l4.88-1.11c.14.63.29,1.26.45,1.88ZM184,121.79l-4.88-1.1c.15-.63.28-1.26.41-1.9l4.9,1C184.34,120.45,184.19,121.12,184,121.79Zm-161.7-2c-.14-.67-.27-1.34-.38-2l4.92-.87c.11.64.23,1.27.36,1.9Zm162.51-2.08-4.92-.87c.11-.63.21-1.27.31-1.91l4.94.74Q185,116.74,184.85,117.76Zm-163.23-2c-.1-.68-.19-1.36-.28-2l5-.61c.08.64.16,1.28.26,1.91Zm163.84-2.1-5-.62q.12-1,.21-1.92l5,.49C185.62,112.31,185.55,113,185.46,113.68Zm-164.35-2c-.06-.68-.12-1.36-.17-2l5-.37c0,.65.11,1.29.17,1.93Zm164.76-2.12-5-.36c.05-.65.09-1.29.12-1.94l5,.25C186,108.21,185.92,108.89,185.87,109.57Zm-165.06-2c0-.68-.06-1.37-.08-2.06l5-.12c0,.65,0,1.29.07,1.93Zm165.26-2.12-5-.12c0-.65,0-1.29,0-1.94v-.13h5v.13C186.09,104.09,186.09,104.77,186.07,105.46Zm-165.37-2v-.06c0-.67,0-1.33,0-2l5,.12c0,.63,0,1.25,0,1.88Zm160.37-2.12c0-.65,0-1.29-.08-1.94l5-.25c0,.68.06,1.37.08,2.06ZM25.79,99.59l-5-.25c0-.68.07-1.37.13-2l5,.36C25.86,98.3,25.83,98.94,25.79,99.59Zm155.08-2.12c-.05-.65-.1-1.29-.17-1.93l5-.5c.07.68.13,1.37.18,2ZM26.08,95.72l-5-.49c.07-.68.14-1.36.23-2l5,.61Q26.17,94.76,26.08,95.72Zm154.4-2.11c-.08-.64-.16-1.28-.26-1.91l4.94-.75c.11.68.2,1.36.29,2ZM26.55,91.88l-4.94-.74c.1-.68.21-1.36.33-2l4.92.85C26.75,90.6,26.65,91.24,26.55,91.88Zm153.36-2.09c-.12-.64-.24-1.28-.37-1.91l4.9-1c.14.67.27,1.35.39,2ZM27.22,88.06l-4.91-1c.14-.67.28-1.35.43-2l4.88,1.11C27.48,86.8,27.34,87.43,27.22,88.06ZM179.14,86c-.15-.63-.3-1.26-.46-1.88l4.85-1.24q.25,1,.48,2ZM28.07,84.29l-4.85-1.23c.17-.67.35-1.33.53-2l4.82,1.34C28.4,83,28.23,83.66,28.07,84.29Zm150.11-2.05c-.18-.63-.36-1.24-.55-1.86l4.77-1.48c.21.66.4,1.32.59,2ZM29.11,80.55l-4.78-1.46c.21-.66.42-1.32.64-2l4.74,1.6C29.5,79.32,29.3,79.94,29.11,80.55Zm147.92-2c-.2-.61-.42-1.22-.64-1.83l4.7-1.72c.23.65.46,1.3.68,2ZM30.35,76.87l-4.7-1.71c.24-.64.48-1.29.73-1.93L31,75.05C30.8,75.65,30.57,76.26,30.35,76.87Zm145.35-2c-.23-.6-.48-1.19-.73-1.78l4.61-2c.26.62.52,1.26.77,1.9ZM31.77,73.26l-4.61-2c.27-.63.54-1.26.83-1.89l4.55,2C32.28,72.06,32,72.66,31.77,73.26ZM174.2,71.35c-.27-.59-.54-1.17-.82-1.75l4.5-2.18q.45.93.87,1.86ZM33.36,69.72l-4.5-2.17c.3-.62.6-1.24.92-1.85L34.23,68Q33.78,68.83,33.36,69.72Zm139.15-1.85q-.44-.86-.9-1.71L176,63.77c.32.6.65,1.2,1,1.81ZM35.14,66.26l-4.4-2.39q.5-.9,1-1.8l4.33,2.5C35.76,65.13,35.44,65.69,35.14,66.26Zm135.52-1.78c-.32-.56-.65-1.11-1-1.66l4.26-2.61c.36.58.71,1.17,1.06,1.76ZM37.08,62.9l-4.27-2.61c.36-.58.73-1.17,1.1-1.74l4.2,2.71C37.76,61.81,37.41,62.35,37.08,62.9Zm131.56-1.71c-.35-.54-.71-1.08-1.07-1.61l4.12-2.83c.39.57.77,1.14,1.14,1.72ZM39.18,59.65l-4.13-2.82c.39-.57.79-1.14,1.19-1.69l4.06,2.92C39.92,58.59,39.55,59.11,39.18,59.65ZM166.45,58c-.37-.52-.76-1-1.15-1.55l4-3c.42.55.83,1.1,1.23,1.66Zm-125-1.49-4-3c.42-.55.84-1.09,1.27-1.63L42.64,55Zm122.66-1.59c-.4-.5-.81-1-1.22-1.49l3.82-3.22c.44.52.88,1,1.31,1.59ZM43.87,53.47,40,50.26c.44-.53.89-1,1.34-1.57L45.13,52Q44.49,52.74,43.87,53.47ZM161.62,52c-.43-.48-.86-1-1.3-1.43L164,47.11c.47.5.93,1,1.39,1.53ZM46.43,50.56l-3.66-3.4c.46-.5.94-1,1.42-1.49l3.58,3.49C47.31,49.62,46.87,50.09,46.43,50.56ZM159,49.11c-.45-.46-.9-.91-1.37-1.36l3.49-3.59c.5.48,1,1,1.46,1.46ZM49.14,47.79l-3.5-3.58c.49-.48,1-1,1.5-1.42l3.4,3.67C50.06,46.9,49.6,47.34,49.14,47.79Zm107.07-1.38c-.47-.44-1-.87-1.44-1.3l3.31-3.75,1.53,1.38ZM52,45.16l-3.31-3.75c.52-.46,1-.9,1.56-1.34l3.22,3.82ZM153.3,43.85q-.74-.63-1.5-1.23l3.12-3.91c.54.43,1.07.87,1.6,1.31ZM54.94,42.66l-3.12-3.9c.53-.43,1.07-.85,1.62-1.27l3,4C56,41.87,55.44,42.26,54.94,42.66Zm95.33-1.23c-.51-.39-1-.77-1.56-1.15l2.92-4.06c.56.4,1.12.81,1.67,1.23ZM58,40.33,55.1,36.27c.55-.4,1.11-.8,1.68-1.18l2.82,4.12C59.07,39.58,58.54,40,58,40.33Zm89.1-1.16c-.53-.37-1.07-.73-1.61-1.08l2.71-4.2L149.94,35Zm-85.91-1L58.49,34c.58-.38,1.16-.74,1.75-1.1l2.61,4.26C62.3,37.45,61.75,37.79,61.21,38.14Zm82.66-1.08c-.55-.34-1.11-.67-1.67-1l2.5-4.33,1.78,1.06Zm-79.36-.94L62,31.79c.59-.34,1.19-.67,1.79-1l2.4,4.38Zm76-1-1.72-.91,2.28-4.45c.62.32,1.23.64,1.83,1ZM67.9,34.27l-2.29-4.45c.61-.31,1.22-.62,1.84-.92l2.18,4.51C69.05,33.69,68.47,34,67.9,34.27Zm69.16-.92-1.77-.82L137.35,28l1.87.87Zm-65.68-.76L69.31,28l1.88-.82,2,4.6C72.55,32.06,72,32.32,71.38,32.59Zm62.13-.84c-.59-.25-1.19-.49-1.8-.73l1.83-4.65c.64.25,1.28.51,1.91.78Zm-58.58-.67L73.1,26.43,75,25.7l1.71,4.7Zm55-.74c-.61-.22-1.22-.44-1.84-.64L129.65,25c.65.22,1.3.44,1.95.68Zm-51.33-.58L77,25l2-.64,1.48,4.78C79.79,29.35,79.18,29.55,78.57,29.76Zm47.64-.65-1.86-.55,1.35-4.81,2,.57Zm-43.94-.5L80.91,23.8c.66-.19,1.33-.37,2-.54l1.24,4.85Zm40.21-.55-1.88-.45,1.1-4.87q1,.23,2,.48ZM86,27.65l-1.11-4.87c.66-.15,1.33-.3,2-.43l1,4.9C87.28,27.37,86.65,27.51,86,27.65Zm32.69-.44c-.64-.13-1.27-.24-1.91-.35l.86-4.93c.68.12,1.35.24,2,.38Zm-28.9-.32L89,22c.67-.12,1.35-.23,2-.33l.75,4.94C91.09,26.67,90.45,26.77,89.81,26.89Zm25.08-.34c-.64-.1-1.28-.18-1.92-.26l.61-5,2,.28Zm-21.25-.24-.62-5c.68-.09,1.37-.16,2-.23l.5,5Zm17.4-.24-1.93-.16.37-5c.68,0,1.37.11,2,.18ZM97.5,25.92l-.38-5c.69-.05,1.37-.1,2.06-.13l.25,5Zm9.68-.13c-.64,0-1.29-.05-1.94-.06l.12-5c.69,0,1.38,0,2.06.07Zm-5.81-.06-.13-5c.68,0,1.37,0,2.06,0v5C102.66,25.7,102,25.71,101.37,25.73Z"/><path class="cls-2" d="M103.4,189.16a85.76,85.76,0,1,1,85.76-85.76A85.85,85.85,0,0,1,103.4,189.16Zm0-170.52a84.76,84.76,0,1,0,84.76,84.76A84.85,84.85,0,0,0,103.4,18.64Z"/><path class="cls-2" d="M103.44,175.66h0c-.67,0-1.33,0-2,0l0-1c.65,0,1.3,0,2,0Zm6.07-.25-.08-1c.66,0,1.33-.12,2-.19l.11,1C110.86,175.29,110.19,175.35,109.51,175.41Zm-14.16-.19c-.67-.07-1.34-.16-2-.25l.14-1,2,.25Zm22.18-.94-.19-1,2-.41.23,1C118.86,174,118.2,174.15,117.53,174.28Zm-30.17-.4c-.66-.15-1.32-.31-2-.48l.25-1c.64.17,1.29.33,1.94.47Zm38-1.62-.31-.95,1.9-.64.33,1Zm-45.81-.61-1.91-.7L78,170c.62.24,1.25.47,1.88.69Zm53.37-2.28-.41-.91,1.81-.85.43.9C134.17,168.81,133.56,169.09,132.94,169.37Zm-60.86-.83c-.61-.29-1.22-.6-1.82-.91l.46-.88,1.79.89Zm68.05-2.89-.51-.87c.57-.33,1.14-.68,1.7-1l.54.84C141.29,165,140.71,165.3,140.13,165.65Zm-75.15-1c-.57-.36-1.14-.73-1.7-1.11l.56-.83c.55.37,1.11.74,1.67,1.09Zm81.88-3.48-.6-.8c.53-.4,1.05-.81,1.57-1.22l.63.78Zm-88.49-1.22c-.53-.42-1-.85-1.56-1.28l.64-.77c.51.43,1,.86,1.55,1.27Zm94.68-4-.69-.73c.48-.45,1-.92,1.43-1.39l.71.71C154,155,153.54,155.45,153.05,155.91ZM52.33,154.53c-.48-.48-.95-1-1.42-1.45l.73-.69c.46.48.92,1,1.39,1.43ZM158.61,150l-.76-.64c.43-.51.85-1,1.27-1.55l.78.63C159.48,149,159.05,149.51,158.61,150ZM46.92,148.49c-.42-.53-.83-1.06-1.24-1.6l.8-.6c.4.53.81,1.06,1.22,1.58Zm116.57-4.94-.83-.55c.37-.56.73-1.12,1.09-1.68l.85.53C164.24,142.42,163.87,143,163.49,143.55ZM42.23,141.89c-.36-.57-.71-1.14-1.06-1.72l.86-.51c.34.57.69,1.14,1,1.7Zm125.39-5.32-.89-.46c.31-.59.6-1.19.89-1.79l.91.44C168.23,135.37,167.93,136,167.62,136.57ZM38.3,134.81c-.29-.6-.58-1.21-.85-1.83l.91-.41c.27.61.55,1.21.84,1.81Zm132.63-5.64-.93-.36c.24-.62.47-1.25.69-1.88l.94.33C171.41,127.9,171.17,128.54,170.93,129.17ZM35.19,127.34c-.22-.64-.43-1.28-.64-1.92l1-.31c.21.64.42,1.27.64,1.9Zm138.2-5.89-1-.25c.17-.65.33-1.3.47-2l1,.22Q173.65,120.46,173.39,121.45ZM33,119.55c-.15-.65-.3-1.31-.43-2l1-.19q.2,1,.42,2Zm142-6-1-.14c.1-.66.18-1.32.25-2l1,.11C175.14,112.16,175.06,112.83,175,113.5ZM31.59,111.57c-.08-.67-.14-1.34-.2-2l1-.08c0,.66.12,1.33.19,2Zm144-6.15-1,0c0-.67,0-1.33,0-2v-.16h1v.16C175.66,104.08,175.65,104.75,175.64,105.42ZM31.13,103.48v-.08q0-1,0-2l1,0q0,1,0,1.92ZM174.4,97.25c-.05-.66-.12-1.33-.2-2l1-.11c.07.67.14,1.34.2,2ZM32.57,95.5l-1-.11c.08-.67.16-1.34.25-2l1,.14C32.72,94.17,32.64,94.84,32.57,95.5Zm140.71-6.16q-.19-1-.42-2l1-.22c.15.65.29,1.31.43,2ZM33.89,87.62l-1-.22c.15-.66.31-1.32.48-2l1,.25C34.19,86.32,34,87,33.89,87.62Zm137.38-6c-.2-.64-.41-1.27-.64-1.89l1-.34c.22.64.44,1.28.64,1.92ZM36.08,79.94l-.94-.33c.22-.64.46-1.28.7-1.91l.93.36C36.53,78.68,36.3,79.31,36.08,79.94Zm132.33-5.78c-.28-.61-.56-1.21-.85-1.81l.9-.44c.3.61.58,1.22.86,1.84ZM39.14,72.55l-.9-.44c.29-.61.59-1.21.9-1.81l.89.45C39.73,71.35,39.43,72,39.14,72.55Zm125.59-5.48c-.35-.57-.69-1.14-1-1.7l.85-.53c.36.57.71,1.14,1.05,1.72ZM43,65.55,42.16,65c.36-.58.73-1.15,1.1-1.71l.83.56Q43.54,64.7,43,65.55Zm117.26-5.1c-.4-.54-.81-1.06-1.23-1.58l.78-.63c.42.53.84,1.06,1.25,1.6ZM47.63,59l-.78-.63c.42-.53.85-1,1.28-1.56l.77.64C48.47,58,48,58.5,47.63,59ZM155.1,54.35c-.46-.48-.92-1-1.39-1.43l.7-.71c.48.48,1,1,1.42,1.46ZM53,53.06l-.71-.7,1.45-1.42.69.73C53.9,52.13,53.42,52.59,53,53.06Zm96.34-4.19c-.51-.43-1-.85-1.55-1.27l.62-.78c.53.42,1,.85,1.57,1.29ZM58.9,47.73,58.28,47c.52-.42,1-.84,1.59-1.24l.61.79C60,46.9,59.42,47.31,58.9,47.73Zm84-3.66L141.22,43l.53-.85c.57.36,1.14.72,1.7,1.1Zm-77.49-1-.54-.84c.57-.36,1.15-.71,1.73-1.06l.51.86C66.53,42.39,66,42.74,65.41,43.09ZM136,40c-.6-.31-1.19-.61-1.8-.9l.44-.9c.61.29,1.21.6,1.82.91Zm-63.62-.8-.44-.9c.61-.3,1.22-.58,1.83-.86l.41.91C73.59,38.65,73,38.93,72.39,39.22Zm56.31-2.46c-.62-.24-1.25-.47-1.88-.69l.33-.94c.64.22,1.28.45,1.91.69Zm-48.95-.61-.33-.94c.64-.23,1.28-.44,1.92-.65l.31.95Zm41.33-1.81c-.64-.16-1.29-.32-1.94-.46l.22-1c.66.15,1.32.31,2,.48Zm-33.65-.41-.23-1c.66-.15,1.32-.29,2-.42l.19,1C88.73,33.64,88.07,33.78,87.43,33.93Zm25.81-1.12c-.66-.09-1.32-.18-2-.25l.11-1c.67.07,1.34.15,2,.25ZM95.3,32.59l-.11-1,2-.2.09,1C96.63,32.45,96,32.51,95.3,32.59Zm10-.43c-.63,0-1.25,0-1.88,0h-.12v-1h.12c.63,0,1.27,0,1.9,0Z"/></svg>