<svg id="Oulined" xmlns="http://www.w3.org/2000/svg" viewBox="0 0 206.8 206.8"><defs><style>.cls-1{fill:#18181b;}.cls-2{fill:#fac41c;}</style></defs><title>Exit Options</title><circle class="cls-1" cx="103.4" cy="103.4" r="95.12"/><path class="cls-2" d="M103.43,186.09v-5c.65,0,1.29,0,1.94,0l.12,5C104.81,186.09,104.12,186.09,103.43,186.09Zm-2.06,0L99.31,186l.24-5c.65,0,1.29.06,1.94.07Zm6.18-.08-.25-5,1.94-.12.37,5C108.92,185.92,108.24,186,107.55,186Zm-10.29-.12c-.69-.05-1.38-.11-2.06-.18l.49-5c.64.06,1.29.12,1.93.16Zm14.4-.18-.49-5,1.92-.21.62,5Zm-18.51-.23-2-.27.74-4.95c.64.1,1.27.18,1.92.26Zm22.6-.28-.74-5c.64-.09,1.28-.2,1.91-.31l.87,4.92C117.11,185,116.43,185.08,115.75,185.18Zm-26.67-.32-2-.38,1-4.9,1.91.35Zm30.74-.4-1-4.9,1.9-.4,1.11,4.87C121.16,184.18,120.49,184.33,119.82,184.46ZM85,184.05l-2-.49,1.24-4.84c.62.16,1.25.31,1.88.45Zm38.8-.5-1.23-4.85c.63-.16,1.25-.32,1.87-.5l1.35,4.82ZM81,183c-.67-.18-1.33-.37-2-.58l1.48-4.78c.61.19,1.23.38,1.85.55Zm46.76-.6-1.47-4.77c.62-.2,1.23-.39,1.84-.6l1.59,4.74C129.12,182,128.46,182.23,127.8,182.43Zm-50.71-.61-2-.68,1.71-4.7,1.84.64Zm54.62-.7-1.71-4.7,1.81-.68,1.83,4.65Zm-58.51-.71-1.92-.78,2-4.61,1.79.73Zm62.35-.8-2-4.6,1.78-.77,2.06,4.55C136.8,179.07,136.18,179.35,135.55,179.61Zm-66.16-.81-1.88-.88,2.18-4.5,1.76.82Zm69.9-.88-2.18-4.5c.59-.28,1.16-.57,1.73-.86l2.29,4.44C140.52,177.32,139.9,177.62,139.29,177.92ZM65.67,177c-.62-.31-1.22-.63-1.83-1l2.39-4.39,1.72.91ZM143,176l-2.4-4.39,1.69-.94,2.5,4.32C144.15,175.38,143.55,175.71,143,176ZM62,175q-.9-.51-1.77-1.05l2.61-4.27c.55.34,1.11.67,1.67,1Zm84.46-1-2.6-4.26,1.63-1,2.72,4.2C147.67,173.26,147.09,173.63,146.5,174Zm-88-1.11-1.72-1.15,2.82-4.12,1.61,1.07ZM150,171.75l-2.82-4.13,1.59-1.11,2.92,4.06Zm-94.85-1.21c-.56-.4-1.11-.81-1.66-1.23l3-4c.51.39,1,.78,1.55,1.15Zm98.2-1.2-3-4c.52-.39,1-.79,1.53-1.19l3.12,3.91ZM51.83,168.05c-.54-.43-1.07-.87-1.6-1.31l3.22-3.83c.49.42,1,.83,1.49,1.23Zm104.69-1.27-3.21-3.84c.5-.41,1-.83,1.47-1.26l3.31,3.75ZM48.67,165.39q-.78-.67-1.53-1.38l3.4-3.67c.47.44,1,.88,1.44,1.3Zm110.94-1.34-3.4-3.67c.48-.44.95-.88,1.41-1.33l3.49,3.58C160.61,163.11,160.12,163.58,159.61,164.05Zm-114-1.46c-.49-.48-1-1-1.46-1.46l3.58-3.49c.45.46.91.92,1.37,1.37Zm116.92-1.42L159,157.68c.45-.46.89-.93,1.33-1.4l3.67,3.4C163.52,160.18,163.05,160.68,162.57,161.17Zm-119.8-1.53c-.47-.51-.93-1-1.38-1.53l3.74-3.31,1.3,1.44Zm122.6-1.49-3.74-3.31,1.26-1.46,3.83,3.21Q166.06,157.39,165.37,158.15ZM40,156.55,38.74,155l3.91-3.12c.4.5.81,1,1.22,1.49ZM168,155l-3.91-3.12,1.19-1.53,4,3C168.88,153.92,168.46,154.46,168,155ZM37.47,153.33c-.41-.55-.82-1.1-1.22-1.66l4.06-2.92c.37.53.76,1.05,1.15,1.56Zm133.05-1.62-4.06-2.92,1.12-1.59,4.13,2.82C171.32,150.59,170.92,151.15,170.52,151.71ZM35.07,150q-.59-.86-1.14-1.71l4.19-2.72c.36.54.71,1.08,1.08,1.61Zm137.78-1.68-4.2-2.72c.36-.55.7-1.09,1-1.64l4.26,2.61Zm-140-1.77q-.54-.89-1-1.77l4.33-2.51c.32.56.65,1.11,1,1.66ZM175,144.79l-4.33-2.51c.33-.56.64-1.12.95-1.69L176,143C175.69,143.59,175.35,144.19,175,144.79ZM30.77,143c-.33-.6-.65-1.2-1-1.81l4.45-2.29c.29.58.59,1.14.9,1.71ZM177,141.16l-4.45-2.28c.3-.58.58-1.16.87-1.74l4.5,2.17C177.61,139.93,177.3,140.55,177,141.16Zm-148.1-1.84c-.3-.62-.59-1.24-.87-1.87l4.55-2.06c.27.59.54,1.17.82,1.75Zm149.89-1.88-4.55-2.06c.27-.59.52-1.18.78-1.78l4.6,1.94C179.34,136.18,179.07,136.81,178.78,137.44ZM27.19,135.57c-.26-.63-.52-1.26-.77-1.9l4.65-1.83c.24.6.48,1.19.73,1.79Zm153.2-1.94-4.65-1.83.69-1.82,4.69,1.72C180.89,132.34,180.64,133,180.39,133.63Zm-154.7-1.89c-.24-.64-.46-1.29-.68-1.94l4.74-1.6c.2.61.41,1.22.64,1.83Zm156.12-2-4.74-1.59c.21-.61.4-1.23.59-1.85l4.78,1.47C182.24,128.43,182,129.09,181.81,129.74ZM24.37,127.83c-.2-.65-.39-1.31-.58-2l4.81-1.36c.18.62.36,1.24.55,1.86Zm158.66-2-4.82-1.35c.17-.62.34-1.24.5-1.87l4.85,1.23C183.39,124.47,183.21,125.13,183,125.79ZM23.26,123.87c-.17-.67-.33-1.34-.49-2l4.88-1.11c.14.63.29,1.26.45,1.88ZM184,121.79l-4.88-1.1c.14-.63.28-1.26.41-1.9l4.9,1C184.33,120.46,184.19,121.13,184,121.79Zm-161.7-2c-.14-.67-.26-1.34-.38-2l4.92-.87c.11.64.23,1.27.36,1.9Zm162.51-2.08-4.92-.87c.11-.63.21-1.27.31-1.91l4.94.74Q185,116.74,184.85,117.76Zm-163.23-2c-.1-.68-.19-1.36-.28-2l5-.61c.08.64.16,1.28.26,1.91Zm163.84-2.1-5-.62q.12-1,.21-1.92l5,.49C185.62,112.31,185.54,113,185.46,113.68Zm-164.35-2c-.06-.68-.12-1.36-.17-2l5-.37c0,.64.11,1.29.17,1.93Zm164.76-2.12-5-.36c.05-.65.09-1.29.12-1.94l5,.25C186,108.21,185.92,108.89,185.87,109.57Zm-165.06-2c0-.68-.06-1.37-.08-2.06l5-.12c0,.65,0,1.29.07,1.93Zm165.26-2.12-5-.12c0-.65,0-1.29,0-1.94v-.13h5v.07C186.09,104.09,186.09,104.77,186.07,105.46Zm-165.37-2v-.06c0-.67,0-1.34,0-2l5,.12c0,.63,0,1.25,0,1.88Zm160.37-2.12c0-.65,0-1.29-.08-1.94l5-.25c0,.69.06,1.37.07,2.06ZM25.79,99.59l-5-.25c0-.68.07-1.37.13-2l5,.36Zm155.08-2.12c-.05-.65-.1-1.29-.17-1.93l5-.5c.07.68.13,1.37.18,2ZM26.08,95.72l-5-.49c.07-.68.15-1.36.23-2l5,.61Q26.17,94.76,26.08,95.72Zm154.4-2.11c-.08-.64-.17-1.28-.26-1.91l4.94-.75c.11.68.2,1.36.29,2ZM26.55,91.88l-4.94-.74c.1-.68.21-1.36.33-2l4.92.85C26.75,90.6,26.65,91.24,26.55,91.88Zm153.36-2.09c-.12-.64-.24-1.28-.37-1.91l4.9-1c.14.67.27,1.35.39,2ZM27.22,88.06l-4.91-1c.14-.67.28-1.35.43-2l4.88,1.11C27.48,86.8,27.34,87.43,27.22,88.06ZM179.14,86c-.15-.63-.3-1.26-.46-1.88l4.84-1.24c.18.67.34,1.33.49,2ZM28.07,84.29l-4.85-1.23c.17-.67.35-1.33.53-2l4.82,1.34C28.4,83,28.23,83.66,28.07,84.29Zm150.11-2.05c-.18-.63-.36-1.24-.55-1.86l4.77-1.48c.21.66.4,1.32.59,2ZM29.12,80.55l-4.79-1.46c.21-.66.42-1.32.64-2l4.74,1.6C29.5,79.32,29.3,79.94,29.12,80.55Zm147.91-2c-.2-.61-.42-1.22-.64-1.83l4.7-1.72c.23.65.46,1.3.68,2ZM30.35,76.87l-4.7-1.71c.24-.64.48-1.29.73-1.93L31,75.05C30.8,75.65,30.57,76.26,30.35,76.87Zm145.35-2c-.23-.6-.48-1.19-.73-1.78l4.61-2c.26.63.52,1.26.77,1.9ZM31.77,73.25l-4.61-1.94c.27-.63.54-1.26.83-1.89l4.55,2C32.28,72.06,32,72.66,31.77,73.25Zm142.43-1.9c-.27-.59-.54-1.17-.82-1.75l4.5-2.18q.45.93.87,1.86ZM33.36,69.72l-4.5-2.17c.3-.62.6-1.24.92-1.85L34.23,68Q33.78,68.83,33.36,69.72Zm139.15-1.85c-.29-.57-.59-1.14-.9-1.7l4.39-2.4c.32.6.65,1.2,1,1.81ZM35.14,66.26l-4.39-2.39c.32-.6.66-1.21,1-1.8l4.33,2.5C35.76,65.13,35.45,65.69,35.14,66.26Zm135.52-1.78c-.32-.56-.65-1.11-1-1.66l4.26-2.61c.36.58.71,1.17,1.06,1.76ZM37.08,62.9l-4.27-2.61c.36-.58.73-1.17,1.1-1.74l4.2,2.71C37.76,61.81,37.41,62.35,37.08,62.9Zm131.56-1.71c-.35-.54-.71-1.08-1.07-1.61l4.12-2.83c.39.57.77,1.14,1.14,1.72ZM39.18,59.65l-4.13-2.82c.39-.57.79-1.14,1.19-1.7l4.06,2.93C39.92,58.58,39.55,59.11,39.18,59.65ZM166.45,58c-.37-.53-.76-1-1.15-1.56l4-3q.63.81,1.23,1.65Zm-125-1.5-4-3c.42-.55.84-1.09,1.27-1.63L42.64,55Zm122.66-1.59c-.4-.5-.81-1-1.22-1.49l3.82-3.22c.44.52.88,1,1.31,1.59ZM43.87,53.47,40,50.26c.44-.53.89-1,1.34-1.57L45.13,52Q44.49,52.74,43.87,53.47ZM161.62,52c-.43-.48-.86-1-1.3-1.43L164,47.11c.47.51.93,1,1.39,1.53ZM46.43,50.56l-3.66-3.4c.46-.5.94-1,1.42-1.49l3.58,3.49C47.31,49.62,46.87,50.09,46.43,50.56ZM159,49.11c-.45-.46-.9-.91-1.36-1.36l3.48-3.59c.5.48,1,1,1.46,1.46ZM49.14,47.79l-3.5-3.58c.5-.48,1-1,1.5-1.42l3.4,3.67C50.07,46.9,49.6,47.34,49.14,47.79Zm107.07-1.38c-.47-.44-1-.87-1.44-1.3l3.31-3.75,1.53,1.38ZM52,45.16l-3.31-3.75,1.56-1.35,3.22,3.83Zm101.34-1.31c-.5-.42-1-.83-1.51-1.23l3.12-3.91,1.6,1.3ZM54.94,42.66l-3.12-3.9c.53-.43,1.07-.85,1.62-1.27l3,4Zm95.33-1.23c-.51-.39-1-.77-1.56-1.15l2.92-4.06c.56.4,1.11.81,1.66,1.23ZM58,40.33,55.1,36.27c.55-.4,1.11-.8,1.68-1.18l2.82,4.12C59.07,39.58,58.54,40,58,40.33Zm89.1-1.16c-.53-.37-1.07-.73-1.61-1.08l2.71-4.2L149.94,35Zm-85.91-1L58.49,34c.58-.38,1.16-.74,1.75-1.1l2.61,4.26C62.3,37.45,61.75,37.79,61.21,38.14Zm82.66-1.08c-.55-.34-1.11-.67-1.67-1l2.5-4.33,1.78,1.06Zm-79.36-.94L62,31.79l1.79-1,2.4,4.38Zm76-1-1.72-.91,2.28-4.45c.62.32,1.23.64,1.83,1ZM67.9,34.27l-2.29-4.45c.61-.31,1.22-.62,1.84-.92l2.18,4.51C69.05,33.69,68.47,34,67.9,34.27Zm69.16-.92-1.77-.82L137.35,28l1.87.87Zm-65.68-.76L69.31,28l1.89-.82,1.94,4.6C72.55,32.06,72,32.32,71.38,32.59Zm62.13-.84c-.59-.25-1.19-.49-1.8-.73l1.83-4.65q1,.38,1.92.78Zm-58.58-.67L73.1,26.43,75,25.7l1.71,4.7Zm55-.74c-.61-.22-1.22-.44-1.84-.64L129.65,25c.65.22,1.3.44,1.95.68Zm-51.33-.58L77,25l2-.64,1.48,4.78C79.79,29.35,79.18,29.55,78.57,29.76Zm47.64-.65-1.86-.55,1.35-4.81c.66.18,1.32.37,2,.58Zm-43.94-.5L80.91,23.8c.66-.19,1.32-.37,2-.54l1.23,4.85Zm40.21-.55-1.88-.45,1.1-4.87q1,.23,2,.48ZM86,27.65l-1.11-4.87c.66-.15,1.34-.3,2-.43l1,4.9C87.28,27.37,86.65,27.51,86,27.65Zm32.69-.44c-.64-.13-1.27-.24-1.91-.35l.86-4.93c.68.12,1.35.24,2,.38Zm-28.9-.32L89,22c.67-.12,1.35-.23,2-.33l.75,4.94C91.09,26.67,90.45,26.77,89.81,26.89Zm25.08-.34c-.64-.1-1.28-.18-1.92-.26l.61-5,2,.28Zm-21.25-.24-.62-5c.68-.09,1.37-.16,2-.23l.5,5Zm17.4-.24-1.92-.16.36-5c.68,0,1.37.11,2,.18ZM97.5,25.92l-.38-5c.69-.05,1.37-.1,2.06-.13l.25,5Zm9.68-.13c-.64,0-1.29-.05-1.93-.06l.11-5c.69,0,1.38,0,2.06.07Zm-5.81-.06-.13-5c.69,0,1.37,0,2.06,0v5C102.66,25.7,102,25.71,101.37,25.73Z"/><path class="cls-2" d="M103.4,189.16a85.76,85.76,0,1,1,85.76-85.76A85.85,85.85,0,0,1,103.4,189.16Zm0-170.52a84.76,84.76,0,1,0,84.76,84.76A84.85,84.85,0,0,0,103.4,18.64Z"/><path class="cls-2" d="M103.44,175.67h-.08c-.63,0-1.29,0-2,0l0-1c.65,0,1.3,0,2,0Zm6.07-.26-.08-1c.66,0,1.33-.12,2-.19l.11,1C110.86,175.29,110.19,175.35,109.51,175.41Zm-14.16-.19c-.67-.07-1.34-.16-2-.25l.14-1,2,.25Zm22.18-.94-.19-1,2-.41.23,1C118.86,174,118.2,174.15,117.53,174.28Zm-30.17-.4c-.66-.15-1.32-.31-2-.48l.25-1c.64.17,1.29.33,1.94.47Zm38-1.62-.3-.95,1.89-.64.33,1Zm-45.81-.61-1.91-.7L78,170c.62.24,1.25.47,1.88.69Zm53.37-2.28-.41-.91,1.81-.84.43.9C134.17,168.81,133.56,169.09,132.94,169.37Zm-60.86-.83c-.61-.29-1.22-.6-1.82-.91l.46-.88,1.79.89Zm68.05-2.89-.51-.87c.58-.33,1.14-.68,1.71-1l.53.84C141.29,165,140.71,165.3,140.13,165.65Zm-75.15-1c-.57-.36-1.14-.73-1.7-1.11l.56-.83c.55.37,1.11.74,1.67,1.09Zm81.88-3.48-.6-.8,1.58-1.22.62.78Zm-88.49-1.22c-.53-.42-1-.85-1.56-1.28l.64-.77c.51.43,1,.86,1.55,1.27Zm94.68-4-.69-.73c.48-.45,1-.92,1.43-1.39l.71.71C154,155,153.54,155.45,153.05,155.91ZM52.33,154.53c-.48-.48-.95-1-1.42-1.46l.73-.68c.46.48.92,1,1.39,1.43ZM158.61,150l-.76-.64c.43-.51.85-1,1.27-1.55l.78.63C159.48,149,159.05,149.51,158.61,150ZM46.92,148.49c-.42-.53-.83-1.06-1.24-1.6l.8-.6c.4.53.81,1.06,1.23,1.58Zm116.57-4.94-.83-.56c.37-.55.73-1.11,1.09-1.67l.85.53C164.24,142.42,163.87,143,163.49,143.55ZM42.23,141.89c-.36-.57-.71-1.14-1.06-1.72l.86-.51c.34.57.69,1.14,1,1.7Zm125.39-5.32-.89-.46c.31-.59.6-1.19.89-1.79l.9.44C168.23,135.37,167.93,136,167.62,136.57ZM38.3,134.81c-.29-.6-.58-1.21-.85-1.83l.91-.41c.27.61.55,1.21.84,1.81Zm132.63-5.64-.93-.36c.24-.62.47-1.25.69-1.88l.94.33C171.41,127.9,171.17,128.54,170.93,129.17ZM35.19,127.34c-.22-.64-.43-1.28-.64-1.92l1-.31c.21.64.42,1.27.64,1.9Zm138.2-5.89-1-.25c.17-.65.33-1.3.47-2l1,.22Q173.65,120.46,173.39,121.45ZM33,119.55c-.15-.65-.29-1.31-.43-2l1-.19q.2,1,.42,2Zm142-6-1-.14c.1-.66.18-1.32.25-2l1,.11C175.14,112.16,175.06,112.83,175,113.5ZM31.59,111.57c-.07-.67-.14-1.34-.2-2l1-.08c.06.66.12,1.33.19,2Zm144-6.15-1,0c0-.67,0-1.33,0-2v-.16h1v.16C175.66,104.08,175.66,104.75,175.64,105.42ZM31.13,103.48v-.08q0-1,0-2l1,0q0,1,0,1.92ZM174.4,97.25c-.06-.66-.12-1.33-.2-2l1-.11c.07.67.14,1.34.2,2ZM32.57,95.5l-1-.11c.08-.67.16-1.34.25-2l1,.14C32.72,94.17,32.64,94.84,32.57,95.5Zm140.71-6.16q-.19-1-.42-2l1-.22c.15.65.3,1.31.43,2ZM33.89,87.62l-1-.22c.15-.66.31-1.32.48-2l1,.25C34.19,86.32,34,87,33.89,87.62Zm137.38-6c-.2-.63-.41-1.27-.64-1.89l1-.34c.22.64.44,1.28.64,1.92ZM36.08,79.94l-.94-.33c.22-.64.46-1.28.7-1.91l.93.36C36.53,78.68,36.3,79.31,36.08,79.94Zm132.33-5.78c-.28-.61-.56-1.21-.85-1.81l.9-.44c.3.61.58,1.22.86,1.84ZM39.14,72.55l-.9-.44c.29-.61.59-1.21.9-1.81l.89.45C39.73,71.35,39.43,72,39.14,72.55Zm125.58-5.47c-.34-.58-.68-1.14-1-1.71l.85-.53c.36.57.71,1.14,1.05,1.72ZM43,65.55,42.16,65c.36-.58.73-1.15,1.1-1.71l.83.56Q43.54,64.7,43,65.55Zm117.26-5.1c-.4-.54-.81-1.06-1.23-1.58l.78-.62c.43.52.84,1,1.25,1.59ZM47.63,59l-.78-.63c.42-.53.85-1,1.28-1.56l.77.64C48.47,58,48,58.5,47.63,59ZM155.1,54.35c-.46-.48-.92-1-1.39-1.43l.7-.71c.48.48,1,1,1.42,1.46ZM53,53.06l-.71-.7,1.45-1.42.69.73C53.9,52.13,53.42,52.59,53,53.06Zm96.34-4.19c-.51-.43-1-.85-1.55-1.26l.62-.79c.53.42,1.06.85,1.57,1.29ZM58.9,47.73,58.28,47c.52-.42,1-.84,1.59-1.24l.61.79C60,46.9,59.42,47.31,58.9,47.73Zm84-3.66L141.22,43l.53-.85,1.7,1.1Zm-77.49-1-.54-.84c.57-.36,1.15-.71,1.73-1.06l.51.86C66.53,42.39,66,42.74,65.41,43.09ZM136,40l-1.79-.89.43-.9c.61.29,1.22.6,1.82.91Zm-63.62-.79-.44-.9c.61-.3,1.22-.58,1.83-.86l.41.91C73.59,38.65,73,38.93,72.39,39.22Zm56.31-2.46c-.62-.24-1.25-.47-1.88-.69l.33-.94c.64.22,1.28.45,1.91.69Zm-48.95-.61-.33-.94c.64-.23,1.28-.44,1.92-.65l.31.95Zm41.33-1.81c-.64-.16-1.29-.32-1.94-.46l.22-1c.66.15,1.32.31,2,.48Zm-33.65-.41-.23-1c.66-.16,1.32-.3,2-.43l.19,1Zm25.81-1.12c-.66-.09-1.32-.18-2-.25l.11-1c.67.07,1.34.15,2,.25ZM95.3,32.59l-.11-1,2-.2.08,1C96.63,32.45,96,32.51,95.3,32.59Zm10-.43c-.63,0-1.25,0-1.88,0h-.12v-1h.12c.64,0,1.27,0,1.9,0Z"/><rect class="cls-1" x="56.99" y="65.45" width="89.05" height="75.94"/><path class="cls-2" d="M146.55,141.89H56.5V65h90.05Zm-89.05-1h88.05V66H57.5Z"/><rect class="cls-1" x="56.99" y="65.45" width="89.05" height="18.84"/><path class="cls-2" d="M146.55,84.79H56.5V65h90.05Zm-89.05-1h88.05V66H57.5Z"/><rect class="cls-1" x="67.93" y="92.21" width="10.21" height="10.21"/><path class="cls-2" d="M78.64,102.92H67.43V91.71H78.64Zm-10.21-1h9.21V92.71H68.43Z"/><rect class="cls-1" x="82.17" y="92.21" width="10.21" height="10.21"/><path class="cls-2" d="M92.88,102.92H81.67V91.71H92.88Zm-10.21-1h9.21V92.71H82.67Z"/><rect class="cls-1" x="96.42" y="92.21" width="10.21" height="10.21"/><path class="cls-2" d="M107.12,102.92H95.92V91.71h11.2Zm-10.2-1h9.2V92.71h-9.2Z"/><rect class="cls-2" x="110.66" y="92.21" width="10.21" height="10.21"/><rect class="cls-2" x="124.9" y="92.21" width="10.21" height="10.21"/><rect class="cls-2" x="67.93" y="106.5" width="10.21" height="10.21"/><rect class="cls-2" x="82.17" y="106.5" width="10.21" height="10.21"/><rect class="cls-2" x="96.42" y="106.5" width="10.21" height="10.21"/><rect class="cls-2" x="110.66" y="106.5" width="10.21" height="10.21"/><rect class="cls-2" x="124.9" y="106.5" width="10.21" height="10.21"/><rect class="cls-2" x="67.93" y="120.79" width="10.21" height="10.21"/><rect class="cls-2" x="82.17" y="120.79" width="10.21" height="10.21"/><rect class="cls-1" x="96.42" y="120.79" width="10.21" height="10.21"/><path class="cls-2" d="M107.12,131.5H95.92V120.29h11.2Zm-10.2-1h9.2v-9.21h-9.2Z"/><rect class="cls-1" x="110.66" y="120.79" width="10.21" height="10.21"/><path class="cls-2" d="M121.37,131.5H110.16V120.29h11.21Zm-10.21-1h9.21v-9.21h-9.21Z"/><rect class="cls-1" x="124.9" y="120.79" width="10.21" height="10.21"/><path class="cls-2" d="M135.61,131.5h-11.2V120.29h11.2Zm-10.2-1h9.2v-9.21h-9.2Z"/><rect class="cls-1" x="67.93" y="58.64" width="5.1" height="15.92"/><path class="cls-2" d="M73.53,75.05h-6.1V58.14h6.1Zm-5.1-1h4.1V59.14h-4.1Z"/><rect class="cls-1" x="89.61" y="58.64" width="5.1" height="15.92"/><path class="cls-2" d="M95.22,75.05H89.11V58.14h6.11Zm-5.11-1h4.11V59.14H90.11Z"/><rect class="cls-1" x="111.3" y="58.64" width="5.1" height="15.92"/><path class="cls-2" d="M116.9,75.05h-6.1V58.14h6.1Zm-5.1-1h4.1V59.14h-4.1Z"/><rect class="cls-1" x="132.98" y="58.64" width="5.1" height="15.92"/><path class="cls-2" d="M138.59,75.05h-6.11V58.14h6.11Zm-5.11-1h4.11V59.14h-4.11Z"/><circle class="cls-2" cx="141.3" cy="131.66" r="16.5"/><path class="cls-1" d="M141.3,148.66a17,17,0,1,1,17-17A17,17,0,0,1,141.3,148.66Zm0-33a16,16,0,1,0,16,16A16,16,0,0,0,141.3,115.66Z"/><path d="M142.66,139.5,136.39,132h3.4a2.76,2.76,0,1,0,0-5.51h-3.35v-1h3.35a3.76,3.76,0,1,1,0,7.51h-1.25l4.89,5.81Z"/><rect x="136.44" y="125.53" width="9.72" height="1"/><rect x="136.44" y="128.8" width="9.72" height="1"/></svg>