<svg id="Oulined" xmlns="http://www.w3.org/2000/svg" viewBox="0 0 206.8 206.8"><defs><style>.cls-1{fill:#18181b;}.cls-2{fill:#fac41c;}</style></defs><title>Exit Options</title><circle class="cls-1" cx="105.38" cy="103.4" r="95.12"/><path class="cls-2" d="M105.41,186.09v-5c.65,0,1.29,0,1.94,0l.12,5C106.79,186.09,106.1,186.09,105.41,186.09Zm-2.06,0-2.06-.07.25-5c.64,0,1.28.06,1.93.07Zm6.18-.08-.25-5,1.94-.12.37,5C110.9,185.91,110.22,186,109.53,186Zm-10.29-.12c-.69-.05-1.38-.11-2.06-.18l.49-5c.64.06,1.29.12,1.93.16Zm14.4-.18-.49-5q1-.09,1.92-.21l.62,5Zm-18.51-.23-2-.27.74-4.95c.64.1,1.28.18,1.92.26Zm22.6-.28-.74-5c.64-.09,1.28-.2,1.91-.31l.87,4.93C119.09,185,118.41,185.08,117.73,185.18Zm-26.68-.32-2-.38,1-4.91c.64.13,1.27.25,1.91.36Zm30.75-.4-1-4.9,1.9-.4,1.11,4.87C123.14,184.18,122.47,184.33,121.8,184.46ZM87,184.05l-2-.49,1.23-4.84c.62.16,1.25.31,1.88.45Zm38.81-.5-1.24-4.85c.63-.16,1.25-.32,1.87-.5L127.8,183ZM83,183c-.67-.18-1.33-.37-2-.58l1.47-4.78c.61.19,1.23.38,1.85.55Zm46.76-.6-1.47-4.77c.62-.2,1.23-.39,1.84-.6l1.59,4.74C131.09,182,130.44,182.23,129.78,182.43Zm-50.71-.61-2-.68,1.71-4.7,1.84.64Zm54.62-.7-1.71-4.7c.61-.22,1.21-.45,1.81-.69l1.83,4.66Zm-58.51-.71-1.92-.78L75.21,175l1.79.73Zm62.34-.8-2-4.6,1.78-.77,2.06,4.55C138.78,179.07,138.16,179.35,137.52,179.61Zm-66.15-.81-1.88-.88,2.18-4.5c.58.28,1.17.56,1.76.82Zm69.9-.88-2.17-4.5,1.72-.86,2.29,4.44C142.5,177.32,141.89,177.62,141.27,177.92ZM67.65,177c-.62-.31-1.22-.63-1.83-1l2.39-4.39,1.72.91Zm77.27-1-2.39-4.39c.57-.31,1.13-.62,1.68-.94l2.51,4.32C146.13,175.38,145.53,175.71,144.92,176ZM64,175q-.9-.51-1.77-1.05l2.61-4.27c.55.34,1.11.67,1.67,1Zm84.46-1-2.6-4.26,1.63-1,2.72,4.2C149.65,173.26,149.07,173.63,148.48,174Zm-88-1.11c-.58-.37-1.15-.76-1.72-1.15l2.82-4.12c.54.36,1.07.72,1.62,1.07Zm91.44-1.12-2.82-4.13,1.59-1.11,2.92,4.06Zm-94.85-1.21c-.56-.4-1.11-.81-1.66-1.23l3-4c.51.39,1,.78,1.55,1.15Zm98.19-1.2-3-4c.52-.39,1-.79,1.53-1.19l3.12,3.91C156.37,168.51,155.83,168.93,155.28,169.34ZM53.81,168.05c-.54-.43-1.07-.87-1.6-1.31l3.22-3.83q.74.63,1.5,1.23Zm104.69-1.28-3.21-3.83q.74-.62,1.47-1.26l3.3,3.75C159.55,165.88,159,166.33,158.5,166.77ZM50.65,165.39q-.78-.67-1.53-1.38l3.4-3.66,1.44,1.3Zm110.94-1.34-3.4-3.67c.48-.44.94-.88,1.41-1.33l3.49,3.58C162.59,163.11,162.1,163.58,161.59,164.05Zm-114-1.46c-.49-.48-1-1-1.46-1.46l3.58-3.49c.45.46.91.92,1.37,1.37Zm116.91-1.42L161,157.68c.45-.46.89-.93,1.33-1.4l3.67,3.4C165.5,160.18,165,160.68,164.54,161.17ZM44.75,159.64c-.47-.51-.93-1-1.38-1.53l3.75-3.31c.42.48.86,1,1.3,1.44Zm122.6-1.49-3.74-3.31,1.26-1.47,3.83,3.22Q168,157.39,167.35,158.15ZM42,156.55,40.72,155l3.91-3.12c.4.5.81,1,1.22,1.49ZM170,155l-3.9-3.13c.4-.5.8-1,1.19-1.52l4,3C170.86,153.92,170.43,154.46,170,155ZM39.45,153.33c-.41-.54-.82-1.1-1.22-1.66l4.06-2.91c.38.52.76,1,1.15,1.55Zm133.05-1.62-4.06-2.92,1.12-1.59,4.13,2.82C173.3,150.59,172.9,151.15,172.5,151.71ZM37.05,150q-.59-.86-1.14-1.71l4.2-2.72c.35.54.7,1.08,1.07,1.61Zm137.78-1.69-4.2-2.71c.35-.54.7-1.09,1-1.64l4.26,2.61C175.57,147.14,175.2,147.73,174.83,148.3Zm-140-1.76q-.54-.89-1.05-1.77l4.33-2.51c.32.56.65,1.12,1,1.66ZM177,144.79l-4.33-2.51c.33-.56.64-1.13,1-1.69L178,143C177.67,143.59,177.33,144.19,177,144.79ZM32.75,143c-.33-.61-.65-1.21-1-1.82l4.44-2.29c.3.58.6,1.14.91,1.71ZM179,141.16l-4.45-2.29c.3-.57.59-1.15.87-1.73l4.5,2.17C179.59,139.93,179.28,140.55,179,141.16Zm-148.1-1.84q-.45-.93-.87-1.86l4.55-2.07c.27.59.54,1.17.82,1.75Zm149.89-1.88-4.55-2.06c.27-.59.52-1.18.78-1.78l4.6,2C181.32,136.18,181.05,136.81,180.76,137.44ZM29.18,135.57c-.27-.63-.53-1.26-.78-1.9l4.65-1.83c.24.6.48,1.2.73,1.79Zm153.19-1.94-4.65-1.83c.24-.6.47-1.21.69-1.82l4.7,1.72C182.87,132.34,182.63,133,182.37,133.63Zm-154.7-1.89c-.24-.64-.46-1.29-.68-1.94l4.73-1.6c.21.62.42,1.22.65,1.83Zm156.12-2-4.74-1.59c.2-.61.4-1.23.59-1.85l4.78,1.47C184.22,128.43,184,129.09,183.79,129.74Zm-157.44-1.9c-.2-.66-.39-1.32-.58-2l4.81-1.36c.18.62.36,1.24.55,1.86Zm158.65-2-4.81-1.36c.18-.62.34-1.24.5-1.87l4.85,1.23C185.37,124.47,185.19,125.13,185,125.8ZM25.24,123.87c-.17-.67-.33-1.34-.49-2l4.88-1.11c.14.63.29,1.26.45,1.88ZM186,121.8l-4.88-1.11c.15-.63.28-1.26.41-1.89l4.9,1C186.31,120.45,186.17,121.13,186,121.8Zm-161.7-2c-.14-.68-.26-1.35-.38-2l4.92-.87c.11.64.23,1.27.36,1.91Zm162.51-2.1-4.92-.86c.11-.63.21-1.27.31-1.91l4.94.74C187.06,116.4,187,117.08,186.83,117.75Zm-163.23-2c-.1-.68-.19-1.36-.28-2.05l5-.62c.09.65.17,1.29.27,1.92Zm163.84-2.11-5-.62q.12-1,.21-1.92l5,.49C187.6,112.32,187.52,113,187.44,113.68Zm-164.35-2-.18-2.06,5-.37c.05.65.1,1.29.17,1.93Zm164.76-2.13-5-.36c0-.65.09-1.29.12-1.94l5,.25C187.94,108.2,187.9,108.89,187.85,109.57Zm-165.06-2c0-.69-.06-1.38-.08-2.07l5-.12c0,.65,0,1.29.07,1.94Zm165.26-2.13-5-.12c0-.65,0-1.29,0-1.94v-.13h5v.1C188.07,104.09,188.06,104.77,188.05,105.46Zm-164.46-2h-.91c0-.71,0-1.37,0-2l5,.11c0,.63,0,1.25,0,1.88Zm159.46-2.11c0-.65,0-1.29-.08-1.94l5-.25c0,.68.06,1.37.08,2.06ZM27.77,99.59l-5-.24c0-.69.08-1.38.12-2.06l5,.36C27.84,98.3,27.81,98.94,27.77,99.59Zm155.08-2.12c0-.65-.11-1.29-.17-1.93l5-.5c.07.68.13,1.36.19,2ZM28.06,95.72l-5-.48c.07-.69.14-1.37.23-2l5,.61Q28.15,94.76,28.06,95.72Zm154.4-2.11c-.08-.64-.17-1.28-.26-1.92l4.94-.74c.1.68.2,1.36.28,2ZM28.53,91.88l-5-.74.33-2,4.93.86C28.73,90.6,28.63,91.24,28.53,91.88Zm153.36-2.1c-.12-.63-.24-1.27-.37-1.9l4.9-1c.14.67.27,1.35.39,2ZM29.19,88.06l-4.9-1c.14-.67.28-1.34.43-2l4.88,1.1C29.46,86.8,29.32,87.43,29.19,88.06ZM181.12,86c-.15-.63-.3-1.26-.46-1.88l4.84-1.24c.17.66.34,1.33.49,2ZM30.05,84.29,25.2,83.06c.17-.67.35-1.33.53-2l4.82,1.35C30.37,83,30.21,83.66,30.05,84.29Zm150.11-2.05c-.18-.62-.36-1.24-.55-1.86l4.77-1.48c.21.66.4,1.31.59,2ZM31.09,80.56l-4.78-1.47c.21-.66.42-1.32.64-2l4.74,1.59C31.48,79.32,31.28,79.94,31.09,80.56Zm147.92-2c-.21-.61-.42-1.22-.64-1.83L183.06,75c.24.65.47,1.29.69,2ZM32.33,76.87l-4.7-1.71c.23-.64.48-1.29.73-1.93L33,75.06C32.78,75.66,32.55,76.26,32.33,76.87Zm145.35-2c-.24-.6-.48-1.19-.73-1.79l4.6-2c.27.63.53,1.27.78,1.9ZM33.75,73.26l-4.61-2c.27-.63.54-1.26.82-1.89l4.56,2.06C34.26,72.07,34,72.66,33.75,73.26Zm142.43-1.91c-.27-.59-.54-1.17-.82-1.75l4.5-2.18q.45.93.87,1.86ZM35.34,69.72l-4.5-2.17c.3-.62.6-1.24.92-1.85L36.21,68C35.91,68.56,35.62,69.13,35.34,69.72Zm139.15-1.85q-.44-.86-.9-1.71l4.38-2.4,1,1.82ZM37.11,66.26l-4.39-2.39q.49-.9,1-1.8l4.32,2.5Zm135.53-1.78c-.32-.56-.65-1.11-1-1.66l4.26-2.61c.36.58.71,1.17,1.05,1.76ZM39.05,62.91l-4.26-2.62c.36-.58.73-1.16,1.1-1.74l4.2,2.71C39.74,61.81,39.39,62.35,39.05,62.91Zm131.57-1.72c-.35-.55-.71-1.08-1.08-1.61l4.13-2.83q.59.86,1.14,1.71ZM41.16,59.65,37,56.83c.39-.57.79-1.13,1.19-1.69l4.05,2.92Q41.72,58.84,41.16,59.65ZM168.43,58c-.38-.52-.76-1-1.15-1.55l4-3c.42.55.83,1.1,1.23,1.66Zm-125-1.49-4-3c.42-.55.84-1.09,1.27-1.63L44.62,55C44.21,55.48,43.82,56,43.43,56.5Zm122.66-1.59c-.4-.5-.81-1-1.23-1.49l3.83-3.22c.44.52.88,1,1.31,1.59ZM45.85,53.47,42,50.26c.44-.53.89-1,1.34-1.57L47.11,52Q46.47,52.74,45.85,53.47ZM163.6,52c-.43-.48-.86-1-1.3-1.43L166,47.11q.71.75,1.38,1.53ZM48.41,50.57l-3.67-3.4c.47-.51.95-1,1.43-1.5l3.57,3.49C49.29,49.63,48.85,50.09,48.41,50.57ZM161,49.11c-.45-.46-.91-.92-1.37-1.37l3.49-3.58,1.46,1.46ZM51.11,47.79l-3.49-3.58,1.49-1.42,3.41,3.67C52,46.9,51.58,47.34,51.11,47.79Zm107.08-1.38c-.48-.44-.95-.87-1.44-1.3l3.31-3.75,1.53,1.38ZM54,45.16l-3.31-3.75,1.56-1.34,3.22,3.82C54.92,44.31,54.44,44.73,54,45.16Zm101.33-1.31q-.74-.63-1.5-1.23l3.12-3.91c.54.43,1.07.86,1.59,1.31ZM56.92,42.67l-3.13-3.91,1.63-1.27,3,4C57.93,41.87,57.42,42.26,56.92,42.67Zm95.33-1.24c-.51-.39-1-.78-1.56-1.15l2.92-4.06c.56.4,1.11.81,1.66,1.22ZM60,40.33l-2.93-4.06c.56-.4,1.12-.8,1.69-1.18l2.82,4.12C61.05,39.58,60.52,40,60,40.33Zm89.1-1.16c-.53-.37-1.07-.73-1.61-1.08l2.71-4.2L151.92,35Zm-85.91-1L60.47,34c.58-.38,1.16-.74,1.74-1.1l2.62,4.26C64.28,37.45,63.73,37.79,63.19,38.14Zm82.65-1.08c-.55-.34-1.1-.67-1.66-1l2.5-4.33c.59.34,1.19.7,1.77,1.05Zm-79.35-.94L64,31.8c.59-.35,1.19-.68,1.79-1l2.4,4.38Zm76-1-1.72-.91,2.28-4.45,1.83,1Zm-72.61-.85-2.29-4.45c.61-.31,1.22-.62,1.84-.91l2.17,4.5ZM139,33.35l-1.76-.82L139.33,28l1.87.87Zm-65.68-.76L71.29,28l1.88-.82,2,4.61C74.53,32.07,73.94,32.32,73.35,32.59Zm62.14-.83c-.59-.26-1.19-.5-1.8-.74l1.83-4.65c.64.25,1.28.51,1.91.78Zm-58.58-.68-1.84-4.65L77,25.7l1.72,4.7Zm55-.74c-.61-.22-1.22-.44-1.84-.64L131.63,25c.65.22,1.3.44,2,.68Zm-51.34-.58L79,25l2-.64,1.48,4.78C81.77,29.35,81.16,29.55,80.54,29.76Zm47.65-.65-1.86-.55,1.35-4.81c.66.18,1.32.37,2,.57Zm-43.95-.5L82.89,23.8c.66-.19,1.32-.37,2-.54l1.23,4.85Zm40.22-.55-1.88-.45,1.1-4.87,2,.48ZM88,27.65l-1.12-4.87c.67-.15,1.34-.3,2-.43l1,4.9C89.26,27.37,88.62,27.51,88,27.65Zm32.68-.44c-.63-.13-1.26-.25-1.9-.36l.86-4.92c.67.12,1.35.24,2,.38Zm-28.89-.32L90.92,22q1-.18,2-.33l.74,4.94C93.06,26.67,92.43,26.77,91.79,26.89Zm25.08-.34c-.64-.1-1.28-.18-1.92-.26l.61-5,2,.28Zm-21.25-.24-.62-5c.68-.09,1.36-.16,2-.23l.5,5Zm17.4-.24-1.93-.16.37-5c.68,0,1.37.11,2.05.18Zm-13.54-.15-.38-5c.69-.05,1.37-.1,2.06-.13l.25,5Zm9.68-.13-1.94-.07.12-5c.69,0,1.37,0,2.06.07Zm-5.81-.06-.13-5c.68,0,1.37,0,2.06,0v5C104.64,25.7,104,25.71,103.35,25.73Z"/><path class="cls-2" d="M105.38,189.16a85.76,85.76,0,1,1,85.76-85.76A85.85,85.85,0,0,1,105.38,189.16Zm0-170.52a84.76,84.76,0,1,0,84.76,84.76A84.85,84.85,0,0,0,105.38,18.64Z"/><path class="cls-2" d="M105.42,175.67h-.08c-.62,0-1.29,0-2,0l0-1c.65,0,1.3,0,2,0Zm6.07-.26-.08-1c.66,0,1.33-.12,2-.19l.11,1C112.84,175.29,112.17,175.35,111.49,175.41Zm-14.16-.19c-.67-.07-1.34-.16-2-.25l.14-1,2,.25Zm22.18-.94-.19-1,2-.42.22,1Q120.52,174.08,119.51,174.28Zm-30.17-.4c-.66-.15-1.32-.31-2-.48l.25-1c.64.17,1.29.33,1.94.47Zm38-1.62-.31-.95c.64-.2,1.27-.42,1.9-.64l.33,1Zm-45.81-.62c-.64-.22-1.28-.45-1.91-.69L80,170c.62.24,1.25.47,1.88.69Zm53.37-2.27-.41-.91,1.81-.85.43.9C136.15,168.81,135.54,169.09,134.92,169.37Zm-60.86-.83c-.61-.29-1.22-.6-1.82-.91l.46-.88,1.79.89Zm68.05-2.9-.51-.85,1.7-1,.54.84C143.27,165,142.69,165.3,142.11,165.64Zm-75.15-1c-.57-.36-1.14-.73-1.7-1.11l.55-.83c.56.37,1.12.74,1.68,1.09Zm81.88-3.48-.6-.8c.53-.4,1-.81,1.57-1.22l.63.78Zm-88.49-1.22c-.53-.42-1.05-.85-1.57-1.28l.65-.76c.51.42,1,.85,1.54,1.26Zm94.67-4-.68-.73c.48-.45,1-.92,1.43-1.39l.71.71C156,155,155.52,155.45,155,155.91ZM54.31,154.53c-.48-.48-1-1-1.42-1.45l.73-.69c.46.48.92,1,1.39,1.43ZM160.59,150l-.76-.64c.43-.51.85-1,1.27-1.55l.78.63C161.46,149,161,149.51,160.59,150ZM48.9,148.49c-.42-.53-.83-1.06-1.24-1.6l.8-.6c.4.53.81,1.06,1.22,1.58Zm116.57-4.94-.83-.55c.37-.56.73-1.12,1.09-1.68l.85.53C166.21,142.42,165.85,143,165.47,143.55ZM44.21,141.89c-.36-.57-.71-1.14-1.06-1.72l.86-.51c.34.57.69,1.14,1,1.7Zm125.39-5.32-.89-.46c.3-.59.6-1.19.89-1.79l.9.44C170.21,135.37,169.91,136,169.6,136.57ZM40.28,134.81c-.29-.6-.58-1.21-.86-1.83l.92-.41c.27.61.55,1.21.84,1.81Zm132.63-5.64-.93-.36c.24-.62.47-1.25.69-1.88l.94.33C173.39,127.9,173.15,128.54,172.91,129.17ZM37.17,127.34c-.22-.64-.44-1.28-.64-1.92l.95-.31c.2.64.42,1.27.64,1.9Zm138.2-5.89-1-.25c.17-.65.33-1.3.47-2l1,.22Q175.63,120.46,175.37,121.45Zm-140.44-1.9c-.15-.65-.3-1.31-.43-2l1-.19q.2,1,.42,2Zm142-6-1-.14c.1-.66.18-1.32.25-2l1,.11C177.12,112.16,177,112.83,176.94,113.5ZM33.57,111.57c-.08-.67-.14-1.34-.2-2l1-.08c.05.66.12,1.33.19,2Zm144.05-6.15-1,0c0-.67,0-1.33,0-2v-.16h1v.15C177.64,104.08,177.63,104.75,177.62,105.42Zm-144.19-2-.32,0c0-.66,0-1.31,0-2l1,0q0,1,0,1.92Zm143-6.2c0-.66-.12-1.33-.2-2l1-.11c.07.67.14,1.34.2,2ZM34.55,95.5l-1-.11c.08-.67.16-1.34.25-2l1,.14Q34.66,94.51,34.55,95.5Zm140.71-6.16q-.19-1-.42-2l1-.22c.15.65.3,1.31.43,2ZM35.86,87.62l-1-.22c.15-.66.31-1.32.47-2l1,.25C36.17,86.32,36,87,35.86,87.62Zm137.39-6c-.2-.64-.42-1.27-.64-1.89l.95-.34c.22.64.44,1.28.64,1.92ZM38.06,79.94l-.94-.33c.22-.64.45-1.28.7-1.91l.93.36C38.51,78.68,38.28,79.31,38.06,79.94Zm132.33-5.78c-.28-.61-.56-1.21-.85-1.81l.9-.44c.3.61.58,1.22.86,1.83ZM41.12,72.55l-.9-.44c.29-.61.59-1.21.9-1.81l.89.46C41.7,71.35,41.41,72,41.12,72.55ZM166.7,67.07c-.34-.57-.68-1.14-1-1.7l.85-.53c.36.57.71,1.14,1.05,1.72ZM45,65.55,44.14,65c.36-.58.72-1.15,1.1-1.71l.83.56C45.7,64.42,45.34,65,45,65.55Zm117.27-5.1c-.4-.54-.81-1.06-1.23-1.58l.78-.63c.42.53.84,1.06,1.25,1.6ZM49.61,59l-.78-.63c.42-.53.85-1,1.28-1.56l.77.64C50.45,58,50,58.51,49.61,59Zm107.47-4.68c-.46-.48-.92-1-1.39-1.43l.7-.71c.48.48,1,1,1.42,1.46ZM54.93,53.06l-.71-.7,1.45-1.42.69.73C55.88,52.13,55.4,52.59,54.93,53.06Zm96.34-4.19c-.51-.43-1-.85-1.55-1.27l.62-.78c.53.42,1,.85,1.57,1.29ZM60.88,47.73,60.25,47c.53-.42,1.06-.84,1.6-1.24l.61.79C61.92,46.9,61.4,47.31,60.88,47.73Zm84-3.66L143.2,43l.53-.84c.57.36,1.14.72,1.7,1.1Zm-77.5-1-.53-.84c.57-.36,1.15-.71,1.73-1.06l.51.86C68.51,42.39,68,42.74,67.38,43.09ZM138,40c-.6-.3-1.19-.6-1.8-.89l.44-.9c.61.29,1.21.6,1.82.91Zm-63.63-.79-.43-.9c.61-.3,1.22-.58,1.83-.86l.41.91Zm56.32-2.46c-.62-.24-1.25-.47-1.88-.69l.33-.94c.64.22,1.28.45,1.91.69Zm-48.95-.61-.33-.94c.64-.23,1.28-.44,1.92-.65l.31.95Zm41.33-1.81c-.64-.16-1.29-.32-1.94-.46l.22-1c.66.15,1.31.31,2,.48Zm-33.65-.41-.23-1c.66-.15,1.32-.3,2-.43l.19,1C90.71,33.64,90.05,33.78,89.41,33.93Zm25.81-1.12c-.66-.09-1.32-.18-2-.25l.11-1c.67.07,1.34.15,2,.25Zm-17.94-.22-.11-1c.67-.07,1.34-.14,2-.19l.08,1C98.6,32.45,97.94,32.51,97.28,32.59Zm10-.43c-.63,0-1.25,0-1.88,0h-.12v-1h.12c.64,0,1.27,0,1.9,0Z"/><path class="cls-1" d="M55.52,66.45h94.39a1.1,1.1,0,0,1,1.1,1.1v67.86a0,0,0,0,1,0,0H54.42a0,0,0,0,1,0,0V67.55A1.1,1.1,0,0,1,55.52,66.45Z"/><path class="cls-2" d="M151.51,135.91H53.92V67.55a1.6,1.6,0,0,1,1.6-1.6h94.39a1.6,1.6,0,0,1,1.6,1.6Zm-96.59-1h95.59V67.55a.6.6,0,0,0-.6-.6H55.52a.6.6,0,0,0-.6.6Z"/><rect class="cls-1" x="57.78" y="69.55" width="89.87" height="62.75"/><path class="cls-2" d="M148.15,132.8H57.28V69.05h90.87Zm-89.87-1h88.87V70.05H58.28Z"/><circle class="cls-2" cx="150.69" cy="102.25" r="16.62"/><path class="cls-1" d="M150.69,119.37a17.12,17.12,0,1,1,17.12-17.12A17.14,17.14,0,0,1,150.69,119.37Zm0-33.24a16.12,16.12,0,1,0,16.12,16.12A16.14,16.14,0,0,0,150.69,86.13Z"/><path class="cls-1" d="M151.47,115.62l0-.73a12.74,12.74,0,0,0,2.76-25l.2-.71a13.47,13.47,0,0,1-2.92,26.4Z"/><polygon class="cls-1" points="155.13 91.3 154.77 89.72 155.65 88.36 151.91 89.21 155.13 91.3"/><path class="cls-1" d="M147.44,115.33A13.47,13.47,0,0,1,150,88.8l0,.73a12.74,12.74,0,0,0-2.41,25.08Z"/><path class="cls-1" d="M149.94,115.33a12,12,0,0,1-3.1-2.44l.38,2-1,1.79A12.19,12.19,0,0,1,149.94,115.33Z"/><path class="cls-1" d="M152.28,110.11l-6.18-7.35h3.15a2.95,2.95,0,1,0,0-5.89h-3.4v-.74h3.4a3.68,3.68,0,0,1,0,7.36h-1.58l5.17,6.15Z"/><rect class="cls-1" x="145.85" y="96.13" width="9.88" height="0.73"/><rect class="cls-1" x="145.85" y="99.46" width="9.88" height="0.73"/><polyline class="cls-1" points="103.02 86.46 103.02 75.92 87.63 75.92 72.23 75.92 72.23 87.49 72.23 92.15 72.23 106.34 72.23 125.2 87.63 125.2 103.02 125.2 103.02 106.34 103.02 95.63"/><polygon class="cls-2" points="103.52 125.7 71.73 125.7 71.73 75.42 103.52 75.42 103.52 86.46 102.52 86.46 102.52 76.42 72.73 76.42 72.73 124.7 102.52 124.7 102.52 95.63 103.52 95.63 103.52 125.7"/><rect class="cls-1" x="77.16" y="80.69" width="5.15" height="5.15"/><path class="cls-2" d="M82.82,86.34H76.66V80.19h6.16Zm-5.16-1h4.16V81.19H77.66Z"/><rect class="cls-1" x="85.05" y="80.69" width="5.15" height="5.15"/><path class="cls-2" d="M90.7,86.34H84.55V80.19H90.7Zm-5.15-1H89.7V81.19H85.55Z"/><rect class="cls-1" x="92.93" y="80.69" width="5.15" height="5.15"/><path class="cls-2" d="M98.59,86.34H92.44V80.19h6.15Zm-5.15-1h4.15V81.19H93.44Z"/><rect class="cls-1" x="77.16" y="88.2" width="5.15" height="5.15"/><path class="cls-2" d="M82.82,93.85H76.66V87.7h6.16Zm-5.16-1h4.16V88.7H77.66Z"/><rect class="cls-1" x="77.16" y="95.7" width="5.15" height="5.15"/><path class="cls-2" d="M82.82,101.35H76.66V95.2h6.16Zm-5.16-1h4.16V96.2H77.66Z"/><rect class="cls-1" x="85.05" y="95.7" width="5.15" height="5.15"/><path class="cls-2" d="M90.7,101.35H84.55V95.2H90.7Zm-5.15-1H89.7V96.2H85.55Z"/><rect class="cls-1" x="92.93" y="95.7" width="5.15" height="5.15"/><path class="cls-2" d="M98.59,101.35H92.44V95.2h6.15Zm-5.15-1h4.15V96.2H93.44Z"/><rect class="cls-1" x="77.16" y="103.2" width="5.15" height="5.15"/><path class="cls-2" d="M82.82,108.85H76.66V102.7h6.16Zm-5.16-1h4.16V103.7H77.66Z"/><rect class="cls-1" x="85.05" y="103.2" width="5.15" height="5.15"/><path class="cls-2" d="M90.7,108.85H84.55V102.7H90.7Zm-5.15-1H89.7V103.7H85.55Z"/><rect class="cls-1" x="92.93" y="103.2" width="5.15" height="5.15"/><path class="cls-2" d="M98.59,108.85H92.44V102.7h6.15Zm-5.15-1h4.15V103.7H93.44Z"/><rect class="cls-1" x="85.05" y="116" width="6.2" height="9.2"/><path class="cls-2" d="M91.75,125.7h-7.2V115.5h7.2Zm-6.2-1h5.2v-8.2h-5.2Z"/><rect class="cls-2" x="113.42" y="88.61" width="4.31" height="4.31"/><rect class="cls-2" x="120.01" y="88.61" width="4.31" height="4.31"/><path class="cls-2" d="M126.91,95.33H110.7V86.15h16.21Zm-15.21-1h14.21V87.15H111.7Z"/><polygon class="cls-2" points="118.89 83.94 116.67 82.71 117.16 81.83 118.72 82.7 121.33 80.1 122.03 80.81 118.89 83.94"/></svg>