<svg id="Outlined_all" data-name="Outlined all" xmlns="http://www.w3.org/2000/svg" xmlns:xlink="http://www.w3.org/1999/xlink" viewBox="0 0 1024 600"><defs><style>.cls-1,.cls-2{fill:none;}.cls-2{stroke:#fac41c;stroke-linejoin:round;}.cls-3{fill:#fcd869;}.cls-4{clip-path:url(#clip-path);}.cls-5{fill:#fac41c;}.cls-6{fill:url(#Diagonal_Lines);}.cls-7{fill:url(#Diagonal_Lines-9);}</style><clipPath id="clip-path"><rect class="cls-1" x="89.13" y="92.47" width="845.75" height="411.07"/></clipPath><pattern id="Diagonal_Lines" data-name="Diagonal Lines" width="36" height="30" patternTransform="translate(137.22 7.28)" patternUnits="userSpaceOnUse" viewBox="0 0 36 30"><rect class="cls-1" width="36" height="30"/><line class="cls-2" x1="30" y1="60" x2="78" y2="12"/><line class="cls-2" x1="30" y1="66" x2="84" y2="12"/><line class="cls-2" x1="30" y1="72" x2="90" y2="12"/><line class="cls-2" x1="30" y1="78" x2="96" y2="12"/><line class="cls-2" x1="30" y1="84" x2="102" y2="12"/><line class="cls-2" x1="30" y1="90" x2="108" y2="12"/><line class="cls-2" x1="30" y1="96" x2="114" y2="12"/><line class="cls-2" x1="36" y1="96" x2="114" y2="18"/><line class="cls-2" x1="-6" y1="60" x2="42" y2="12"/><line class="cls-2" x1="-6" y1="66" x2="48" y2="12"/><line class="cls-2" x1="-6" y1="72" x2="54" y2="12"/><line class="cls-2" x1="-6" y1="78" x2="60" y2="12"/><line class="cls-2" x1="-6" y1="84" x2="66" y2="12"/><line class="cls-2" x1="-6" y1="90" x2="72" y2="12"/><line class="cls-2" x1="-6" y1="96" x2="78" y2="12"/><line class="cls-2" y1="96" x2="78" y2="18"/><line class="cls-2" x1="6" y1="96" x2="78" y2="24"/><line class="cls-2" x1="12" y1="96" x2="78" y2="30"/><line class="cls-2" x1="-42" y1="60" x2="6" y2="12"/><line class="cls-2" x1="-42" y1="66" x2="12" y2="12"/><line class="cls-2" x1="-42" y1="72" x2="18" y2="12"/><line class="cls-2" x1="-42" y1="78" x2="24" y2="12"/><line class="cls-2" x1="-42" y1="84" x2="30" y2="12"/><line class="cls-2" x1="-42" y1="90" x2="36" y2="12"/><line class="cls-2" x1="-42" y1="96" x2="42" y2="12"/><line class="cls-2" x1="-36" y1="96" x2="42" y2="18"/><line class="cls-2" x1="-30" y1="96" x2="42" y2="24"/><line class="cls-2" x1="-24" y1="96" x2="42" y2="30"/><line class="cls-2" x1="-78" y1="90" y2="12"/><line class="cls-2" x1="-78" y1="96" x2="6" y2="12"/><line class="cls-2" x1="-72" y1="96" x2="6" y2="18"/><line class="cls-2" x1="-66" y1="96" x2="6" y2="24"/><line class="cls-2" x1="-60" y1="96" x2="6" y2="30"/><line class="cls-2" x1="30" y1="30" x2="78" y2="-18"/><line class="cls-2" x1="30" y1="36" x2="84" y2="-18"/><line class="cls-2" x1="30" y1="42" x2="90" y2="-18"/><line class="cls-2" x1="30" y1="48" x2="96" y2="-18"/><line class="cls-2" x1="30" y1="54" x2="102" y2="-18"/><line class="cls-2" x1="30" y1="60" x2="108" y2="-18"/><line class="cls-2" x1="30" y1="66" x2="114" y2="-18"/><line class="cls-2" x1="36" y1="66" x2="114" y2="-12"/><line class="cls-2" x1="-6" y1="30" x2="42" y2="-18"/><line class="cls-2" x1="-6" y1="36" x2="48" y2="-18"/><line class="cls-2" x1="-6" y1="42" x2="54" y2="-18"/><line class="cls-2" x1="-6" y1="48" x2="60" y2="-18"/><line class="cls-2" x1="-6" y1="54" x2="66" y2="-18"/><line class="cls-2" x1="-6" y1="60" x2="72" y2="-18"/><line class="cls-2" x1="-6" y1="66" x2="78" y2="-18"/><line class="cls-2" y1="66" x2="78" y2="-12"/><line class="cls-2" x1="6" y1="66" x2="78" y2="-6"/><line class="cls-2" x1="12" y1="66" x2="78"/><line class="cls-2" x1="18" y1="66" x2="78" y2="6"/><line class="cls-2" x1="24" y1="66" x2="78" y2="12"/><line class="cls-2" x1="30" y1="66" x2="78" y2="18"/><line class="cls-2" x1="36" y1="66" x2="78" y2="24"/><line class="cls-2" x1="-42" y1="30" x2="6" y2="-18"/><line class="cls-2" x1="-42" y1="36" x2="12" y2="-18"/><line class="cls-2" x1="-42" y1="42" x2="18" y2="-18"/><line class="cls-2" x1="-42" y1="48" x2="24" y2="-18"/><line class="cls-2" x1="-42" y1="54" x2="30" y2="-18"/><line class="cls-2" x1="-42" y1="60" x2="36" y2="-18"/><line class="cls-2" x1="-42" y1="66" x2="42" y2="-18"/><line class="cls-2" x1="-36" y1="66" x2="42" y2="-12"/><line class="cls-2" x1="-30" y1="66" x2="42" y2="-6"/><line class="cls-2" x1="-24" y1="66" x2="42"/><line class="cls-2" x1="-18" y1="66" x2="42" y2="6"/><line class="cls-2" x1="-12" y1="66" x2="42" y2="12"/><line class="cls-2" x1="-6" y1="66" x2="42" y2="18"/><line class="cls-2" y1="66" x2="42" y2="24"/><line class="cls-2" x1="6" y1="66" x2="42" y2="30"/><line class="cls-2" x1="-78" y1="60" y2="-18"/><line class="cls-2" x1="-78" y1="66" x2="6" y2="-18"/><line class="cls-2" x1="-72" y1="66" x2="6" y2="-12"/><line class="cls-2" x1="-66" y1="66" x2="6" y2="-6"/><line class="cls-2" x1="-60" y1="66" x2="6"/><line class="cls-2" x1="-54" y1="66" x2="6" y2="6"/><line class="cls-2" x1="-48" y1="66" x2="6" y2="12"/><line class="cls-2" x1="-42" y1="66" x2="6" y2="18"/><line class="cls-2" x1="-36" y1="66" x2="6" y2="24"/><line class="cls-2" x1="-30" y1="66" x2="6" y2="30"/><line class="cls-2" x1="30" x2="78" y2="-48"/><line class="cls-2" x1="30" y1="6" x2="84" y2="-48"/><line class="cls-2" x1="30" y1="12" x2="90" y2="-48"/><line class="cls-2" x1="30" y1="18" x2="96" y2="-48"/><line class="cls-2" x1="30" y1="24" x2="102" y2="-48"/><line class="cls-2" x1="30" y1="30" x2="108" y2="-48"/><line class="cls-2" x1="30" y1="36" x2="114" y2="-48"/><line class="cls-2" x1="36" y1="36" x2="114" y2="-42"/><line class="cls-2" x1="-6" x2="42" y2="-48"/><line class="cls-2" x1="-6" y1="6" x2="48" y2="-48"/><line class="cls-2" x1="-6" y1="12" x2="54" y2="-48"/><line class="cls-2" x1="-6" y1="18" x2="60" y2="-48"/><line class="cls-2" x1="-6" y1="24" x2="66" y2="-48"/><line class="cls-2" x1="-6" y1="30" x2="72" y2="-48"/><line class="cls-2" x1="-6" y1="36" x2="78" y2="-48"/><line class="cls-2" y1="36" x2="78" y2="-42"/><line class="cls-2" x1="6" y1="36" x2="78" y2="-36"/><line class="cls-2" x1="12" y1="36" x2="78" y2="-30"/><line class="cls-2" x1="18" y1="36" x2="78" y2="-24"/><line class="cls-2" x1="24" y1="36" x2="78" y2="-18"/><line class="cls-2" x1="30" y1="36" x2="78" y2="-12"/><line class="cls-2" x1="36" y1="36" x2="78" y2="-6"/><line class="cls-2" x1="-42" x2="6" y2="-48"/><line class="cls-2" x1="-42" y1="6" x2="12" y2="-48"/><line class="cls-2" x1="-42" y1="12" x2="18" y2="-48"/><line class="cls-2" x1="-42" y1="18" x2="24" y2="-48"/><line class="cls-2" x1="-42" y1="24" x2="30" y2="-48"/><line class="cls-2" x1="-42" y1="30" x2="36" y2="-48"/><line class="cls-2" x1="-42" y1="36" x2="42" y2="-48"/><line class="cls-2" x1="-36" y1="36" x2="42" y2="-42"/><line class="cls-2" x1="-30" y1="36" x2="42" y2="-36"/><line class="cls-2" x1="-24" y1="36" x2="42" y2="-30"/><line class="cls-2" x1="-18" y1="36" x2="42" y2="-24"/><line class="cls-2" x1="-12" y1="36" x2="42" y2="-18"/><line class="cls-2" x1="-6" y1="36" x2="42" y2="-12"/><line class="cls-2" y1="36" x2="42" y2="-6"/><line class="cls-2" x1="6" y1="36" x2="42"/><line class="cls-2" x1="12" y1="36" x2="42" y2="6"/><line class="cls-2" x1="18" y1="36" x2="42" y2="12"/><line class="cls-2" x1="24" y1="36" x2="42" y2="18"/><line class="cls-2" x1="30" y1="36" x2="42" y2="24"/><line class="cls-2" x1="-78" y1="30" y2="-48"/><line class="cls-2" x1="-78" y1="36" x2="6" y2="-48"/><line class="cls-2" x1="-72" y1="36" x2="6" y2="-42"/><line class="cls-2" x1="-66" y1="36" x2="6" y2="-36"/><line class="cls-2" x1="-60" y1="36" x2="6" y2="-30"/><line class="cls-2" x1="-54" y1="36" x2="6" y2="-24"/><line class="cls-2" x1="-48" y1="36" x2="6" y2="-18"/><line class="cls-2" x1="-42" y1="36" x2="6" y2="-12"/><line class="cls-2" x1="-36" y1="36" x2="6" y2="-6"/><line class="cls-2" x1="-30" y1="36" x2="6"/><line class="cls-2" x1="-24" y1="36" x2="6" y2="6"/><line class="cls-2" x1="-18" y1="36" x2="6" y2="12"/><line class="cls-2" x1="-12" y1="36" x2="6" y2="18"/><line class="cls-2" x1="-6" y1="36" x2="6" y2="24"/><line class="cls-2" x1="30" x2="108" y2="-78"/><line class="cls-2" x1="30" y1="6" x2="114" y2="-78"/><line class="cls-2" x1="36" y1="6" x2="114" y2="-72"/><line class="cls-2" x1="-6" x2="72" y2="-78"/><line class="cls-2" x1="-6" y1="6" x2="78" y2="-78"/><line class="cls-2" y1="6" x2="78" y2="-72"/><line class="cls-2" x1="6" y1="6" x2="78" y2="-66"/><line class="cls-2" x1="12" y1="6" x2="78" y2="-60"/><line class="cls-2" x1="18" y1="6" x2="78" y2="-54"/><line class="cls-2" x1="24" y1="6" x2="78" y2="-48"/><line class="cls-2" x1="30" y1="6" x2="78" y2="-42"/><line class="cls-2" x1="36" y1="6" x2="78" y2="-36"/><line class="cls-2" x1="-42" x2="36" y2="-78"/><line class="cls-2" x1="-42" y1="6" x2="42" y2="-78"/><line class="cls-2" x1="-36" y1="6" x2="42" y2="-72"/><line class="cls-2" x1="-30" y1="6" x2="42" y2="-66"/><line class="cls-2" x1="-24" y1="6" x2="42" y2="-60"/><line class="cls-2" x1="-18" y1="6" x2="42" y2="-54"/><line class="cls-2" x1="-12" y1="6" x2="42" y2="-48"/><line class="cls-2" x1="-6" y1="6" x2="42" y2="-42"/><line class="cls-2" y1="6" x2="42" y2="-36"/><line class="cls-2" x1="6" y1="6" x2="42" y2="-30"/><line class="cls-2" x1="12" y1="6" x2="42" y2="-24"/><line class="cls-2" x1="18" y1="6" x2="42" y2="-18"/><line class="cls-2" x1="24" y1="6" x2="42" y2="-12"/><line class="cls-2" x1="30" y1="6" x2="42" y2="-6"/><line class="cls-2" x1="-78" y2="-78"/><line class="cls-2" x1="-78" y1="6" x2="6" y2="-78"/><line class="cls-2" x1="-72" y1="6" x2="6" y2="-72"/><line class="cls-2" x1="-66" y1="6" x2="6" y2="-66"/><line class="cls-2" x1="-60" y1="6" x2="6" y2="-60"/><line class="cls-2" x1="-54" y1="6" x2="6" y2="-54"/><line class="cls-2" x1="-48" y1="6" x2="6" y2="-48"/><line class="cls-2" x1="-42" y1="6" x2="6" y2="-42"/><line class="cls-2" x1="-36" y1="6" x2="6" y2="-36"/><line class="cls-2" x1="-30" y1="6" x2="6" y2="-30"/><line class="cls-2" x1="-24" y1="6" x2="6" y2="-24"/><line class="cls-2" x1="-18" y1="6" x2="6" y2="-18"/><line class="cls-2" x1="-12" y1="6" x2="6" y2="-12"/><line class="cls-2" x1="-6" y1="6" x2="6" y2="-6"/></pattern><pattern id="Diagonal_Lines-9" data-name="Diagonal Lines" width="36" height="30" patternTransform="translate(87.22 -12.72)" patternUnits="userSpaceOnUse" viewBox="0 0 36 30"><rect class="cls-1" width="36" height="30"/><line class="cls-2" x1="30" y1="60" x2="78" y2="12"/><line class="cls-2" x1="30" y1="66" x2="84" y2="12"/><line class="cls-2" x1="30" y1="72" x2="90" y2="12"/><line class="cls-2" x1="30" y1="78" x2="96" y2="12"/><line class="cls-2" x1="30" y1="84" x2="102" y2="12"/><line class="cls-2" x1="30" y1="90" x2="108" y2="12"/><line class="cls-2" x1="30" y1="96" x2="114" y2="12"/><line class="cls-2" x1="36" y1="96" x2="114" y2="18"/><line class="cls-2" x1="-6" y1="60" x2="42" y2="12"/><line class="cls-2" x1="-6" y1="66" x2="48" y2="12"/><line class="cls-2" x1="-6" y1="72" x2="54" y2="12"/><line class="cls-2" x1="-6" y1="78" x2="60" y2="12"/><line class="cls-2" x1="-6" y1="84" x2="66" y2="12"/><line class="cls-2" x1="-6" y1="90" x2="72" y2="12"/><line class="cls-2" x1="-6" y1="96" x2="78" y2="12"/><line class="cls-2" y1="96" x2="78" y2="18"/><line class="cls-2" x1="6" y1="96" x2="78" y2="24"/><line class="cls-2" x1="12" y1="96" x2="78" y2="30"/><line class="cls-2" x1="-42" y1="60" x2="6" y2="12"/><line class="cls-2" x1="-42" y1="66" x2="12" y2="12"/><line class="cls-2" x1="-42" y1="72" x2="18" y2="12"/><line class="cls-2" x1="-42" y1="78" x2="24" y2="12"/><line class="cls-2" x1="-42" y1="84" x2="30" y2="12"/><line class="cls-2" x1="-42" y1="90" x2="36" y2="12"/><line class="cls-2" x1="-42" y1="96" x2="42" y2="12"/><line class="cls-2" x1="-36" y1="96" x2="42" y2="18"/><line class="cls-2" x1="-30" y1="96" x2="42" y2="24"/><line class="cls-2" x1="-24" y1="96" x2="42" y2="30"/><line class="cls-2" x1="-78" y1="90" y2="12"/><line class="cls-2" x1="-78" y1="96" x2="6" y2="12"/><line class="cls-2" x1="-72" y1="96" x2="6" y2="18"/><line class="cls-2" x1="-66" y1="96" x2="6" y2="24"/><line class="cls-2" x1="-60" y1="96" x2="6" y2="30"/><line class="cls-2" x1="30" y1="30" x2="78" y2="-18"/><line class="cls-2" x1="30" y1="36" x2="84" y2="-18"/><line class="cls-2" x1="30" y1="42" x2="90" y2="-18"/><line class="cls-2" x1="30" y1="48" x2="96" y2="-18"/><line class="cls-2" x1="30" y1="54" x2="102" y2="-18"/><line class="cls-2" x1="30" y1="60" x2="108" y2="-18"/><line class="cls-2" x1="30" y1="66" x2="114" y2="-18"/><line class="cls-2" x1="36" y1="66" x2="114" y2="-12"/><line class="cls-2" x1="-6" y1="30" x2="42" y2="-18"/><line class="cls-2" x1="-6" y1="36" x2="48" y2="-18"/><line class="cls-2" x1="-6" y1="42" x2="54" y2="-18"/><line class="cls-2" x1="-6" y1="48" x2="60" y2="-18"/><line class="cls-2" x1="-6" y1="54" x2="66" y2="-18"/><line class="cls-2" x1="-6" y1="60" x2="72" y2="-18"/><line class="cls-2" x1="-6" y1="66" x2="78" y2="-18"/><line class="cls-2" y1="66" x2="78" y2="-12"/><line class="cls-2" x1="6" y1="66" x2="78" y2="-6"/><line class="cls-2" x1="12" y1="66" x2="78"/><line class="cls-2" x1="18" y1="66" x2="78" y2="6"/><line class="cls-2" x1="24" y1="66" x2="78" y2="12"/><line class="cls-2" x1="30" y1="66" x2="78" y2="18"/><line class="cls-2" x1="36" y1="66" x2="78" y2="24"/><line class="cls-2" x1="-42" y1="30" x2="6" y2="-18"/><line class="cls-2" x1="-42" y1="36" x2="12" y2="-18"/><line class="cls-2" x1="-42" y1="42" x2="18" y2="-18"/><line class="cls-2" x1="-42" y1="48" x2="24" y2="-18"/><line class="cls-2" x1="-42" y1="54" x2="30" y2="-18"/><line class="cls-2" x1="-42" y1="60" x2="36" y2="-18"/><line class="cls-2" x1="-42" y1="66" x2="42" y2="-18"/><line class="cls-2" x1="-36" y1="66" x2="42" y2="-12"/><line class="cls-2" x1="-30" y1="66" x2="42" y2="-6"/><line class="cls-2" x1="-24" y1="66" x2="42"/><line class="cls-2" x1="-18" y1="66" x2="42" y2="6"/><line class="cls-2" x1="-12" y1="66" x2="42" y2="12"/><line class="cls-2" x1="-6" y1="66" x2="42" y2="18"/><line class="cls-2" y1="66" x2="42" y2="24"/><line class="cls-2" x1="6" y1="66" x2="42" y2="30"/><line class="cls-2" x1="-78" y1="60" y2="-18"/><line class="cls-2" x1="-78" y1="66" x2="6" y2="-18"/><line class="cls-2" x1="-72" y1="66" x2="6" y2="-12"/><line class="cls-2" x1="-66" y1="66" x2="6" y2="-6"/><line class="cls-2" x1="-60" y1="66" x2="6"/><line class="cls-2" x1="-54" y1="66" x2="6" y2="6"/><line class="cls-2" x1="-48" y1="66" x2="6" y2="12"/><line class="cls-2" x1="-42" y1="66" x2="6" y2="18"/><line class="cls-2" x1="-36" y1="66" x2="6" y2="24"/><line class="cls-2" x1="-30" y1="66" x2="6" y2="30"/><line class="cls-2" x1="30" x2="78" y2="-48"/><line class="cls-2" x1="30" y1="6" x2="84" y2="-48"/><line class="cls-2" x1="30" y1="12" x2="90" y2="-48"/><line class="cls-2" x1="30" y1="18" x2="96" y2="-48"/><line class="cls-2" x1="30" y1="24" x2="102" y2="-48"/><line class="cls-2" x1="30" y1="30" x2="108" y2="-48"/><line class="cls-2" x1="30" y1="36" x2="114" y2="-48"/><line class="cls-2" x1="36" y1="36" x2="114" y2="-42"/><line class="cls-2" x1="-6" x2="42" y2="-48"/><line class="cls-2" x1="-6" y1="6" x2="48" y2="-48"/><line class="cls-2" x1="-6" y1="12" x2="54" y2="-48"/><line class="cls-2" x1="-6" y1="18" x2="60" y2="-48"/><line class="cls-2" x1="-6" y1="24" x2="66" y2="-48"/><line class="cls-2" x1="-6" y1="30" x2="72" y2="-48"/><line class="cls-2" x1="-6" y1="36" x2="78" y2="-48"/><line class="cls-2" y1="36" x2="78" y2="-42"/><line class="cls-2" x1="6" y1="36" x2="78" y2="-36"/><line class="cls-2" x1="12" y1="36" x2="78" y2="-30"/><line class="cls-2" x1="18" y1="36" x2="78" y2="-24"/><line class="cls-2" x1="24" y1="36" x2="78" y2="-18"/><line class="cls-2" x1="30" y1="36" x2="78" y2="-12"/><line class="cls-2" x1="36" y1="36" x2="78" y2="-6"/><line class="cls-2" x1="-42" x2="6" y2="-48"/><line class="cls-2" x1="-42" y1="6" x2="12" y2="-48"/><line class="cls-2" x1="-42" y1="12" x2="18" y2="-48"/><line class="cls-2" x1="-42" y1="18" x2="24" y2="-48"/><line class="cls-2" x1="-42" y1="24" x2="30" y2="-48"/><line class="cls-2" x1="-42" y1="30" x2="36" y2="-48"/><line class="cls-2" x1="-42" y1="36" x2="42" y2="-48"/><line class="cls-2" x1="-36" y1="36" x2="42" y2="-42"/><line class="cls-2" x1="-30" y1="36" x2="42" y2="-36"/><line class="cls-2" x1="-24" y1="36" x2="42" y2="-30"/><line class="cls-2" x1="-18" y1="36" x2="42" y2="-24"/><line class="cls-2" x1="-12" y1="36" x2="42" y2="-18"/><line class="cls-2" x1="-6" y1="36" x2="42" y2="-12"/><line class="cls-2" y1="36" x2="42" y2="-6"/><line class="cls-2" x1="6" y1="36" x2="42"/><line class="cls-2" x1="12" y1="36" x2="42" y2="6"/><line class="cls-2" x1="18" y1="36" x2="42" y2="12"/><line class="cls-2" x1="24" y1="36" x2="42" y2="18"/><line class="cls-2" x1="30" y1="36" x2="42" y2="24"/><line class="cls-2" x1="-78" y1="30" y2="-48"/><line class="cls-2" x1="-78" y1="36" x2="6" y2="-48"/><line class="cls-2" x1="-72" y1="36" x2="6" y2="-42"/><line class="cls-2" x1="-66" y1="36" x2="6" y2="-36"/><line class="cls-2" x1="-60" y1="36" x2="6" y2="-30"/><line class="cls-2" x1="-54" y1="36" x2="6" y2="-24"/><line class="cls-2" x1="-48" y1="36" x2="6" y2="-18"/><line class="cls-2" x1="-42" y1="36" x2="6" y2="-12"/><line class="cls-2" x1="-36" y1="36" x2="6" y2="-6"/><line class="cls-2" x1="-30" y1="36" x2="6"/><line class="cls-2" x1="-24" y1="36" x2="6" y2="6"/><line class="cls-2" x1="-18" y1="36" x2="6" y2="12"/><line class="cls-2" x1="-12" y1="36" x2="6" y2="18"/><line class="cls-2" x1="-6" y1="36" x2="6" y2="24"/><line class="cls-2" x1="30" x2="108" y2="-78"/><line class="cls-2" x1="30" y1="6" x2="114" y2="-78"/><line class="cls-2" x1="36" y1="6" x2="114" y2="-72"/><line class="cls-2" x1="-6" x2="72" y2="-78"/><line class="cls-2" x1="-6" y1="6" x2="78" y2="-78"/><line class="cls-2" y1="6" x2="78" y2="-72"/><line class="cls-2" x1="6" y1="6" x2="78" y2="-66"/><line class="cls-2" x1="12" y1="6" x2="78" y2="-60"/><line class="cls-2" x1="18" y1="6" x2="78" y2="-54"/><line class="cls-2" x1="24" y1="6" x2="78" y2="-48"/><line class="cls-2" x1="30" y1="6" x2="78" y2="-42"/><line class="cls-2" x1="36" y1="6" x2="78" y2="-36"/><line class="cls-2" x1="-42" x2="36" y2="-78"/><line class="cls-2" x1="-42" y1="6" x2="42" y2="-78"/><line class="cls-2" x1="-36" y1="6" x2="42" y2="-72"/><line class="cls-2" x1="-30" y1="6" x2="42" y2="-66"/><line class="cls-2" x1="-24" y1="6" x2="42" y2="-60"/><line class="cls-2" x1="-18" y1="6" x2="42" y2="-54"/><line class="cls-2" x1="-12" y1="6" x2="42" y2="-48"/><line class="cls-2" x1="-6" y1="6" x2="42" y2="-42"/><line class="cls-2" y1="6" x2="42" y2="-36"/><line class="cls-2" x1="6" y1="6" x2="42" y2="-30"/><line class="cls-2" x1="12" y1="6" x2="42" y2="-24"/><line class="cls-2" x1="18" y1="6" x2="42" y2="-18"/><line class="cls-2" x1="24" y1="6" x2="42" y2="-12"/><line class="cls-2" x1="30" y1="6" x2="42" y2="-6"/><line class="cls-2" x1="-78" y2="-78"/><line class="cls-2" x1="-78" y1="6" x2="6" y2="-78"/><line class="cls-2" x1="-72" y1="6" x2="6" y2="-72"/><line class="cls-2" x1="-66" y1="6" x2="6" y2="-66"/><line class="cls-2" x1="-60" y1="6" x2="6" y2="-60"/><line class="cls-2" x1="-54" y1="6" x2="6" y2="-54"/><line class="cls-2" x1="-48" y1="6" x2="6" y2="-48"/><line class="cls-2" x1="-42" y1="6" x2="6" y2="-42"/><line class="cls-2" x1="-36" y1="6" x2="6" y2="-36"/><line class="cls-2" x1="-30" y1="6" x2="6" y2="-30"/><line class="cls-2" x1="-24" y1="6" x2="6" y2="-24"/><line class="cls-2" x1="-18" y1="6" x2="6" y2="-18"/><line class="cls-2" x1="-12" y1="6" x2="6" y2="-12"/><line class="cls-2" x1="-6" y1="6" x2="6" y2="-6"/></pattern></defs><title>how it works</title><rect class="cls-3" x="89.13" y="92.47" width="845.75" height="411.07"/><g class="cls-4"><rect x="-78.47" y="80.76" width="446.89" height="3" transform="translate(-11.89 138.61) rotate(-49.33)"/><rect x="-39.49" y="135.19" width="590.41" height="3" transform="translate(-14.61 241.56) rotate(-49.33)"/><rect x="-87.85" y="229.72" width="839.68" height="3" transform="translate(-59.74 332.34) rotate(-49.33)"/><rect x="69.65" y="229.72" width="839.68" height="3" transform="translate(-4.88 451.8) rotate(-49.33)"/><rect x="227.15" y="229.72" width="839.68" height="3" transform="translate(49.97 571.26) rotate(-49.33)"/><rect x="384.66" y="229.72" width="839.68" height="3" transform="translate(104.83 690.72) rotate(-49.33)"/><rect x="609.38" y="376.09" width="453.71" height="3" transform="translate(4.86 765.77) rotate(-49.33)"/><rect x="803.5" y="455.84" width="243.42" height="3" transform="translate(-24.64 861.04) rotate(-49.33)"/></g><circle cx="512" cy="298" r="251.66"/><polygon class="cls-5" points="688.61 320.66 369.31 320.66 369.31 121.87 371.31 121.87 371.31 318.66 688.61 318.66 688.61 320.66"/><polygon class="cls-5" points="366.22 125.18 366.95 125.86 370.31 122.25 373.67 125.86 374.4 125.18 370.31 120.78 366.22 125.18"/><polygon class="cls-5" points="685.29 323.75 684.61 323.02 688.22 319.66 684.61 316.3 685.29 315.57 689.69 319.66 685.29 323.75"/><rect x="401.21" y="199.64" width="46.92" height="120.02"/><path class="cls-5" d="M449.13,320.66H400.21v-122h48.92Zm-46.92-2h44.92v-118H402.21Z"/><rect class="cls-6" x="401.21" y="303.83" width="46.92" height="15.83"/><rect x="466.9" y="175.53" width="46.92" height="144.13"/><path class="cls-5" d="M514.82,320.66H465.9V174.53h48.92Zm-46.92-2h44.92V176.53H467.9Z"/><rect x="532.59" y="153.81" width="46.92" height="165.85"/><path class="cls-5" d="M580.51,320.66H531.59V152.81h48.92Zm-46.92-2h44.92V154.81H533.59Z"/><rect x="598.28" y="126.25" width="46.92" height="193.41"/><path class="cls-5" d="M646.21,320.66H597.28V125.25h48.93Zm-46.93-2h44.93V127.25H599.28Z"/><rect class="cls-6" x="466.9" y="303.83" width="46.92" height="15.83"/><rect class="cls-6" x="532.59" y="303.83" width="46.92" height="15.83"/><rect class="cls-6" x="598.28" y="303.83" width="46.92" height="15.83"/><path class="cls-5" d="M395.06,477.29h-2.28V464.84l.27-5.22h0l-6.51,17.67h-2L378,459.62h0l.27,5.22v12.45h-2.28v-19.8h3.69l4.35,12,1.5,5h.06l1.53-4.92,4.32-12.06h3.69Z"/><path class="cls-5" d="M412.67,471.8h-9l-2.1,5.49h-2.52l7.71-19.8h2.85l7.68,19.8h-2.55Zm-.87-2.25-2.67-7-.93-2.76h-.06l-.87,2.67-2.7,7.11Z"/><path class="cls-5" d="M436.88,477.29h-3L425.63,464l-2.1-3.9h0l.12,3.18v14h-2.28v-19.8h3l8.25,13.2,2.13,4h0l-.12-3.18v-14h2.28Z"/><path class="cls-5" d="M454.49,471.8h-9l-2.1,5.49H440.9l7.71-19.8h2.85l7.68,19.8h-2.55Zm-.87-2.25-2.67-7-.93-2.76H450l-.87,2.67-2.7,7.11Z"/><path class="cls-5" d="M478.61,467.3v10h-1.8l-.09-2.67a5.67,5.67,0,0,1-2.44,2.2,8.64,8.64,0,0,1-3.8.77,9.25,9.25,0,0,1-4.86-1.25,8.26,8.26,0,0,1-3.19-3.54,12.15,12.15,0,0,1-1.13-5.41,11.93,11.93,0,0,1,1.16-5.4,8.42,8.42,0,0,1,3.24-3.56,9.25,9.25,0,0,1,4.84-1.24,9.54,9.54,0,0,1,4.85,1.11,8,8,0,0,1,3.07,3.42l-2.19,1.2a5.1,5.1,0,0,0-2.14-2.58,6.81,6.81,0,0,0-3.59-.9,6.43,6.43,0,0,0-3.52,1,6.36,6.36,0,0,0-2.36,2.74,9.91,9.91,0,0,0-.84,4.25,8.89,8.89,0,0,0,1.74,5.86,6.16,6.16,0,0,0,5,2.09,6.51,6.51,0,0,0,4.22-1.32,4.57,4.57,0,0,0,1.63-3.78v-.69h-6.3V467.3Z"/><path class="cls-5" d="M498.56,475v2.25H484.22v-19.8h13.89v2.25H486.62v6.39h8.94v2.25h-8.94V475Z"/><path class="cls-5" d="M522.5,477.29h-2.28V464.84l.27-5.22h0L514,477.29h-2l-6.51-17.67h0l.27,5.22v12.45h-2.28v-19.8h3.69l4.35,12,1.5,5H513l1.53-4.92,4.32-12.06h3.69Z"/><path class="cls-5" d="M543.32,475v2.25H529v-19.8h13.89v2.25H531.38v6.39h8.94v2.25h-8.94V475Z"/><path class="cls-5" d="M563.66,477.29h-3L552.41,464l-2.1-3.9h0l.12,3.18v14h-2.28v-19.8h3l8.25,13.2,2.13,4h0l-.12-3.18v-14h2.28Z"/><path class="cls-5" d="M584.06,459.74h-6.9v17.55h-2.4V459.74h-6.9v-2.25h16.2Z"/><path class="cls-5" d="M600.38,459.74v6.39h8.94v2.25h-8.94v8.91H598v-19.8h13.86v2.25Z"/><path class="cls-5" d="M630.62,475v2.25H616.28v-19.8h13.89v2.25H618.68v6.39h8.94v2.25h-8.94V475Z"/><path class="cls-5" d="M649.76,475v2.25H635.42v-19.8h13.89v2.25H637.82v6.39h8.94v2.25h-8.94V475Z"/><path class="cls-3" d="M410.62,349.22a6.62,6.62,0,0,1,2.55,2.83,10.89,10.89,0,0,1,0,8.67,6.68,6.68,0,0,1-2.55,2.83,8.14,8.14,0,0,1-7.78,0,6.61,6.61,0,0,1-2.55-2.83,10.78,10.78,0,0,1,0-8.67,6.56,6.56,0,0,1,2.55-2.83,8.07,8.07,0,0,1,7.78,0Zm-7.79,2.5a8.32,8.32,0,0,0,0,9.33,5.35,5.35,0,0,0,7.8,0,8.32,8.32,0,0,0,0-9.33,5.32,5.32,0,0,0-7.8,0Z"/><path class="cls-3" d="M429.29,352.3v12h-1.68l-.12-1.82c-.8,1.38-2.23,2.06-4.3,2.06a4.68,4.68,0,0,1-3.18-1.08,4.17,4.17,0,0,1-1.23-3.31V352.3h1.92v7.35a3.47,3.47,0,0,0,.72,2.48,2.82,2.82,0,0,0,2.11.73,3.91,3.91,0,0,0,2.75-1,4,4,0,0,0,1.09-3V352.3Z"/><path class="cls-3" d="M441.7,352.3l-.39,1.88a3.13,3.13,0,0,0-1.51-.32,2.84,2.84,0,0,0-1.5.45,3.22,3.22,0,0,0-1.2,1.34,4.7,4.7,0,0,0-.47,2.17v6.48h-1.92v-12h1.56l.27,2a3.82,3.82,0,0,1,3.84-2.21A2.93,2.93,0,0,1,441.7,352.3Z"/><path class="cls-3" d="M456.34,350.26v5.12h7.15v1.8h-7.15v7.12h-1.92V348.46H465.5v1.8Z"/><path class="cls-3" d="M478.54,359h-9.05a4.34,4.34,0,0,0,1.21,2.84,3.74,3.74,0,0,0,2.7,1,4.81,4.81,0,0,0,2.2-.45,2.37,2.37,0,0,0,1.18-1.32l1.61.84a5,5,0,0,1-1.92,1.94,6.21,6.21,0,0,1-3.07.67,5.55,5.55,0,0,1-4.26-1.65,6.47,6.47,0,0,1-1.55-4.59,6.61,6.61,0,0,1,1.48-4.58,5.33,5.33,0,0,1,4.19-1.66,5.44,5.44,0,0,1,2.9.75,4.78,4.78,0,0,1,1.85,2,6.49,6.49,0,0,1,.62,2.86A9.94,9.94,0,0,1,478.54,359Zm-7.84-4.34a4.28,4.28,0,0,0-1.19,2.64h7.27a4.33,4.33,0,0,0-1.1-2.63,3.22,3.22,0,0,0-2.42-.95A3.56,3.56,0,0,0,470.7,354.68Z"/><path class="cls-3" d="M493.44,359h-9.05a4.39,4.39,0,0,0,1.21,2.84,3.74,3.74,0,0,0,2.7,1,4.79,4.79,0,0,0,2.2-.45,2.43,2.43,0,0,0,1.19-1.32l1.61.84a5,5,0,0,1-1.92,1.94,6.25,6.25,0,0,1-3.08.67,5.58,5.58,0,0,1-4.26-1.65,6.47,6.47,0,0,1-1.54-4.59,6.65,6.65,0,0,1,1.47-4.58,5.34,5.34,0,0,1,4.19-1.66,5.42,5.42,0,0,1,2.9.75,4.72,4.72,0,0,1,1.85,2,6.36,6.36,0,0,1,.63,2.86A10,10,0,0,1,493.44,359Zm-7.84-4.34a4.27,4.27,0,0,0-1.18,2.64h7.27a4.39,4.39,0,0,0-1.11-2.63,3.19,3.19,0,0,0-2.42-.95A3.56,3.56,0,0,0,485.6,354.68Z"/><path class="cls-3" d="M566.56,358.11v6.19h-1.92v-6.19L559,348.46h2.28l4.34,7.68,4.35-7.68h2.28Z"/><path class="cls-3" d="M583.25,353.72a7.56,7.56,0,0,1,0,9.17,6.32,6.32,0,0,1-8.52,0,7.6,7.6,0,0,1,0-9.17,6.3,6.3,0,0,1,8.52,0Zm-7.11,1.22a6,6,0,0,0,0,6.72,3.93,3.93,0,0,0,5.71,0,6,6,0,0,0,0-6.72,4,4,0,0,0-5.71,0Z"/><path class="cls-3" d="M599.87,352.3v12h-1.68l-.12-1.82c-.8,1.38-2.23,2.06-4.29,2.06a4.64,4.64,0,0,1-3.18-1.08,4.14,4.14,0,0,1-1.24-3.31V352.3h1.92v7.35a3.47,3.47,0,0,0,.72,2.48,2.82,2.82,0,0,0,2.11.73,3.62,3.62,0,0,0,3.84-4V352.3Z"/><path class="cls-3" d="M612.28,352.3l-.38,1.88a3.18,3.18,0,0,0-1.52-.32,2.84,2.84,0,0,0-1.5.45,3.36,3.36,0,0,0-1.2,1.34,4.7,4.7,0,0,0-.46,2.17v6.48H605.3v-12h1.56l.26,2a3.82,3.82,0,0,1,3.84-2.21A2.88,2.88,0,0,1,612.28,352.3Z"/><path class="cls-3" d="M629.22,358.11v6.19H627.3v-6.19l-5.66-9.65h2.28l4.34,7.68,4.35-7.68h2.28Z"/><path class="cls-3" d="M638.24,349.6a1.55,1.55,0,1,1,1,.4A1.38,1.38,0,0,1,638.24,349.6Zm2,14.7h-1.92v-12h1.92Z"/><path class="cls-3" d="M655.86,359h-9a4.34,4.34,0,0,0,1.21,2.84,3.71,3.71,0,0,0,2.7,1,4.74,4.74,0,0,0,2.19-.45,2.39,2.39,0,0,0,1.19-1.32l1.61.84a5,5,0,0,1-1.92,1.94,6.21,6.21,0,0,1-3.07.67,5.55,5.55,0,0,1-4.26-1.65,6.47,6.47,0,0,1-1.55-4.59,6.61,6.61,0,0,1,1.48-4.58,5.32,5.32,0,0,1,4.18-1.66,5.48,5.48,0,0,1,2.91.75,4.85,4.85,0,0,1,1.85,2,6.49,6.49,0,0,1,.62,2.86A8.54,8.54,0,0,1,655.86,359ZM648,354.68a4.23,4.23,0,0,0-1.19,2.64h7.27a4.39,4.39,0,0,0-1.1-2.63,3.23,3.23,0,0,0-2.43-.95A3.55,3.55,0,0,0,648,354.68Z"/><path class="cls-3" d="M662.39,361.09a2.05,2.05,0,0,0,.28,1.26,1.24,1.24,0,0,0,1,.35,4.37,4.37,0,0,0,.87-.08,4.59,4.59,0,0,0,.88-.26l-.31,1.85a4.59,4.59,0,0,1-1.78.33,2.76,2.76,0,0,1-2.17-.79,3.55,3.55,0,0,1-.71-2.42V346.78h1.92Z"/><path class="cls-3" d="M679.53,346.78V364.3h-1.68l-.12-2.08a4,4,0,0,1-1.62,1.69,4.9,4.9,0,0,1-2.49.63,5,5,0,0,1-4-1.66,7.81,7.81,0,0,1,0-9.15,5.06,5.06,0,0,1,4-1.67,4.89,4.89,0,0,1,2.37.58,4.29,4.29,0,0,1,1.62,1.54v-7.4Zm-2.94,14.88a4.79,4.79,0,0,0,1-3.21v-.29a4.82,4.82,0,0,0-1-3.22,3.43,3.43,0,0,0-2.75-1.2,3.38,3.38,0,0,0-2.76,1.24,6,6,0,0,0,0,6.65,3.37,3.37,0,0,0,2.76,1.23A3.43,3.43,0,0,0,676.59,361.66Z"/><path class="cls-3" d="M354.15,260v3.79h6.57v1.92H344.88v-6a5.81,5.81,0,0,1,1.25-3.89,4.23,4.23,0,0,1,3.38-1.46,4.39,4.39,0,0,1,2.84.93,4.79,4.79,0,0,1,1.58,2.57l6.79-4.46v2.28Zm-1.8,3.79v-4.06q0-3.36-2.84-3.36c-1.88,0-2.83,1.12-2.83,3.36v4.06Z"/><path class="cls-3" d="M355.44,239.35v9.05a4.39,4.39,0,0,0,2.83-1.21,3.71,3.71,0,0,0,1-2.71,4.74,4.74,0,0,0-.45-2.19,2.39,2.39,0,0,0-1.32-1.19l.84-1.61a5,5,0,0,1,1.94,1.92,6.23,6.23,0,0,1,.67,3.07,5.55,5.55,0,0,1-1.65,4.26,6.44,6.44,0,0,1-4.59,1.55,6.65,6.65,0,0,1-4.58-1.47,5.34,5.34,0,0,1-1.66-4.19,5.42,5.42,0,0,1,.75-2.9,4.72,4.72,0,0,1,2-1.85,6.36,6.36,0,0,1,2.86-.63A8.54,8.54,0,0,1,355.44,239.35Zm-4.34,7.84a4.27,4.27,0,0,0,2.64,1.18V241.1a4.45,4.45,0,0,0-2.63,1.1,3.23,3.23,0,0,0-.95,2.43A3.51,3.51,0,0,0,351.1,247.19Z"/><path class="cls-3" d="M359.88,227.66a4.45,4.45,0,0,1,1.08,3.1,3.55,3.55,0,0,1-.79,2.39,3.07,3.07,0,0,1-2.42.94h-7.37v2.4h-1.66v-2.4h-2.88l-.53-1.92h3.41v-4.44h1.66v4.44h7a1.67,1.67,0,0,0,1.31-.49,1.86,1.86,0,0,0,.44-1.31,2.79,2.79,0,0,0-.89-2Z"/><path class="cls-3" d="M348.72,213.6h12v1.68l-1.82.12c1.38.8,2.06,2.23,2.06,4.29a4.64,4.64,0,0,1-1.08,3.18,4.14,4.14,0,0,1-3.31,1.24h-7.85v-1.92h7.35a3.47,3.47,0,0,0,2.48-.72,2.82,2.82,0,0,0,.73-2.11,3.86,3.86,0,0,0-1-2.75,3.9,3.9,0,0,0-3-1.09h-6.53Z"/><path class="cls-3" d="M348.72,201.19l1.87.38a3.29,3.29,0,0,0-.31,1.51,2.79,2.79,0,0,0,.45,1.5,3.22,3.22,0,0,0,1.34,1.2,4.57,4.57,0,0,0,2.17.47h6.48v1.92h-12v-1.56l2-.26a3.82,3.82,0,0,1-2.21-3.84A2.88,2.88,0,0,1,348.72,201.19Z"/><path class="cls-3" d="M349.66,188.23a4.28,4.28,0,0,1,3.38-1.32h7.68v1.92h-7a3.87,3.87,0,0,0-2.71.8,2.85,2.85,0,0,0-.84,2.15,4,4,0,0,0,.42,1.8A3.31,3.31,0,0,0,352,195a4.78,4.78,0,0,0,2.39.54h6.38v1.92h-12v-1.68l1.87-.12A3.78,3.78,0,0,1,349,194a5.43,5.43,0,0,1-.52-2.38A4.88,4.88,0,0,1,349.66,188.23Z"/><path class="cls-3" d="M360.28,180.65a4.37,4.37,0,0,1-2,2l-1.08-1.56a2.93,2.93,0,0,0,1.58-1.42,5,5,0,0,0,.53-2.38,3.84,3.84,0,0,0-.5-2.16,1.51,1.51,0,0,0-1.27-.74,1.26,1.26,0,0,0-1.12.7,7.83,7.83,0,0,0-.73,2.44,12.25,12.25,0,0,1-.76,2.74,3.2,3.2,0,0,1-1.13,1.46,2.92,2.92,0,0,1-1.69.46,3,3,0,0,1-1.8-.58A4,4,0,0,1,349,180a6.09,6.09,0,0,1-.49-2.5,5.88,5.88,0,0,1,.71-3.08,3.94,3.94,0,0,1,2.17-1.67l1,1.63a3,3,0,0,0-1.65,1.17,3.49,3.49,0,0,0-.51,1.95,3.58,3.58,0,0,0,.53,2,1.47,1.47,0,0,0,1.23.82,1.37,1.37,0,0,0,1.22-.71,7.8,7.8,0,0,0,.74-2.53,8,8,0,0,1,1.23-3.53,2.75,2.75,0,0,1,2.3-1,3,3,0,0,1,1.84.61,4.11,4.11,0,0,1,1.26,1.75,7.23,7.23,0,0,1,.45,2.66A6.94,6.94,0,0,1,360.28,180.65Z"/><rect class="cls-7" x="372.2" y="344.71" width="19.59" height="19.59"/><rect x="533.56" y="344.71" width="19.59" height="19.59"/><path class="cls-5" d="M554.16,365.3h-21.6V343.71h21.6Zm-19.6-2h17.6V345.71h-17.6Z"/></svg>