<svg id="Outlined_all" data-name="Outlined all" xmlns="http://www.w3.org/2000/svg" xmlns:xlink="http://www.w3.org/1999/xlink" viewBox="0 0 1024 600"><defs><style>.cls-1{fill:none;}.cls-2{fill:#fcd869;}.cls-3{clip-path:url(#clip-path);}.cls-4{fill:#fac41c;}.cls-5{clip-path:url(#clip-path-2);}.cls-6{fill:#f9df93;}</style><clipPath id="clip-path"><rect class="cls-1" x="88.87" y="91.63" width="845.75" height="411.07"/></clipPath><clipPath id="clip-path-2"><circle class="cls-1" cx="512" cy="300" r="251.66"/></clipPath></defs><title>how it works</title><rect class="cls-2" x="89.13" y="91.63" width="845.75" height="411.07"/><g class="cls-3"><path d="M600.69,248.92c-41.84,0-86.51-8.32-129.18-24-44.66-16.48-84.07-40.12-114-68.37-22.13-20.93-33.43-43.91-33.58-68.32C323.65,37.5,370.32-12,414.1-54.46l2.08,2.16c-43.32,42-89.52,91-89.21,140.46.15,23.56,11.13,45.82,32.65,66.16,29.59,28,68.64,51.39,112.93,67.73,42.34,15.62,86.65,23.87,128.14,23.87,77.09,0,140.64-15.9,188.89-47.25,78.53-51,115.43-137.6,151.11-221.34,4.39-10.31,8.94-21,13.46-31.31l2.75,1.2c-4.51,10.32-9.06,21-13.45,31.29-35.86,84.15-72.94,171.16-152.24,222.68C742.47,232.86,678.37,248.92,600.69,248.92Z"/><path d="M572.8,445.51c-63.41,0-135.57-16.88-214.47-50.18-84.45-35.63-135.49-95.68-151.72-178.48-8.36-42.7-8.06-86,.89-125.38,10-43.93,30.83-81.47,60.28-108.57l2,2.2c-29.41,27.07-49.39,63.08-59.39,107-8.85,38.92-9.15,81.84-.86,124.13,16,81.76,66.46,141.08,149.93,176.3,78.54,33.14,150.3,49.94,213.31,49.94,92.1,0,172.07-21.64,237.68-64.33,69.11-45,105.14-102.21,123.19-142.32C963.5,169.6,992.42-3.5,992.71-5.25l3,.5c-.29,1.74-29.28,175.23-59.26,241.84-18.22,40.48-54.57,98.25-124.29,143.6C746,423.7,665.49,445.51,572.8,445.51Z"/><path d="M557.22,626c-18.56,0-37.11-.74-55.13-2.2a585.89,585.89,0,0,1-156.21-34.35c-49.24-18.24-95.11-43.89-132.65-74.18-42.63-34.39-74.88-74.5-95.86-119.2-19.79-42.16-29.88-89.38-30-140.35-.11-46,8.27-95,24.22-141.54,17.92-52.28,42-112.5,85.07-162.83l2.28,1.95C156.23,3.2,132.25,63.1,114.43,115.11,98.58,161.36,90.26,210,90.37,255.67c.11,50.53,10.11,97.33,29.71,139.08,20.79,44.29,52.76,84,95,118.15C252.4,543,298,568.47,346.92,586.59a582,582,0,0,0,155.41,34.18c17.94,1.45,36.41,2.19,54.89,2.19,119.55,0,223.37-32.42,308.57-96.37,89.78-67.38,136.6-153.22,160.06-213.36,38.74-99.29,76.28-358.55,76.66-361.16l3,.43c-.37,2.61-38,262.21-76.82,361.82C1005,374.83,957.94,461.18,867.59,529a468.66,468.66,0,0,1-135.53,70.35C678.28,617,619.46,626,557.22,626Z"/><path class="cls-4" d="M555.38,727.31c-78.4,0-153.33-10.73-222.71-31.87-65.72-20-125.4-49.06-177.38-86.25C54.45,537-11.61,437.8-30.7,329.78-40,277.1-33.14,194.79-12.77,115,4.64,46.8,39.58-51.5,107.21-132.62l1.53,1.28C41.36-50.51,6.53,47.5-10.83,115.48-31.13,195-38,277-28.73,329.43-9.73,436.94,56,535.71,156.45,607.56c51.81,37.07,111.29,66,176.81,86,69.18,21.09,143.91,31.79,222.12,31.79,77.17,0,150.1-11.39,216.74-33.84A575.77,575.77,0,0,0,940,602.08c111.93-86.17,170.29-195.93,199.54-272.83,48.26-126.89,95-458,95.47-461.37l2,.28c-.47,3.33-47.25,334.7-95.59,461.8-29.34,77.14-87.89,187.25-200.19,273.71a577.78,577.78,0,0,1-168.46,89.69C705.91,715.89,632.77,727.31,555.38,727.31Z"/></g><g class="cls-5"><circle cx="512" cy="300" r="251.66"/><path class="cls-6" d="M611.43,245.71c-74.73,0-145-15.6-197.84-43.93s-82.11-66.15-82.11-106.35h1c0,82.31,125.14,149.28,278.95,149.28s278.94-67,278.94-149.28h1c0,40.2-29.16,78-82.11,106.35S686.15,245.71,611.43,245.71Z"/><path class="cls-6" d="M584.68,442.92c-81.35,0-154.07-13.16-216.14-39.1C283.6,368.33,232.27,308.52,216,226.07c-8.42-42.56-8.11-85.78.88-125,10-43.73,31-81.1,60.57-108.06l.67.74c-29.43,26.82-50.27,64-60.26,107.55-9,39.05-9.27,82.12-.88,124.55,16.24,82.1,67.38,141.66,152,177,61.95,25.89,134.54,39,215.76,39,93.19,0,174.11-21.7,240.53-64.49,70-45.09,106.47-102.52,124.75-142.75,30.17-66.38,59.39-239.61,59.68-241.35l1,.16c-.29,1.75-29.53,175.11-59.75,241.6-18.34,40.36-54.93,98-125.12,143.18C759.17,421.17,678.06,442.92,584.68,442.92Z"/><polygon points="418.54 241.1 418.54 278.32 607.67 200.21 607.67 165.07 418.54 241.1"/><path class="cls-4" d="M418.54,278.82a.57.57,0,0,1-.28-.08.5.5,0,0,1-.22-.42V241.1a.49.49,0,0,1,.31-.46l189.13-76a.47.47,0,0,1,.47,0,.48.48,0,0,1,.22.41v35.14a.5.5,0,0,1-.31.46L418.73,278.79A.63.63,0,0,1,418.54,278.82Zm.5-37.38v36.14l188.13-77.71V165.81Z"/><polygon class="cls-4" points="418.54 279.04 411.03 277.42 411.03 238.4 418.54 241.1 418.54 279.04"/><polygon class="cls-4" points="411.03 238.4 601.97 162.73 607.67 165.07 418.54 241.65 411.03 238.4"/><path class="cls-4" d="M446.08,415.34a.46.46,0,0,1-.32-.11.5.5,0,0,1-.18-.39V267.22a.51.51,0,0,1,.3-.46l10.42-4.49a.49.49,0,0,1,.47,0,.5.5,0,0,1,.23.42V412.49a.51.51,0,0,1-.39.49l-10.42,2.35Zm.5-147.79V414.22l9.42-2.13V263.49Z"/><path class="cls-4" d="M446.08,415.34l-.18,0-69.42-26a.5.5,0,0,1-.33-.47v-6.3a.52.52,0,0,1,.21-.41.51.51,0,0,1,.46-.06l64.95,23.07a.51.51,0,0,1,.31.64.5.5,0,0,1-.64.3l-64.29-22.83v5.25l69.1,25.85a.5.5,0,0,1-.17,1Z"/><polyline class="cls-4" points="441.61 413.2 441.78 268.78 446.08 267.22 446.08 414.84"/><polygon class="cls-4" points="376.65 382.15 385.05 380.82 442.64 401.85 442.63 406.1 376.65 382.15"/><polygon class="cls-4" points="456.5 403.09 578.25 332.9 584.19 335.12 456.5 406.59 456.5 403.09"/><path class="cls-4" d="M456.5,413a.48.48,0,0,1-.26-.07.5.5,0,0,1-.24-.43v-5.9a.52.52,0,0,1,.25-.44l127.43-71.32-1.81-124.19a.52.52,0,0,1,.32-.47l7.37-2.95a.5.5,0,0,1,.69.47V339.22a.48.48,0,0,1-.26.43L456.74,412.93A.53.53,0,0,1,456.5,413Zm.5-6.11v4.76l132.25-72.72V208.42L582.88,211l1.81,124.14a.51.51,0,0,1-.26.44Z"/><polygon class="cls-4" points="577.31 213.29 582.37 210.64 584.19 335.12 578.25 332.9 577.31 213.29"/><polygon class="cls-4" points="510.84 308.59 519.72 306.86 578.22 328 578.25 332.9 510.84 308.59"/><path class="cls-4" d="M572.85,336.52a.47.47,0,0,1-.17,0l-62-22.67a.5.5,0,0,1-.33-.47v-4.76a.51.51,0,0,1,.21-.41.5.5,0,0,1,.46-.06l67.41,24.31a.49.49,0,0,1,.33.43.5.5,0,0,1-.25.48l-5.4,3.11A.47.47,0,0,1,572.85,336.52ZM511.34,313l61.46,22.47,4.27-2.46L511.34,309.3Z"/><path class="cls-4" d="M457.93,233c1.15.74,1.8,2.15,1.94,4.25a9.55,9.55,0,0,1-.45,3.63,8.14,8.14,0,0,1-1.73,3v0a3.28,3.28,0,0,1,2.47,1.29,6,6,0,0,1,1.07,3.4,9.72,9.72,0,0,1-1.43,5.85,10.86,10.86,0,0,1-4.65,4.12q-3,1.44-4.85.43c-1.25-.68-1.94-2.09-2.09-4.25a10.54,10.54,0,0,1,.56-4.25A9.26,9.26,0,0,1,451,247v0a2.79,2.79,0,0,1-2-1.27,6.09,6.09,0,0,1-.9-3,10.08,10.08,0,0,1,1.24-5.76,8.94,8.94,0,0,1,4.2-3.78Q456.21,231.9,457.93,233Zm-6,5.86a5,5,0,0,0-.52,2.74,2.66,2.66,0,0,0,.86,2.07,1.78,1.78,0,0,0,1.92,0,3.88,3.88,0,0,0,1.83-1.75,5,5,0,0,0,.54-2.7,2.78,2.78,0,0,0-.85-2.1,1.86,1.86,0,0,0-2,0A3.73,3.73,0,0,0,451.92,238.85Zm5.2,13.69a5.31,5.31,0,0,0,.64-3,2.77,2.77,0,0,0-1-2.28,2.35,2.35,0,0,0-2.33.1,4.74,4.74,0,0,0-2.19,2,5.35,5.35,0,0,0-.65,3.06,2.67,2.67,0,0,0,1,2.24,2.38,2.38,0,0,0,2.31-.13A4.86,4.86,0,0,0,457.12,252.54Z"/><path class="cls-4" d="M470.15,227.76a6.94,6.94,0,0,1,1.56,4.48,11.21,11.21,0,0,1-.91,5.49,6.22,6.22,0,0,1-3.14,3.31,2.79,2.79,0,0,1-3.37-.44,6.85,6.85,0,0,1-1.56-4.48,11.48,11.48,0,0,1,.9-5.58,6.1,6.1,0,0,1,3.13-3.29A2.81,2.81,0,0,1,470.15,227.76Zm-4.43,4.49a6.74,6.74,0,0,0-.29,2.69,4.32,4.32,0,0,0,.62,2.27,1,1,0,0,0,1.38.29,2.43,2.43,0,0,0,1.27-1.45,6.36,6.36,0,0,0,.3-2.66,4.42,4.42,0,0,0-.62-2.28,1.05,1.05,0,0,0-1.39-.32A2.34,2.34,0,0,0,465.72,232.25Zm11.61-9,2.83-1.13-9.85,29-2.8,1.27Zm6,10.59a6.54,6.54,0,0,1,1.54,4.35,10.65,10.65,0,0,1-1,5.36,6.25,6.25,0,0,1-3.15,3.23,2.82,2.82,0,0,1-3.37-.4A6.48,6.48,0,0,1,475.9,242a11,11,0,0,1,.92-5.44,6.08,6.08,0,0,1,3.16-3.24A2.89,2.89,0,0,1,483.36,233.83Zm-4.45,4.41a6.26,6.26,0,0,0-.31,2.6,4.25,4.25,0,0,0,.61,2.23,1,1,0,0,0,1.38.29,2.43,2.43,0,0,0,1.28-1.44,6.26,6.26,0,0,0,.31-2.6,4,4,0,0,0-.61-2.21,1.06,1.06,0,0,0-1.38-.28A2.37,2.37,0,0,0,478.91,238.24Z"/><path class="cls-4" d="M509.51,213.08l1.29,23-3.57,1.38-.53-9.68-7.52,2.88.56,9.78-3.55,1.44-1.39-23.49,3.57-1.33.58,9.67,7.53-2.84-.56-9.57Z"/><path class="cls-4" d="M526.26,212l.88,17L524,230.2l-.28-2.87a7,7,0,0,1-4.38,4.92,3.34,3.34,0,0,1-3.41-.25c-.87-.68-1.36-2.09-1.48-4.2l-.63-11.49,3.57-1.25.55,10.24a4.09,4.09,0,0,0,.73,2.6,1.53,1.53,0,0,0,1.73.21,3.93,3.93,0,0,0,2.13-1.94,6.91,6.91,0,0,0,.67-3.73l-.49-9.21Z"/><path class="cls-4" d="M538.87,208l-.24,4.19a2.25,2.25,0,0,0-1.68,0,4,4,0,0,0-2.15,1.92,6.45,6.45,0,0,0-.76,3.66l.42,8.69-3.57,1.25L530,210.79l3.12-1,.41,3.26q.88-4,3.88-5A2.17,2.17,0,0,1,538.87,208Z"/><path class="cls-4" d="M553.26,195.25l1.09,23.67-3.21,1-.29-3a8,8,0,0,1-1.61,3,5.69,5.69,0,0,1-2.57,1.77,3.69,3.69,0,0,1-4.22-.91c-1.07-1.18-1.66-3.13-1.79-5.85a13.84,13.84,0,0,1,1.18-6.9,6.54,6.54,0,0,1,4-3.58,3.49,3.49,0,0,1,2.52.08,3.69,3.69,0,0,1,1.74,1.75l-.49-10Zm-3.52,20.69a8.09,8.09,0,0,0,.65-3.91l0-.33a5.78,5.78,0,0,0-1-3.4,2,2,0,0,0-2.31-.63,3.56,3.56,0,0,0-2.2,2,8.58,8.58,0,0,0-.63,4.08,6.13,6.13,0,0,0,1,3.55,2,2,0,0,0,2.32.6A3.66,3.66,0,0,0,549.74,215.94Z"/><path class="cls-4" d="M561.51,210.52a2.94,2.94,0,0,0,.35,1.54c.2.24.54.29,1,.15a4.87,4.87,0,0,0,.78-.31,7.19,7.19,0,0,0,.77-.51l-.19,3.14a4.39,4.39,0,0,1-1.09.83,7,7,0,0,1-1.34.59,2.81,2.81,0,0,1-2.86-.29c-.62-.59-1-1.72-1-3.41l-.87-19,3.64-1Z"/><path class="cls-4" d="M578.62,202.45l-9.4,2.58c.46,2.16,1.61,3,3.45,2.45a4.21,4.21,0,0,0,1.86-1,3.66,3.66,0,0,0,1-1.75l3,.48a7.53,7.53,0,0,1-2,3.48,8.74,8.74,0,0,1-3.72,2.05c-2.19.63-3.91.4-5.17-.71s-1.94-3-2-5.63a11.55,11.55,0,0,1,1.48-6.67,7.8,7.8,0,0,1,4.85-3.54q3.09-.81,4.85.92t1.91,5.64A14.13,14.13,0,0,1,578.62,202.45Zm-8.68-3.53a6.47,6.47,0,0,0-.88,3l6.19-1.68a4,4,0,0,0-1.12-2.46,2.16,2.16,0,0,0-2.11-.4A3.49,3.49,0,0,0,569.94,198.92Z"/><path d="M710.32,186.44l-43.57,7.94L612,124.54a9,9,0,0,0-4.5-3.07L531.89,84.84l16.33-35.95L493.56,36.66,467.62,84.34,466.75,107h-.16l-25.16,52.33-74.74,7a4.42,4.42,0,0,0-4,4.32s-8.25,44.92.86,47.49c0,0,11.75-14.9,16.25-25.24,2.9-6.66,5.86-8.57,5.86-8.57l78.46,4.18a4.79,4.79,0,0,0,4-1.8l36.57-46.2,95.92,12.34,70.64,66.32s22.3-6.67,28.32-11.36c3.65-2.84,8.77-6,10.86-14.75C710.91,190.91,710.32,186.44,710.32,186.44Z"/><path class="cls-4" d="M671,220.26l-70.83-66.49-95-12.23L468.88,187.3a5.82,5.82,0,0,1-4.83,2.18L386,185.32c-.71.59-3,2.77-5.25,8-4.5,10.34-15.9,24.85-16.39,25.46l-.41.53-.64-.18c-9.66-2.74-2.51-43.52-1.59-48.56a5.44,5.44,0,0,1,4.93-5.22l74.18-6.91,25-52,.86-22.32L493,35.52l56.6,12.66L533.2,84.37l74.68,36.17a10,10,0,0,1,4.92,3.38l54.37,69.37,44-8,.14,1c0,.19.61,4.68.07,6.95-2,8.31-6.53,11.75-10.18,14.52l-1,.79c-6.1,4.74-27.73,11.25-28.65,11.53ZM504.24,139.42,601,151.87,671.49,218c3.46-1.06,22.16-6.91,27.45-11l1-.8c3.4-2.58,7.63-5.78,9.44-13.4a19.82,19.82,0,0,0,0-5.17l-43.1,7.85-55.12-70.32a8,8,0,0,0-4-2.72l-.15-.06L530.57,85.32,546.8,49.6,494.07,37.8,468.62,84.61l-.91,23.31-.47,0-25.15,52.32-75.31,7a3.44,3.44,0,0,0-3.11,3.35l0,.16c-3,16.44-5.66,42.78-.43,46.09,2.23-2.89,11.76-15.49,15.65-24.42,3-6.86,6.1-8.93,6.23-9l.27-.18,78.79,4.2a3.77,3.77,0,0,0,3.15-1.43Z"/><rect class="cls-4" x="635.68" y="181.36" width="18.73" height="1" transform="translate(25.23 436.77) rotate(-38.1)"/><rect class="cls-4" x="633.31" y="178.67" width="18.73" height="1" transform="translate(26.38 434.73) rotate(-38.1)"/><rect class="cls-4" x="655.74" y="201.4" width="16.15" height="1" transform="translate(234.05 746.62) rotate(-68.65)"/><rect class="cls-4" x="677.97" y="190.11" width="1" height="5.42"/><rect class="cls-4" x="674.97" y="190.74" width="1" height="5.42"/><rect class="cls-4" x="680.76" y="189.42" width="1" height="5.42"/><rect class="cls-4" x="683.09" y="188.62" width="1" height="5.42"/><path class="cls-4" d="M708.42,187.39l-.36,3c-2.09,8.77-9,11.95-12.84,14.51C688.36,209.5,667,215.19,667,215.19l4.2,3.95s22.45-6.75,28.32-11.36,12.15-9.14,10.77-21.34Z"/><rect class="cls-4" x="650.36" y="181.95" width="1" height="25.41" transform="translate(52.83 516.95) rotate(-44.97)"/><rect class="cls-4" x="653.08" y="180.16" width="1" height="22.44" transform="translate(37.93 482.54) rotate(-41.63)"/><rect class="cls-4" x="656.28" y="177.83" width="1" height="21.39" transform="translate(22.61 442.96) rotate(-37.88)"/><polyline points="572.52 104.52 555.37 175.19 504.67 140.48"/><polygon class="cls-4" points="556 176.83 504.11 141.3 505.24 139.65 554.74 173.54 571.54 104.29 573.49 104.76 556 176.83"/><polygon class="cls-4" points="467.63 84.34 460.95 103.61 504.67 140.48 555.37 175.19 566.85 127.89 508.37 109.96 467.63 84.34"/><polygon points="555.88 176.88 577.78 149.88 561.96 148.03 555.88 176.88"/><path class="cls-4" d="M555.88,177.38a.54.54,0,0,1-.21,0,.51.51,0,0,1-.28-.55l6.08-28.86a.49.49,0,0,1,.55-.39l15.82,1.86a.52.52,0,0,1,.41.3.5.5,0,0,1-.08.51l-21.9,27A.5.5,0,0,1,555.88,177.38Zm6.48-28.81L556.8,175l20-24.69Z"/><polygon points="435.95 126.2 484.4 165.43 504.67 140.48 468.77 104.52 467.63 84.34 457.34 114.05 435.95 126.2"/><path class="cls-4" d="M484.4,166.43a1,1,0,0,1-.63-.22L435.32,127a1,1,0,0,1-.37-.86,1,1,0,0,1,.5-.79l21.07-12L466.68,84a1,1,0,0,1,1.94.28l1.13,19.79,35.63,35.69a1,1,0,0,1,.07,1.34l-20.27,24.95A1,1,0,0,1,484.4,166.43Zm-46.68-40.08L484.25,164l19.08-23.47-35.27-35.32a1.08,1.08,0,0,1-.29-.65l-.86-15.13-8.63,24.92a1,1,0,0,1-.45.55Z"/><polygon points="435.95 126.2 446.87 148.03 451.36 138.68 435.95 126.2"/><path class="cls-4" d="M446.87,148.52a.5.5,0,0,1-.45-.27L435.5,126.43a.52.52,0,0,1,.13-.62.51.51,0,0,1,.63,0l15.41,12.47a.5.5,0,0,1,.14.61l-4.49,9.34a.5.5,0,0,1-.45.28Zm-9.44-20.47,9.43,18.84,3.88-8.07Z"/><line x1="385.64" y1="184.3" x2="376.99" y2="165.34"/><rect class="cls-4" x="380.81" y="164.4" width="1" height="20.84" transform="translate(-38.16 174.12) rotate(-24.53)"/><path class="cls-4" d="M363.68,216.28c-9.11-2.57,1.36-44.21,6.09-50.27h0s-7.11-1.16-7.52,8.08-3.24,26.13-3.06,31-.8,8.25,2.64,12.84Z"/><rect class="cls-4" x="378.68" y="191.13" width="1" height="5.42" transform="translate(-4.71 378.19) rotate(-52.73)"/><rect class="cls-4" x="379.99" y="188.35" width="1" height="5.42" transform="translate(-2 378.1) rotate(-52.72)"/><rect class="cls-4" x="377.53" y="193.76" width="1" height="5.42" transform="translate(-7.25 378.31) rotate(-52.73)"/><rect class="cls-4" x="376.76" y="196.1" width="1" height="5.42" transform="translate(-9.42 378.62) rotate(-52.73)"/><rect class="cls-4" x="400.07" y="174.42" width="21.53" height="1" transform="translate(172.33 552.42) rotate(-80.78)"/><rect class="cls-4" x="402.8" y="173.3" width="21.53" height="1" transform="translate(175.73 554.16) rotate(-80.78)"/><rect class="cls-4" x="383.49" y="168.15" width="25.15" height="1" transform="translate(-17.27 48.37) rotate(-6.84)"/><rect class="cls-4" x="386" y="173.74" width="21.8" height="1" transform="matrix(1, -0.06, 0.06, 1, -10.4, 25.94)"/><rect class="cls-4" x="395.97" y="169.95" width="1" height="20.45" transform="translate(188.24 562.66) rotate(-85.88)"/><path class="cls-4" d="M381,457.83a6.19,6.19,0,0,1,0,8.79,7,7,0,0,1-4.83,1.63h-4.59V476h-2.4v-19.8h7A7,7,0,0,1,381,457.83Zm-1.78,7.23a4.23,4.23,0,0,0,0-5.67,5.14,5.14,0,0,0-3.41-.95h-4.23V466h4.23A5.14,5.14,0,0,0,379.21,465.06Z"/><path class="cls-4" d="M401.81,473.74V476H387.47v-19.8h13.89v2.25H389.87v6.39h8.94v2.25h-8.94v6.66Z"/><path class="cls-4" d="M413.75,467.77H409V476h-2.4v-19.8h7.5a7.24,7.24,0,0,1,4.86,1.56A5.27,5.27,0,0,1,420.8,462a5.43,5.43,0,0,1-1.17,3.54,6,6,0,0,1-3.21,2L422,476h-2.85ZM409,465.52h5.07q4.2,0,4.2-3.54t-4.2-3.54H409Z"/><path class="cls-4" d="M429,458.44v6.39h8.94v2.25H429V476h-2.4v-19.8h13.86v2.25Z"/><path class="cls-4" d="M457.34,457.14a8.28,8.28,0,0,1,3.2,3.54,13.65,13.65,0,0,1,0,10.83,8.28,8.28,0,0,1-3.2,3.54,10.14,10.14,0,0,1-9.72,0,8.26,8.26,0,0,1-3.19-3.54,13.54,13.54,0,0,1,0-10.83,8.26,8.26,0,0,1,3.19-3.54,10.07,10.07,0,0,1,9.72,0Zm-9.73,3.12a10.41,10.41,0,0,0,0,11.67,6.69,6.69,0,0,0,9.75,0,10.45,10.45,0,0,0,0-11.67,6.67,6.67,0,0,0-9.75,0Z"/><path class="cls-4" d="M474.08,467.77h-4.74V476h-2.4v-19.8h7.5a7.24,7.24,0,0,1,4.86,1.56,5.27,5.27,0,0,1,1.83,4.23,5.43,5.43,0,0,1-1.17,3.54,6,6,0,0,1-3.21,2l5.58,8.49h-2.85Zm-4.74-2.25h5.07q4.2,0,4.2-3.54t-4.2-3.54h-5.07Z"/><path class="cls-4" d="M506,476h-2.28V463.54l.27-5.22h0L497.48,476h-2l-6.51-17.67h0l.27,5.22V476h-2.28v-19.8h3.69l4.35,12,1.5,4.95h.06l1.53-4.92,4.32-12.06H506Z"/><path class="cls-4" d="M523.64,470.5h-9l-2.1,5.49h-2.52l7.71-19.8h2.85l7.68,19.8h-2.55Zm-.87-2.25-2.67-7-.93-2.76h-.06l-.87,2.67-2.7,7.11Z"/><path class="cls-4" d="M547.85,476h-3l-8.28-13.26-2.1-3.9h0l.12,3.18v14h-2.28v-19.8h3l8.25,13.2,2.13,4h0l-.12-3.18v-14h2.28Z"/><path class="cls-4" d="M567.23,474.87a8.64,8.64,0,0,1-4.92,1.42,9.25,9.25,0,0,1-4.86-1.24,8.28,8.28,0,0,1-3.2-3.54,13.63,13.63,0,0,1,0-10.82,8.25,8.25,0,0,1,3.2-3.55,10.11,10.11,0,0,1,9.59-.08,7.11,7.11,0,0,1,2.89,3.45l-2.37,1.11a5.37,5.37,0,0,0-1.92-2.61,5.53,5.53,0,0,0-3.21-.87,6.66,6.66,0,0,0-3.57.95,6.2,6.2,0,0,0-2.37,2.74,10,10,0,0,0-.84,4.26,8.84,8.84,0,0,0,1.78,5.84,6,6,0,0,0,4.88,2.11,6,6,0,0,0,3.48-1,5.56,5.56,0,0,0,2.1-3l2.4.9A7.91,7.91,0,0,1,567.23,474.87Z"/><path class="cls-4" d="M589.25,473.74V476H574.91v-19.8H588.8v2.25H577.31v6.39h8.94v2.25h-8.94v6.66Z"/><path class="cls-4" d="M607,458.44v6.39h8.94v2.25H607V476h-2.4v-19.8h13.86v2.25Z"/><path class="cls-4" d="M637.22,473.74V476H622.88v-19.8h13.89v2.25H625.28v6.39h8.94v2.25h-8.94v6.66Z"/><path class="cls-4" d="M656.36,473.74V476H642v-19.8h13.89v2.25H644.42v6.39h8.94v2.25h-8.94v6.66Z"/></g><path class="cls-4" d="M536,74.51a.38.38,0,0,1-.17,0L483.65,54.91a.5.5,0,0,1-.29-.65A.49.49,0,0,1,484,54l52.21,19.57a.49.49,0,0,1,.29.64A.5.5,0,0,1,536,74.51Z"/><path class="cls-4" d="M538.1,68.41l-.17,0L485.72,48.81a.5.5,0,1,1,.35-.93l52.21,19.56a.5.5,0,0,1,.29.65A.49.49,0,0,1,538.1,68.41Z"/></svg>