<svg id="Outlined_all" data-name="Outlined all" xmlns="http://www.w3.org/2000/svg" viewBox="0 0 721.75 194.07"><defs><style>.cls-1{fill:#979797;}.cls-2{fill:#c1a75b;}.cls-3{fill:#18181b;}.cls-4{fill:#fac41c;}</style></defs><title>Property selection</title><rect class="cls-1" x="401.59" y="36.23" width="49" height="142"/><rect class="cls-2" x="414.59" y="52.23" width="5" height="19"/><rect class="cls-2" x="423.59" y="52.23" width="5" height="19"/><rect class="cls-2" x="432.59" y="52.23" width="5" height="19"/><rect class="cls-2" x="441.59" y="52.23" width="5" height="19"/><rect class="cls-2" x="405.59" y="75.23" width="5" height="19"/><rect class="cls-2" x="414.59" y="75.23" width="5" height="19"/><rect class="cls-2" x="432.59" y="75.23" width="5" height="19"/><rect class="cls-2" x="405.59" y="98.23" width="5" height="19"/><rect class="cls-2" x="414.59" y="98.23" width="5" height="19"/><rect class="cls-2" x="423.59" y="98.23" width="5" height="19"/><rect class="cls-2" x="432.59" y="98.23" width="5" height="19"/><rect class="cls-2" x="441.59" y="98.23" width="5" height="19"/><rect class="cls-2" x="405.59" y="121.23" width="5" height="19"/><rect class="cls-2" x="423.59" y="121.23" width="5" height="19"/><rect class="cls-2" x="432.59" y="121.23" width="5" height="19"/><rect class="cls-2" x="441.59" y="121.23" width="5" height="19"/><rect class="cls-2" x="405.59" y="144.23" width="5" height="19"/><rect class="cls-2" x="414.59" y="144.23" width="5" height="19"/><rect class="cls-2" x="423.59" y="144.23" width="5" height="19"/><rect class="cls-2" x="441.59" y="144.23" width="5" height="19"/><rect class="cls-1" x="200.59" y="63.73" width="39" height="113"/><rect class="cls-2" x="203.59" y="76.73" width="5" height="7"/><rect class="cls-2" x="218.59" y="76.73" width="4" height="7"/><rect class="cls-2" x="225.59" y="76.73" width="4" height="7"/><rect class="cls-2" x="233.59" y="76.73" width="3" height="7"/><rect class="cls-2" x="203.59" y="85.73" width="5" height="8"/><rect class="cls-2" x="211.59" y="85.73" width="4" height="8"/><rect class="cls-2" x="218.59" y="85.73" width="4" height="8"/><rect class="cls-2" x="233.59" y="85.73" width="3" height="8"/><rect class="cls-2" x="203.59" y="94.73" width="5" height="8"/><rect class="cls-2" x="218.59" y="94.73" width="4" height="8"/><rect class="cls-2" x="225.59" y="94.73" width="4" height="8"/><rect class="cls-2" x="233.59" y="94.73" width="3" height="8"/><rect class="cls-2" x="203.59" y="104.73" width="5" height="8"/><rect class="cls-2" x="211.59" y="104.73" width="4" height="8"/><rect class="cls-2" x="218.59" y="104.73" width="4" height="8"/><rect class="cls-2" x="225.59" y="104.73" width="4" height="8"/><rect class="cls-2" x="233.59" y="104.73" width="3" height="8"/><rect class="cls-2" x="203.59" y="113.73" width="5" height="8"/><rect class="cls-2" x="218.59" y="113.73" width="4" height="8"/><rect class="cls-2" x="233.59" y="113.73" width="3" height="8"/><rect class="cls-2" x="203.59" y="123.73" width="5" height="8"/><rect class="cls-2" x="218.59" y="123.73" width="4" height="8"/><rect class="cls-2" x="225.59" y="123.73" width="4" height="8"/><rect class="cls-2" x="233.59" y="123.73" width="3" height="8"/><rect class="cls-2" x="203.59" y="132.73" width="5" height="7"/><rect class="cls-2" x="211.59" y="132.73" width="4" height="7"/><rect class="cls-2" x="218.59" y="132.73" width="4" height="7"/><rect class="cls-2" x="233.59" y="132.73" width="3" height="7"/><rect class="cls-2" x="218.59" y="141.73" width="4" height="8"/><rect class="cls-2" x="225.59" y="141.73" width="4" height="8"/><rect class="cls-2" x="203.59" y="150.73" width="5" height="9"/><rect class="cls-2" x="211.59" y="150.73" width="4" height="9"/><rect class="cls-2" x="218.59" y="150.73" width="4" height="9"/><rect class="cls-2" x="225.59" y="150.73" width="4" height="9"/><rect class="cls-2" x="233.59" y="150.73" width="3" height="9"/><rect class="cls-2" x="203.59" y="160.73" width="5" height="8"/><rect class="cls-2" x="218.59" y="160.73" width="4" height="8"/><rect class="cls-2" x="233.59" y="160.73" width="3" height="8"/><rect class="cls-1" x="244.59" y="49.23" width="44" height="128"/><rect class="cls-2" x="256.59" y="64.23" width="4" height="17"/><rect class="cls-2" x="272.59" y="64.23" width="4" height="17"/><rect class="cls-2" x="280.59" y="64.23" width="4" height="17"/><rect class="cls-2" x="256.59" y="85.23" width="4" height="17"/><rect class="cls-2" x="264.59" y="85.23" width="4" height="17"/><rect class="cls-2" x="280.59" y="85.23" width="4" height="17"/><rect class="cls-2" x="256.59" y="105.23" width="4" height="17"/><rect class="cls-2" x="272.59" y="105.23" width="4" height="17"/><rect class="cls-2" x="280.59" y="105.23" width="4" height="17"/><rect class="cls-2" x="256.59" y="126.23" width="4" height="17"/><rect class="cls-2" x="264.59" y="126.23" width="4" height="17"/><rect class="cls-2" x="280.59" y="126.23" width="4" height="17"/><rect class="cls-2" x="264.59" y="146.23" width="4" height="18"/><rect class="cls-2" x="280.59" y="146.23" width="4" height="18"/><polygon class="cls-1" points="492.59 30.73 454.59 16.73 454.59 176.73 492.59 176.73 492.59 30.73"/><rect class="cls-2" x="458.59" y="39.73" width="30" height="3"/><rect class="cls-2" x="458.59" y="45.73" width="30" height="3"/><rect class="cls-2" x="458.59" y="51.73" width="30" height="3"/><rect class="cls-2" x="458.59" y="57.73" width="30" height="3"/><rect class="cls-2" x="458.59" y="63.73" width="30" height="3"/><rect class="cls-2" x="458.59" y="69.73" width="30" height="3"/><rect class="cls-2" x="458.59" y="75.73" width="30" height="3"/><rect class="cls-2" x="458.59" y="81.73" width="30" height="3"/><rect class="cls-2" x="458.59" y="93.73" width="30" height="3"/><rect class="cls-2" x="458.59" y="99.73" width="30" height="3"/><rect class="cls-2" x="458.59" y="105.73" width="30" height="3"/><rect class="cls-2" x="458.59" y="111.73" width="30" height="3"/><rect class="cls-2" x="458.59" y="117.73" width="30" height="3"/><rect class="cls-2" x="458.59" y="123.73" width="30" height="3"/><rect class="cls-2" x="458.59" y="129.73" width="30" height="3"/><rect class="cls-2" x="458.59" y="135.73" width="30" height="3"/><rect class="cls-2" x="458.59" y="147.73" width="30" height="3"/><rect class="cls-2" x="458.59" y="153.73" width="30" height="3"/><rect class="cls-2" x="458.59" y="159.73" width="30" height="3"/><path class="cls-1" d="M326.43,34.73v-12h-28v12h-5v142h49v-142Zm-21,124h-7v-7h7Zm0-10h-7v-7h7Zm0-20h-7v-7h7Zm0-10h-7v-7h7Zm0-10h-7v-7h7Zm0-10h-7v-7h7Zm0-20h-7v-7h7Zm0-10h-7v-7h7Zm0-10h-7v-7h7Zm10,90h-6v-7h6Zm0-10h-6v-7h6Zm0-10h-6v-7h6Zm0-10h-6v-7h6Zm0-10h-6v-7h6Zm0-10h-6v-7h6Zm0-10h-6v-7h6Zm0-10h-6v-7h6Zm0-20h-6v-7h6Zm11,100h-6v-7h6Zm0-10h-6v-7h6Zm0-10h-6v-7h6Zm0-10h-6v-7h6Zm0-20h-6v-7h6Zm0-10h-6v-7h6Zm0-10h-6v-7h6Zm0-10h-6v-7h6Zm0-10h-6v-7h6Zm0-10h-6v-7h6Zm10,100h-6v-7h6Zm0-20h-6v-7h6Zm0-10h-6v-7h6Zm0-10h-6v-7h6Zm0-10h-6v-7h6Zm0-10h-6v-7h6Zm0-10h-6v-7h6Zm0-10h-6v-7h6Zm0-20h-6v-7h6Z"/><rect class="cls-2" x="298.43" y="51.73" width="7" height="7"/><rect class="cls-2" x="309.43" y="51.73" width="6" height="7"/><rect class="cls-2" x="320.43" y="51.73" width="6" height="7"/><rect class="cls-2" x="330.43" y="51.73" width="6" height="7"/><rect class="cls-2" x="298.43" y="61.73" width="7" height="7"/><rect class="cls-2" x="320.43" y="61.73" width="6" height="7"/><rect class="cls-2" x="298.43" y="71.73" width="7" height="7"/><rect class="cls-2" x="309.43" y="71.73" width="6" height="7"/><rect class="cls-2" x="320.43" y="71.73" width="6" height="7"/><rect class="cls-2" x="330.43" y="71.73" width="6" height="7"/><rect class="cls-2" x="309.43" y="81.73" width="6" height="7"/><rect class="cls-2" x="320.43" y="81.73" width="6" height="7"/><rect class="cls-2" x="330.43" y="81.73" width="6" height="7"/><rect class="cls-2" x="298.43" y="91.73" width="7" height="7"/><rect class="cls-2" x="309.43" y="91.73" width="6" height="7"/><rect class="cls-2" x="320.43" y="91.73" width="6" height="7"/><rect class="cls-2" x="330.43" y="91.73" width="6" height="7"/><rect class="cls-2" x="298.43" y="101.73" width="7" height="7"/><rect class="cls-2" x="309.43" y="101.73" width="6" height="7"/><rect class="cls-2" x="320.43" y="101.73" width="6" height="7"/><rect class="cls-2" x="330.43" y="101.73" width="6" height="7"/><rect class="cls-2" x="298.43" y="111.73" width="7" height="7"/><rect class="cls-2" x="309.43" y="111.73" width="6" height="7"/><rect class="cls-2" x="330.43" y="111.73" width="6" height="7"/><rect class="cls-2" x="298.43" y="121.73" width="7" height="7"/><rect class="cls-2" x="309.43" y="121.73" width="6" height="7"/><rect class="cls-2" x="320.43" y="121.73" width="6" height="7"/><rect class="cls-2" x="330.43" y="121.73" width="6" height="7"/><rect class="cls-2" x="309.43" y="131.73" width="6" height="7"/><rect class="cls-2" x="320.43" y="131.73" width="6" height="7"/><rect class="cls-2" x="330.43" y="131.73" width="6" height="7"/><rect class="cls-2" x="298.43" y="141.73" width="7" height="7"/><rect class="cls-2" x="309.43" y="141.73" width="6" height="7"/><rect class="cls-2" x="320.43" y="141.73" width="6" height="7"/><rect class="cls-2" x="298.43" y="151.73" width="7" height="7"/><rect class="cls-2" x="320.43" y="151.73" width="6" height="7"/><rect class="cls-2" x="330.43" y="151.73" width="6" height="7"/><path class="cls-3" d="M389.59,54.73v-16h-15v-20h-5v20h-14v16h-8v122h49v-122Zm-11-11h5v10h-5Zm-9,8v-8h5v10h-5Zm-9-8h5v10h-5Zm-4,117h-5v-10h5Zm0-15h-5v-10h5Zm0-15h-5v-10h5Zm0-15h-5v-10h5Zm0-15h-5v-10h5Zm0-15h-5v-10h5Zm0-15h-5v-10h5Zm9,90h-5v-10h5Zm0-15h-5v-10h5Zm0-30h-5v-10h5Zm0-30h-5v-10h5Zm0-15h-5v-10h5Zm9,90h-5v-10h5Zm0-30h-5v-10h5Zm0-15h-5v-10h5Zm0-15h-5v-10h5Zm0-15h-5v-10h5Zm0-15h-5v-10h5Zm9,90h-5v-10h5Zm0-15h-5v-10h5Zm0-15h-5v-10h5Zm0-15h-5v-10h5Zm0-15h-5v-10h5Zm0-30h-5v-10h5Zm9,90h-5v-10h5Zm0-15h-5v-10h5Zm0-15h-5v-10h5Zm0-15h-5v-10h5Zm0-15h-5v-10h5Zm0-15h-5v-10h5Zm0-15h-5v-10h5Z"/><rect class="cls-4" x="351.59" y="60.73" width="5" height="10"/><rect class="cls-4" x="360.59" y="60.73" width="5" height="10"/><rect class="cls-4" x="369.59" y="60.73" width="5" height="10"/><rect class="cls-4" x="378.59" y="60.73" width="5" height="10"/><rect class="cls-4" x="387.59" y="60.73" width="5" height="10"/><rect class="cls-4" x="351.59" y="75.73" width="5" height="10"/><rect class="cls-4" x="360.59" y="75.73" width="5" height="10"/><rect class="cls-4" x="369.59" y="75.73" width="5" height="10"/><rect class="cls-4" x="387.59" y="75.73" width="5" height="10"/><rect class="cls-4" x="351.59" y="90.73" width="5" height="10"/><rect class="cls-4" x="369.59" y="90.73" width="5" height="10"/><rect class="cls-4" x="378.59" y="90.73" width="5" height="10"/><rect class="cls-4" x="387.59" y="90.73" width="5" height="10"/><rect class="cls-4" x="351.59" y="105.73" width="5" height="10"/><rect class="cls-4" x="360.59" y="105.73" width="5" height="10"/><rect class="cls-4" x="369.59" y="105.73" width="5" height="10"/><rect class="cls-4" x="378.59" y="105.73" width="5" height="10"/><rect class="cls-4" x="387.59" y="105.73" width="5" height="10"/><rect class="cls-4" x="351.59" y="120.73" width="5" height="10"/><rect class="cls-4" x="369.59" y="120.73" width="5" height="10"/><rect class="cls-4" x="378.59" y="120.73" width="5" height="10"/><rect class="cls-4" x="387.59" y="120.73" width="5" height="10"/><rect class="cls-4" x="351.59" y="135.73" width="5" height="10"/><rect class="cls-4" x="360.59" y="135.73" width="5" height="10"/><rect class="cls-4" x="378.59" y="135.73" width="5" height="10"/><rect class="cls-4" x="387.59" y="135.73" width="5" height="10"/><rect class="cls-4" x="351.59" y="150.73" width="5" height="10"/><rect class="cls-4" x="360.59" y="150.73" width="5" height="10"/><rect class="cls-4" x="369.59" y="150.73" width="5" height="10"/><rect class="cls-4" x="378.59" y="150.73" width="5" height="10"/><rect class="cls-4" x="387.59" y="150.73" width="5" height="10"/><rect class="cls-4" x="360.59" y="43.73" width="5" height="10"/><polygon class="cls-4" points="374.59 51.73 374.59 43.73 369.59 43.73 369.59 51.73 369.59 53.73 374.59 53.73 374.59 51.73"/><rect class="cls-4" x="378.59" y="43.73" width="5" height="10"/><rect class="cls-1" x="544.59" y="105.73" width="36" height="72"/><rect class="cls-2" x="548.59" y="110.73" width="12" height="3"/><rect class="cls-2" x="565.34" y="110.73" width="11.25" height="3"/><rect class="cls-2" x="548.59" y="118.73" width="12" height="3"/><rect class="cls-2" x="565.34" y="118.73" width="11.25" height="3"/><rect class="cls-2" x="548.59" y="126.73" width="12" height="3"/><rect class="cls-2" x="565.34" y="126.73" width="11.25" height="3"/><rect class="cls-2" x="548.59" y="134.73" width="12" height="3"/><rect class="cls-2" x="565.34" y="134.73" width="11.25" height="3"/><rect class="cls-2" x="565.34" y="142.73" width="11.25" height="3"/><rect class="cls-2" x="548.59" y="142.73" width="12" height="3"/><rect class="cls-2" x="548.59" y="150.73" width="12" height="3"/><rect class="cls-2" x="565.34" y="150.73" width="11.25" height="3"/><rect class="cls-2" x="548.59" y="158.73" width="12" height="3"/><rect class="cls-2" x="565.34" y="158.73" width="11.25" height="3"/><rect class="cls-1" x="119.59" y="105.73" width="36" height="72"/><rect class="cls-2" x="124.22" y="110.73" width="7.18" height="3"/><rect class="cls-2" x="134.23" y="110.73" width="6.73" height="3"/><rect class="cls-2" x="134.23" y="118.73" width="6.73" height="3"/><rect class="cls-2" x="124.22" y="126.73" width="7.18" height="3"/><rect class="cls-2" x="134.23" y="126.73" width="6.73" height="3"/><rect class="cls-2" x="124.22" y="134.73" width="7.18" height="3"/><rect class="cls-2" x="134.23" y="134.73" width="6.73" height="3"/><rect class="cls-2" x="134.23" y="142.73" width="6.73" height="3"/><rect class="cls-2" x="124.22" y="150.73" width="7.18" height="3"/><rect class="cls-2" x="134.23" y="150.73" width="6.73" height="3"/><rect class="cls-2" x="124.22" y="158.73" width="7.18" height="3"/><rect class="cls-2" x="143.22" y="110.73" width="7.18" height="3"/><rect class="cls-2" x="143.22" y="118.73" width="7.18" height="3"/><rect class="cls-2" x="143.22" y="134.73" width="7.18" height="3"/><rect class="cls-2" x="143.22" y="142.73" width="7.18" height="3"/><rect class="cls-2" x="143.22" y="150.73" width="7.18" height="3"/><rect class="cls-2" x="134.23" y="158.73" width="6.73" height="3"/><rect class="cls-1" x="584.02" y="121.73" width="28" height="56"/><rect class="cls-2" x="587.62" y="125.62" width="5.58" height="2.33"/><rect class="cls-2" x="595.41" y="125.62" width="5.23" height="2.33"/><rect class="cls-2" x="595.41" y="131.84" width="5.23" height="2.33"/><rect class="cls-2" x="587.62" y="138.07" width="5.58" height="2.33"/><rect class="cls-2" x="595.41" y="138.07" width="5.23" height="2.33"/><rect class="cls-2" x="587.62" y="144.29" width="5.58" height="2.33"/><rect class="cls-2" x="595.41" y="144.29" width="5.23" height="2.33"/><rect class="cls-2" x="595.41" y="150.51" width="5.23" height="2.33"/><rect class="cls-2" x="587.62" y="156.73" width="5.58" height="2.33"/><rect class="cls-2" x="595.41" y="156.73" width="5.23" height="2.33"/><rect class="cls-2" x="587.62" y="162.96" width="5.58" height="2.33"/><rect class="cls-2" x="602.4" y="125.62" width="5.58" height="2.33"/><rect class="cls-2" x="602.4" y="131.84" width="5.58" height="2.33"/><rect class="cls-2" x="602.4" y="144.29" width="5.58" height="2.33"/><rect class="cls-2" x="602.4" y="150.51" width="5.58" height="2.33"/><rect class="cls-2" x="602.4" y="156.73" width="5.58" height="2.33"/><rect class="cls-2" x="595.41" y="162.96" width="5.23" height="2.33"/><path class="cls-1" d="M170.59,93.73v1h-5v-1h-6v83h36v-83Zm21,64h-28v-3h28Zm0-8h-28v-3h28Zm0-8h-28v-3h28Zm0-8h-28v-3h28Zm0-8h-28v-3h28Zm0-8h-28v-3h28Zm0-8h-28v-3h28Zm0-8h-28v-3h28Z"/><rect class="cls-2" x="163.59" y="98.73" width="28" height="3"/><rect class="cls-2" x="163.59" y="106.73" width="28" height="3"/><rect class="cls-2" x="163.59" y="114.73" width="28" height="3"/><rect class="cls-2" x="163.59" y="122.73" width="28" height="3"/><rect class="cls-2" x="163.59" y="130.73" width="28" height="3"/><rect class="cls-2" x="163.59" y="138.73" width="28" height="3"/><rect class="cls-2" x="163.59" y="146.73" width="28" height="3"/><rect class="cls-2" x="163.59" y="154.73" width="28" height="3"/><polygon class="cls-1" points="170.59 94.73 170.59 93.73 170.59 84.73 165.59 84.73 165.59 93.73 165.59 94.73 170.59 94.73"/><path class="cls-1" d="M520.59,94.73v-8h-5v8h-3v-13h-5v13h-11v83h44v-83Zm0,76h-4v-5h4Zm0-7h-4v-5h4Zm0-7h-4v-5h4Zm0-7h-4v-5h4Zm0-7h-4v-5h4Zm0-7h-4v-5h4Zm0-7h-4v-5h4Zm0-7h-4v-5h4Zm0-7h-4v-5h4Zm0-7h-4v-5h4Zm8,63h-4v-5h4Zm0-7h-4v-5h4Zm0-7h-4v-5h4Zm0-7h-4v-5h4Zm0-7h-4v-5h4Zm0-7h-4v-5h4Zm0-7h-4v-5h4Zm0-7h-4v-5h4Zm0-7h-4v-5h4Zm0-7h-4v-5h4Z"/><rect class="cls-2" x="524.59" y="102.73" width="4" height="5"/><rect class="cls-2" x="524.59" y="109.73" width="4" height="5"/><rect class="cls-2" x="524.59" y="116.73" width="4" height="5"/><rect class="cls-2" x="524.59" y="123.73" width="4" height="5"/><rect class="cls-2" x="524.59" y="130.73" width="4" height="5"/><rect class="cls-2" x="524.59" y="137.73" width="4" height="5"/><rect class="cls-2" x="524.59" y="144.73" width="4" height="5"/><rect class="cls-2" x="524.59" y="151.73" width="4" height="5"/><rect class="cls-2" x="524.59" y="158.73" width="4" height="5"/><rect class="cls-2" x="524.59" y="165.73" width="4" height="5"/><rect class="cls-2" x="516.59" y="102.73" width="4" height="5"/><rect class="cls-2" x="516.59" y="109.73" width="4" height="5"/><rect class="cls-2" x="516.59" y="116.73" width="4" height="5"/><rect class="cls-2" x="516.59" y="123.73" width="4" height="5"/><rect class="cls-2" x="516.59" y="130.73" width="4" height="5"/><rect class="cls-2" x="516.59" y="137.73" width="4" height="5"/><rect class="cls-2" x="516.59" y="144.73" width="4" height="5"/><rect class="cls-2" x="516.59" y="151.73" width="4" height="5"/><rect class="cls-2" x="516.59" y="158.73" width="4" height="5"/><rect class="cls-2" x="516.59" y="165.73" width="4" height="5"/><rect class="cls-3" x="27.59" y="175.73" width="669" height="4"/></svg>