<svg id="Outlined_all" data-name="Outlined all" xmlns="http://www.w3.org/2000/svg" viewBox="0 0 721.75 194.07"><defs><style>.cls-1{fill:#979797;}.cls-2{fill:#c1a75b;}.cls-3{fill:#18181b;}.cls-4{fill:#fac41c;}</style></defs><title>Property selection</title><rect class="cls-1" x="200.59" y="63.38" width="39" height="113"/><rect class="cls-2" x="203.59" y="76.38" width="5" height="7"/><rect class="cls-2" x="218.59" y="76.38" width="4" height="7"/><rect class="cls-2" x="225.59" y="76.38" width="4" height="7"/><rect class="cls-2" x="233.59" y="76.38" width="3" height="7"/><rect class="cls-2" x="203.59" y="85.38" width="5" height="8"/><rect class="cls-2" x="211.59" y="85.38" width="4" height="8"/><rect class="cls-2" x="218.59" y="85.38" width="4" height="8"/><rect class="cls-2" x="233.59" y="85.38" width="3" height="8"/><rect class="cls-2" x="203.59" y="94.38" width="5" height="8"/><rect class="cls-2" x="218.59" y="94.38" width="4" height="8"/><rect class="cls-2" x="225.59" y="94.38" width="4" height="8"/><rect class="cls-2" x="233.59" y="94.38" width="3" height="8"/><rect class="cls-2" x="203.59" y="104.38" width="5" height="8"/><rect class="cls-2" x="211.59" y="104.38" width="4" height="8"/><rect class="cls-2" x="218.59" y="104.38" width="4" height="8"/><rect class="cls-2" x="225.59" y="104.38" width="4" height="8"/><rect class="cls-2" x="233.59" y="104.38" width="3" height="8"/><rect class="cls-2" x="203.59" y="113.38" width="5" height="8"/><rect class="cls-2" x="218.59" y="113.38" width="4" height="8"/><rect class="cls-2" x="233.59" y="113.38" width="3" height="8"/><rect class="cls-2" x="203.59" y="123.38" width="5" height="8"/><rect class="cls-2" x="218.59" y="123.38" width="4" height="8"/><rect class="cls-2" x="225.59" y="123.38" width="4" height="8"/><rect class="cls-2" x="233.59" y="123.38" width="3" height="8"/><rect class="cls-2" x="203.59" y="132.38" width="5" height="7"/><rect class="cls-2" x="211.59" y="132.38" width="4" height="7"/><rect class="cls-2" x="218.59" y="132.38" width="4" height="7"/><rect class="cls-2" x="233.59" y="132.38" width="3" height="7"/><rect class="cls-2" x="218.59" y="141.38" width="4" height="8"/><rect class="cls-2" x="225.59" y="141.38" width="4" height="8"/><rect class="cls-2" x="203.59" y="150.38" width="5" height="9"/><rect class="cls-2" x="211.59" y="150.38" width="4" height="9"/><rect class="cls-2" x="218.59" y="150.38" width="4" height="9"/><rect class="cls-2" x="225.59" y="150.38" width="4" height="9"/><rect class="cls-2" x="233.59" y="150.38" width="3" height="9"/><rect class="cls-2" x="203.59" y="160.38" width="5" height="8"/><rect class="cls-2" x="218.59" y="160.38" width="4" height="8"/><rect class="cls-2" x="233.59" y="160.38" width="3" height="8"/><rect class="cls-3" x="401.59" y="35.88" width="49" height="142"/><rect class="cls-4" x="414.59" y="51.88" width="5" height="19"/><rect class="cls-4" x="423.59" y="51.88" width="5" height="19"/><rect class="cls-4" x="432.59" y="51.88" width="5" height="19"/><rect class="cls-4" x="441.59" y="51.88" width="5" height="19"/><rect class="cls-4" x="405.59" y="74.88" width="5" height="19"/><rect class="cls-4" x="414.59" y="74.88" width="5" height="19"/><rect class="cls-4" x="432.59" y="74.88" width="5" height="19"/><rect class="cls-4" x="405.59" y="97.88" width="5" height="19"/><rect class="cls-4" x="414.59" y="97.88" width="5" height="19"/><rect class="cls-4" x="423.59" y="97.88" width="5" height="19"/><rect class="cls-4" x="432.59" y="97.88" width="5" height="19"/><rect class="cls-4" x="441.59" y="97.88" width="5" height="19"/><rect class="cls-4" x="405.59" y="120.88" width="5" height="19"/><rect class="cls-4" x="423.59" y="120.88" width="5" height="19"/><rect class="cls-4" x="432.59" y="120.88" width="5" height="19"/><rect class="cls-4" x="441.59" y="120.88" width="5" height="19"/><rect class="cls-4" x="405.59" y="143.88" width="5" height="19"/><rect class="cls-4" x="414.59" y="143.88" width="5" height="19"/><rect class="cls-4" x="423.59" y="143.88" width="5" height="19"/><rect class="cls-4" x="441.59" y="143.88" width="5" height="19"/><rect class="cls-3" x="244.59" y="48.88" width="44" height="128"/><rect class="cls-4" x="256.59" y="63.88" width="4" height="17"/><rect class="cls-4" x="272.59" y="63.88" width="4" height="17"/><rect class="cls-4" x="280.59" y="63.88" width="4" height="17"/><rect class="cls-4" x="256.59" y="84.88" width="4" height="17"/><rect class="cls-4" x="264.59" y="84.88" width="4" height="17"/><rect class="cls-4" x="280.59" y="84.88" width="4" height="17"/><rect class="cls-4" x="256.59" y="104.88" width="4" height="17"/><rect class="cls-4" x="272.59" y="104.88" width="4" height="17"/><rect class="cls-4" x="280.59" y="104.88" width="4" height="17"/><rect class="cls-4" x="256.59" y="125.88" width="4" height="17"/><rect class="cls-4" x="264.59" y="125.88" width="4" height="17"/><rect class="cls-4" x="280.59" y="125.88" width="4" height="17"/><rect class="cls-4" x="264.59" y="145.88" width="4" height="18"/><rect class="cls-4" x="280.59" y="145.88" width="4" height="18"/><polygon class="cls-3" points="492.59 30.38 454.59 16.38 454.59 176.38 492.59 176.38 492.59 30.38"/><rect class="cls-4" x="458.59" y="39.38" width="30" height="3"/><rect class="cls-4" x="458.59" y="45.38" width="30" height="3"/><rect class="cls-4" x="458.59" y="51.38" width="30" height="3"/><rect class="cls-4" x="458.59" y="57.38" width="30" height="3"/><rect class="cls-4" x="458.59" y="63.38" width="30" height="3"/><rect class="cls-4" x="458.59" y="69.38" width="30" height="3"/><rect class="cls-4" x="458.59" y="75.38" width="30" height="3"/><rect class="cls-4" x="458.59" y="81.38" width="30" height="3"/><rect class="cls-4" x="458.59" y="93.38" width="30" height="3"/><rect class="cls-4" x="458.59" y="99.38" width="30" height="3"/><rect class="cls-4" x="458.59" y="105.38" width="30" height="3"/><rect class="cls-4" x="458.59" y="111.38" width="30" height="3"/><rect class="cls-4" x="458.59" y="117.38" width="30" height="3"/><rect class="cls-4" x="458.59" y="123.38" width="30" height="3"/><rect class="cls-4" x="458.59" y="129.38" width="30" height="3"/><rect class="cls-4" x="458.59" y="135.38" width="30" height="3"/><rect class="cls-4" x="458.59" y="147.38" width="30" height="3"/><rect class="cls-4" x="458.59" y="153.38" width="30" height="3"/><rect class="cls-4" x="458.59" y="159.38" width="30" height="3"/><path class="cls-3" d="M326.43,34.38v-12h-28v12h-5v142h49v-142Zm-21,124h-7v-7h7Zm0-10h-7v-7h7Zm0-20h-7v-7h7Zm0-10h-7v-7h7Zm0-10h-7v-7h7Zm0-10h-7v-7h7Zm0-20h-7v-7h7Zm0-10h-7v-7h7Zm0-10h-7v-7h7Zm10,90h-6v-7h6Zm0-10h-6v-7h6Zm0-10h-6v-7h6Zm0-10h-6v-7h6Zm0-10h-6v-7h6Zm0-10h-6v-7h6Zm0-10h-6v-7h6Zm0-10h-6v-7h6Zm0-20h-6v-7h6Zm11,100h-6v-7h6Zm0-10h-6v-7h6Zm0-10h-6v-7h6Zm0-10h-6v-7h6Zm0-20h-6v-7h6Zm0-10h-6v-7h6Zm0-10h-6v-7h6Zm0-10h-6v-7h6Zm0-10h-6v-7h6Zm0-10h-6v-7h6Zm10,100h-6v-7h6Zm0-20h-6v-7h6Zm0-10h-6v-7h6Zm0-10h-6v-7h6Zm0-10h-6v-7h6Zm0-10h-6v-7h6Zm0-10h-6v-7h6Zm0-10h-6v-7h6Zm0-20h-6v-7h6Z"/><rect class="cls-4" x="298.43" y="51.38" width="7" height="7"/><rect class="cls-4" x="309.43" y="51.38" width="6" height="7"/><rect class="cls-4" x="320.43" y="51.38" width="6" height="7"/><rect class="cls-4" x="330.43" y="51.38" width="6" height="7"/><rect class="cls-4" x="298.43" y="61.38" width="7" height="7"/><rect class="cls-4" x="320.43" y="61.38" width="6" height="7"/><rect class="cls-4" x="298.43" y="71.38" width="7" height="7"/><rect class="cls-4" x="309.43" y="71.38" width="6" height="7"/><rect class="cls-4" x="320.43" y="71.38" width="6" height="7"/><rect class="cls-4" x="330.43" y="71.38" width="6" height="7"/><rect class="cls-4" x="309.43" y="81.38" width="6" height="7"/><rect class="cls-4" x="320.43" y="81.38" width="6" height="7"/><rect class="cls-4" x="330.43" y="81.38" width="6" height="7"/><rect class="cls-4" x="298.43" y="91.38" width="7" height="7"/><rect class="cls-4" x="309.43" y="91.38" width="6" height="7"/><rect class="cls-4" x="320.43" y="91.38" width="6" height="7"/><rect class="cls-4" x="330.43" y="91.38" width="6" height="7"/><rect class="cls-4" x="298.43" y="101.38" width="7" height="7"/><rect class="cls-4" x="309.43" y="101.38" width="6" height="7"/><rect class="cls-4" x="320.43" y="101.38" width="6" height="7"/><rect class="cls-4" x="330.43" y="101.38" width="6" height="7"/><rect class="cls-4" x="298.43" y="111.38" width="7" height="7"/><rect class="cls-4" x="309.43" y="111.38" width="6" height="7"/><rect class="cls-4" x="330.43" y="111.38" width="6" height="7"/><rect class="cls-4" x="298.43" y="121.38" width="7" height="7"/><rect class="cls-4" x="309.43" y="121.38" width="6" height="7"/><rect class="cls-4" x="320.43" y="121.38" width="6" height="7"/><rect class="cls-4" x="330.43" y="121.38" width="6" height="7"/><rect class="cls-4" x="309.43" y="131.38" width="6" height="7"/><rect class="cls-4" x="320.43" y="131.38" width="6" height="7"/><rect class="cls-4" x="330.43" y="131.38" width="6" height="7"/><rect class="cls-4" x="298.43" y="141.38" width="7" height="7"/><rect class="cls-4" x="309.43" y="141.38" width="6" height="7"/><rect class="cls-4" x="320.43" y="141.38" width="6" height="7"/><rect class="cls-4" x="298.43" y="151.38" width="7" height="7"/><rect class="cls-4" x="320.43" y="151.38" width="6" height="7"/><rect class="cls-4" x="330.43" y="151.38" width="6" height="7"/><path class="cls-3" d="M389.59,54.38v-16h-15v-20h-5v20h-14v16h-8v122h49v-122Zm-11-11h5v10h-5Zm-9,8v-8h5v10h-5Zm-9-8h5v10h-5Zm-4,117h-5v-10h5Zm0-15h-5v-10h5Zm0-15h-5v-10h5Zm0-15h-5v-10h5Zm0-15h-5v-10h5Zm0-15h-5v-10h5Zm0-15h-5v-10h5Zm9,90h-5v-10h5Zm0-15h-5v-10h5Zm0-30h-5v-10h5Zm0-30h-5v-10h5Zm0-15h-5v-10h5Zm9,90h-5v-10h5Zm0-30h-5v-10h5Zm0-15h-5v-10h5Zm0-15h-5v-10h5Zm0-15h-5v-10h5Zm0-15h-5v-10h5Zm9,90h-5v-10h5Zm0-15h-5v-10h5Zm0-15h-5v-10h5Zm0-15h-5v-10h5Zm0-15h-5v-10h5Zm0-30h-5v-10h5Zm9,90h-5v-10h5Zm0-15h-5v-10h5Zm0-15h-5v-10h5Zm0-15h-5v-10h5Zm0-15h-5v-10h5Zm0-15h-5v-10h5Zm0-15h-5v-10h5Z"/><rect class="cls-4" x="351.59" y="60.38" width="5" height="10"/><rect class="cls-4" x="360.59" y="60.38" width="5" height="10"/><rect class="cls-4" x="369.59" y="60.38" width="5" height="10"/><rect class="cls-4" x="378.59" y="60.38" width="5" height="10"/><rect class="cls-4" x="387.59" y="60.38" width="5" height="10"/><rect class="cls-4" x="351.59" y="75.38" width="5" height="10"/><rect class="cls-4" x="360.59" y="75.38" width="5" height="10"/><rect class="cls-4" x="369.59" y="75.38" width="5" height="10"/><rect class="cls-4" x="387.59" y="75.38" width="5" height="10"/><rect class="cls-4" x="351.59" y="90.38" width="5" height="10"/><rect class="cls-4" x="369.59" y="90.38" width="5" height="10"/><rect class="cls-4" x="378.59" y="90.38" width="5" height="10"/><rect class="cls-4" x="387.59" y="90.38" width="5" height="10"/><rect class="cls-4" x="351.59" y="105.38" width="5" height="10"/><rect class="cls-4" x="360.59" y="105.38" width="5" height="10"/><rect class="cls-4" x="369.59" y="105.38" width="5" height="10"/><rect class="cls-4" x="378.59" y="105.38" width="5" height="10"/><rect class="cls-4" x="387.59" y="105.38" width="5" height="10"/><rect class="cls-4" x="351.59" y="120.38" width="5" height="10"/><rect class="cls-4" x="369.59" y="120.38" width="5" height="10"/><rect class="cls-4" x="378.59" y="120.38" width="5" height="10"/><rect class="cls-4" x="387.59" y="120.38" width="5" height="10"/><rect class="cls-4" x="351.59" y="135.38" width="5" height="10"/><rect class="cls-4" x="360.59" y="135.38" width="5" height="10"/><rect class="cls-4" x="378.59" y="135.38" width="5" height="10"/><rect class="cls-4" x="387.59" y="135.38" width="5" height="10"/><rect class="cls-4" x="351.59" y="150.38" width="5" height="10"/><rect class="cls-4" x="360.59" y="150.38" width="5" height="10"/><rect class="cls-4" x="369.59" y="150.38" width="5" height="10"/><rect class="cls-4" x="378.59" y="150.38" width="5" height="10"/><rect class="cls-4" x="387.59" y="150.38" width="5" height="10"/><rect class="cls-4" x="360.59" y="43.38" width="5" height="10"/><polygon class="cls-4" points="374.59 51.38 374.59 43.38 369.59 43.38 369.59 51.38 369.59 53.38 374.59 53.38 374.59 51.38"/><rect class="cls-4" x="378.59" y="43.38" width="5" height="10"/><rect class="cls-1" x="544.59" y="105.38" width="36" height="72"/><rect class="cls-2" x="548.59" y="110.38" width="12" height="3"/><rect class="cls-2" x="565.34" y="110.38" width="11.25" height="3"/><rect class="cls-2" x="548.59" y="118.38" width="12" height="3"/><rect class="cls-2" x="565.34" y="118.38" width="11.25" height="3"/><rect class="cls-2" x="548.59" y="126.38" width="12" height="3"/><rect class="cls-2" x="565.34" y="126.38" width="11.25" height="3"/><rect class="cls-2" x="548.59" y="134.38" width="12" height="3"/><rect class="cls-2" x="565.34" y="134.38" width="11.25" height="3"/><rect class="cls-2" x="565.34" y="142.38" width="11.25" height="3"/><rect class="cls-2" x="548.59" y="142.38" width="12" height="3"/><rect class="cls-2" x="548.59" y="150.38" width="12" height="3"/><rect class="cls-2" x="565.34" y="150.38" width="11.25" height="3"/><rect class="cls-2" x="548.59" y="158.38" width="12" height="3"/><rect class="cls-2" x="565.34" y="158.38" width="11.25" height="3"/><rect class="cls-1" x="119.59" y="105.38" width="36" height="72"/><rect class="cls-2" x="124.22" y="110.38" width="7.18" height="3"/><rect class="cls-2" x="134.23" y="110.38" width="6.73" height="3"/><rect class="cls-2" x="134.23" y="118.38" width="6.73" height="3"/><rect class="cls-2" x="124.22" y="126.38" width="7.18" height="3"/><rect class="cls-2" x="134.23" y="126.38" width="6.73" height="3"/><rect class="cls-2" x="124.22" y="134.38" width="7.18" height="3"/><rect class="cls-2" x="134.23" y="134.38" width="6.73" height="3"/><rect class="cls-2" x="134.23" y="142.38" width="6.73" height="3"/><rect class="cls-2" x="124.22" y="150.38" width="7.18" height="3"/><rect class="cls-2" x="134.23" y="150.38" width="6.73" height="3"/><rect class="cls-2" x="124.22" y="158.38" width="7.18" height="3"/><rect class="cls-2" x="143.22" y="110.38" width="7.18" height="3"/><rect class="cls-2" x="143.22" y="118.38" width="7.18" height="3"/><rect class="cls-2" x="143.22" y="134.38" width="7.18" height="3"/><rect class="cls-2" x="143.22" y="142.38" width="7.18" height="3"/><rect class="cls-2" x="143.22" y="150.38" width="7.18" height="3"/><rect class="cls-2" x="134.23" y="158.38" width="6.73" height="3"/><rect class="cls-1" x="584.02" y="121.38" width="28" height="56"/><rect class="cls-2" x="587.62" y="125.27" width="5.58" height="2.33"/><rect class="cls-2" x="595.41" y="125.27" width="5.23" height="2.33"/><rect class="cls-2" x="595.41" y="131.49" width="5.23" height="2.33"/><rect class="cls-2" x="587.62" y="137.71" width="5.58" height="2.33"/><rect class="cls-2" x="595.41" y="137.71" width="5.23" height="2.33"/><rect class="cls-2" x="587.62" y="143.94" width="5.58" height="2.33"/><rect class="cls-2" x="595.41" y="143.94" width="5.23" height="2.33"/><rect class="cls-2" x="595.41" y="150.16" width="5.23" height="2.33"/><rect class="cls-2" x="587.62" y="156.38" width="5.58" height="2.33"/><rect class="cls-2" x="595.41" y="156.38" width="5.23" height="2.33"/><rect class="cls-2" x="587.62" y="162.6" width="5.58" height="2.33"/><rect class="cls-2" x="602.4" y="125.27" width="5.58" height="2.33"/><rect class="cls-2" x="602.4" y="131.49" width="5.58" height="2.33"/><rect class="cls-2" x="602.4" y="143.94" width="5.58" height="2.33"/><rect class="cls-2" x="602.4" y="150.16" width="5.58" height="2.33"/><rect class="cls-2" x="602.4" y="156.38" width="5.58" height="2.33"/><rect class="cls-2" x="595.41" y="162.6" width="5.23" height="2.33"/><path class="cls-1" d="M170.59,93.38v1h-5v-1h-6v83h36v-83Zm21,64h-28v-3h28Zm0-8h-28v-3h28Zm0-8h-28v-3h28Zm0-8h-28v-3h28Zm0-8h-28v-3h28Zm0-8h-28v-3h28Zm0-8h-28v-3h28Zm0-8h-28v-3h28Z"/><rect class="cls-2" x="163.59" y="98.38" width="28" height="3"/><rect class="cls-2" x="163.59" y="106.38" width="28" height="3"/><rect class="cls-2" x="163.59" y="114.38" width="28" height="3"/><rect class="cls-2" x="163.59" y="122.38" width="28" height="3"/><rect class="cls-2" x="163.59" y="130.38" width="28" height="3"/><rect class="cls-2" x="163.59" y="138.38" width="28" height="3"/><rect class="cls-2" x="163.59" y="146.38" width="28" height="3"/><rect class="cls-2" x="163.59" y="154.38" width="28" height="3"/><polygon class="cls-1" points="170.59 94.38 170.59 93.38 170.59 84.38 165.59 84.38 165.59 93.38 165.59 94.38 170.59 94.38"/><path class="cls-1" d="M520.59,94.38v-8h-5v8h-3v-13h-5v13h-11v83h44v-83Zm0,76h-4v-5h4Zm0-7h-4v-5h4Zm0-7h-4v-5h4Zm0-7h-4v-5h4Zm0-7h-4v-5h4Zm0-7h-4v-5h4Zm0-7h-4v-5h4Zm0-7h-4v-5h4Zm0-7h-4v-5h4Zm0-7h-4v-5h4Zm8,63h-4v-5h4Zm0-7h-4v-5h4Zm0-7h-4v-5h4Zm0-7h-4v-5h4Zm0-7h-4v-5h4Zm0-7h-4v-5h4Zm0-7h-4v-5h4Zm0-7h-4v-5h4Zm0-7h-4v-5h4Zm0-7h-4v-5h4Z"/><rect class="cls-2" x="524.59" y="102.38" width="4" height="5"/><rect class="cls-2" x="524.59" y="109.38" width="4" height="5"/><rect class="cls-2" x="524.59" y="116.38" width="4" height="5"/><rect class="cls-2" x="524.59" y="123.38" width="4" height="5"/><rect class="cls-2" x="524.59" y="130.38" width="4" height="5"/><rect class="cls-2" x="524.59" y="137.38" width="4" height="5"/><rect class="cls-2" x="524.59" y="144.38" width="4" height="5"/><rect class="cls-2" x="524.59" y="151.38" width="4" height="5"/><rect class="cls-2" x="524.59" y="158.38" width="4" height="5"/><rect class="cls-2" x="524.59" y="165.38" width="4" height="5"/><rect class="cls-2" x="516.59" y="102.38" width="4" height="5"/><rect class="cls-2" x="516.59" y="109.38" width="4" height="5"/><rect class="cls-2" x="516.59" y="116.38" width="4" height="5"/><rect class="cls-2" x="516.59" y="123.38" width="4" height="5"/><rect class="cls-2" x="516.59" y="130.38" width="4" height="5"/><rect class="cls-2" x="516.59" y="137.38" width="4" height="5"/><rect class="cls-2" x="516.59" y="144.38" width="4" height="5"/><rect class="cls-2" x="516.59" y="151.38" width="4" height="5"/><rect class="cls-2" x="516.59" y="158.38" width="4" height="5"/><rect class="cls-2" x="516.59" y="165.38" width="4" height="5"/><rect class="cls-3" x="27.59" y="175.38" width="669" height="4"/></svg>