<svg id="Outlined_all" data-name="Outlined all" xmlns="http://www.w3.org/2000/svg" viewBox="0 0 721.75 194.07"><defs><style>.cls-1{fill:#979797;}.cls-2{fill:#c1a75b;}.cls-3{fill:#18181b;}.cls-4{fill:#fac41c;}</style></defs><title>Property selection</title><rect class="cls-1" x="200.59" y="67.6" width="39" height="113"/><rect class="cls-2" x="203.59" y="80.6" width="5" height="7"/><rect class="cls-2" x="218.59" y="80.6" width="4" height="7"/><rect class="cls-2" x="225.59" y="80.6" width="4" height="7"/><rect class="cls-2" x="233.59" y="80.6" width="3" height="7"/><rect class="cls-2" x="203.59" y="89.6" width="5" height="8"/><rect class="cls-2" x="211.59" y="89.6" width="4" height="8"/><rect class="cls-2" x="218.59" y="89.6" width="4" height="8"/><rect class="cls-2" x="233.59" y="89.6" width="3" height="8"/><rect class="cls-2" x="203.59" y="98.6" width="5" height="8"/><rect class="cls-2" x="218.59" y="98.6" width="4" height="8"/><rect class="cls-2" x="225.59" y="98.6" width="4" height="8"/><rect class="cls-2" x="233.59" y="98.6" width="3" height="8"/><rect class="cls-2" x="203.59" y="108.6" width="5" height="8"/><rect class="cls-2" x="211.59" y="108.6" width="4" height="8"/><rect class="cls-2" x="218.59" y="108.6" width="4" height="8"/><rect class="cls-2" x="225.59" y="108.6" width="4" height="8"/><rect class="cls-2" x="233.59" y="108.6" width="3" height="8"/><rect class="cls-2" x="203.59" y="117.6" width="5" height="8"/><rect class="cls-2" x="218.59" y="117.6" width="4" height="8"/><rect class="cls-2" x="233.59" y="117.6" width="3" height="8"/><rect class="cls-2" x="203.59" y="127.6" width="5" height="8"/><rect class="cls-2" x="218.59" y="127.6" width="4" height="8"/><rect class="cls-2" x="225.59" y="127.6" width="4" height="8"/><rect class="cls-2" x="233.59" y="127.6" width="3" height="8"/><rect class="cls-2" x="203.59" y="136.6" width="5" height="7"/><rect class="cls-2" x="211.59" y="136.6" width="4" height="7"/><rect class="cls-2" x="218.59" y="136.6" width="4" height="7"/><rect class="cls-2" x="233.59" y="136.6" width="3" height="7"/><rect class="cls-2" x="218.59" y="145.6" width="4" height="8"/><rect class="cls-2" x="225.59" y="145.6" width="4" height="8"/><rect class="cls-2" x="203.59" y="154.6" width="5" height="9"/><rect class="cls-2" x="211.59" y="154.6" width="4" height="9"/><rect class="cls-2" x="218.59" y="154.6" width="4" height="9"/><rect class="cls-2" x="225.59" y="154.6" width="4" height="9"/><rect class="cls-2" x="233.59" y="154.6" width="3" height="9"/><rect class="cls-2" x="203.59" y="164.6" width="5" height="8"/><rect class="cls-2" x="218.59" y="164.6" width="4" height="8"/><rect class="cls-2" x="233.59" y="164.6" width="3" height="8"/><rect class="cls-1" x="244.59" y="53.1" width="44" height="128"/><rect class="cls-2" x="256.59" y="68.1" width="4" height="17"/><rect class="cls-2" x="272.59" y="68.1" width="4" height="17"/><rect class="cls-2" x="280.59" y="68.1" width="4" height="17"/><rect class="cls-2" x="256.59" y="89.1" width="4" height="17"/><rect class="cls-2" x="264.59" y="89.1" width="4" height="17"/><rect class="cls-2" x="280.59" y="89.1" width="4" height="17"/><rect class="cls-2" x="256.59" y="109.1" width="4" height="17"/><rect class="cls-2" x="272.59" y="109.1" width="4" height="17"/><rect class="cls-2" x="280.59" y="109.1" width="4" height="17"/><rect class="cls-2" x="256.59" y="130.1" width="4" height="17"/><rect class="cls-2" x="264.59" y="130.1" width="4" height="17"/><rect class="cls-2" x="280.59" y="130.1" width="4" height="17"/><rect class="cls-2" x="264.59" y="150.1" width="4" height="18"/><rect class="cls-2" x="280.59" y="150.1" width="4" height="18"/><polygon class="cls-1" points="492.59 34.6 454.59 6.6 454.59 180.6 492.59 180.6 492.59 34.6"/><rect class="cls-2" x="458.59" y="43.6" width="30" height="3"/><rect class="cls-2" x="458.59" y="49.6" width="30" height="3"/><rect class="cls-2" x="458.59" y="55.6" width="30" height="3"/><rect class="cls-2" x="458.59" y="61.6" width="30" height="3"/><rect class="cls-2" x="458.59" y="67.6" width="30" height="3"/><rect class="cls-2" x="458.59" y="73.6" width="30" height="3"/><rect class="cls-2" x="458.59" y="79.6" width="30" height="3"/><rect class="cls-2" x="458.59" y="85.6" width="30" height="3"/><rect class="cls-2" x="458.59" y="97.6" width="30" height="3"/><rect class="cls-2" x="458.59" y="103.6" width="30" height="3"/><rect class="cls-2" x="458.59" y="109.6" width="30" height="3"/><rect class="cls-2" x="458.59" y="115.6" width="30" height="3"/><rect class="cls-2" x="458.59" y="121.6" width="30" height="3"/><rect class="cls-2" x="458.59" y="127.6" width="30" height="3"/><rect class="cls-2" x="458.59" y="133.6" width="30" height="3"/><rect class="cls-2" x="458.59" y="139.6" width="30" height="3"/><rect class="cls-2" x="458.59" y="151.6" width="30" height="3"/><rect class="cls-2" x="458.59" y="157.6" width="30" height="3"/><rect class="cls-2" x="458.59" y="163.6" width="30" height="3"/><rect class="cls-3" x="401.59" y="40.1" width="49" height="142"/><rect class="cls-4" x="414.59" y="56.1" width="5" height="19"/><rect class="cls-4" x="423.59" y="56.1" width="5" height="19"/><rect class="cls-4" x="432.59" y="56.1" width="5" height="19"/><rect class="cls-4" x="441.59" y="56.1" width="5" height="19"/><rect class="cls-4" x="405.59" y="79.1" width="5" height="19"/><rect class="cls-4" x="414.59" y="79.1" width="5" height="19"/><rect class="cls-4" x="432.59" y="79.1" width="5" height="19"/><rect class="cls-4" x="405.59" y="102.1" width="5" height="19"/><rect class="cls-4" x="414.59" y="102.1" width="5" height="19"/><rect class="cls-4" x="423.59" y="102.1" width="5" height="19"/><rect class="cls-4" x="432.59" y="102.1" width="5" height="19"/><rect class="cls-4" x="441.59" y="102.1" width="5" height="19"/><rect class="cls-4" x="405.59" y="125.1" width="5" height="19"/><rect class="cls-4" x="423.59" y="125.1" width="5" height="19"/><rect class="cls-4" x="432.59" y="125.1" width="5" height="19"/><rect class="cls-4" x="441.59" y="125.1" width="5" height="19"/><rect class="cls-4" x="405.59" y="148.1" width="5" height="19"/><rect class="cls-4" x="414.59" y="148.1" width="5" height="19"/><rect class="cls-4" x="423.59" y="148.1" width="5" height="19"/><rect class="cls-4" x="441.59" y="148.1" width="5" height="19"/><path class="cls-3" d="M326.43,38.6v-12h-28v12h-5v142h49V38.6Zm-21,124h-7v-7h7Zm0-10h-7v-7h7Zm0-20h-7v-7h7Zm0-10h-7v-7h7Zm0-10h-7v-7h7Zm0-10h-7v-7h7Zm0-20h-7v-7h7Zm0-10h-7v-7h7Zm0-10h-7v-7h7Zm10,90h-6v-7h6Zm0-10h-6v-7h6Zm0-10h-6v-7h6Zm0-10h-6v-7h6Zm0-10h-6v-7h6Zm0-10h-6v-7h6Zm0-10h-6v-7h6Zm0-10h-6v-7h6Zm0-20h-6v-7h6Zm11,100h-6v-7h6Zm0-10h-6v-7h6Zm0-10h-6v-7h6Zm0-10h-6v-7h6Zm0-20h-6v-7h6Zm0-10h-6v-7h6Zm0-10h-6v-7h6Zm0-10h-6v-7h6Zm0-10h-6v-7h6Zm0-10h-6v-7h6Zm10,100h-6v-7h6Zm0-20h-6v-7h6Zm0-10h-6v-7h6Zm0-10h-6v-7h6Zm0-10h-6v-7h6Zm0-10h-6v-7h6Zm0-10h-6v-7h6Zm0-10h-6v-7h6Zm0-20h-6v-7h6Z"/><rect class="cls-4" x="298.43" y="55.6" width="7" height="7"/><rect class="cls-4" x="309.43" y="55.6" width="6" height="7"/><rect class="cls-4" x="320.43" y="55.6" width="6" height="7"/><rect class="cls-4" x="330.43" y="55.6" width="6" height="7"/><rect class="cls-4" x="298.43" y="65.6" width="7" height="7"/><rect class="cls-4" x="320.43" y="65.6" width="6" height="7"/><rect class="cls-4" x="298.43" y="75.6" width="7" height="7"/><rect class="cls-4" x="309.43" y="75.6" width="6" height="7"/><rect class="cls-4" x="320.43" y="75.6" width="6" height="7"/><rect class="cls-4" x="330.43" y="75.6" width="6" height="7"/><rect class="cls-4" x="309.43" y="85.6" width="6" height="7"/><rect class="cls-4" x="320.43" y="85.6" width="6" height="7"/><rect class="cls-4" x="330.43" y="85.6" width="6" height="7"/><rect class="cls-4" x="298.43" y="95.6" width="7" height="7"/><rect class="cls-4" x="309.43" y="95.6" width="6" height="7"/><rect class="cls-4" x="320.43" y="95.6" width="6" height="7"/><rect class="cls-4" x="330.43" y="95.6" width="6" height="7"/><rect class="cls-4" x="298.43" y="105.6" width="7" height="7"/><rect class="cls-4" x="309.43" y="105.6" width="6" height="7"/><rect class="cls-4" x="320.43" y="105.6" width="6" height="7"/><rect class="cls-4" x="330.43" y="105.6" width="6" height="7"/><rect class="cls-4" x="298.43" y="115.6" width="7" height="7"/><rect class="cls-4" x="309.43" y="115.6" width="6" height="7"/><rect class="cls-4" x="330.43" y="115.6" width="6" height="7"/><rect class="cls-4" x="298.43" y="125.6" width="7" height="7"/><rect class="cls-4" x="309.43" y="125.6" width="6" height="7"/><rect class="cls-4" x="320.43" y="125.6" width="6" height="7"/><rect class="cls-4" x="330.43" y="125.6" width="6" height="7"/><rect class="cls-4" x="309.43" y="135.6" width="6" height="7"/><rect class="cls-4" x="320.43" y="135.6" width="6" height="7"/><rect class="cls-4" x="330.43" y="135.6" width="6" height="7"/><rect class="cls-4" x="298.43" y="145.6" width="7" height="7"/><rect class="cls-4" x="309.43" y="145.6" width="6" height="7"/><rect class="cls-4" x="320.43" y="145.6" width="6" height="7"/><rect class="cls-4" x="298.43" y="155.6" width="7" height="7"/><rect class="cls-4" x="320.43" y="155.6" width="6" height="7"/><rect class="cls-4" x="330.43" y="155.6" width="6" height="7"/><path class="cls-3" d="M389.59,58.6v-16h-15v-20h-5v20h-14v16h-8v122h49V58.6Zm-11-11h5v10h-5Zm-9,8v-8h5v10h-5Zm-9-8h5v10h-5Zm-4,117h-5v-10h5Zm0-15h-5v-10h5Zm0-15h-5v-10h5Zm0-15h-5v-10h5Zm0-15h-5v-10h5Zm0-15h-5v-10h5Zm0-15h-5v-10h5Zm9,90h-5v-10h5Zm0-15h-5v-10h5Zm0-30h-5v-10h5Zm0-30h-5v-10h5Zm0-15h-5v-10h5Zm9,90h-5v-10h5Zm0-30h-5v-10h5Zm0-15h-5v-10h5Zm0-15h-5v-10h5Zm0-15h-5v-10h5Zm0-15h-5v-10h5Zm9,90h-5v-10h5Zm0-15h-5v-10h5Zm0-15h-5v-10h5Zm0-15h-5v-10h5Zm0-15h-5v-10h5Zm0-30h-5v-10h5Zm9,90h-5v-10h5Zm0-15h-5v-10h5Zm0-15h-5v-10h5Zm0-15h-5v-10h5Zm0-15h-5v-10h5Zm0-15h-5v-10h5Zm0-15h-5v-10h5Z"/><rect class="cls-4" x="351.59" y="64.6" width="5" height="10"/><rect class="cls-4" x="360.59" y="64.6" width="5" height="10"/><rect class="cls-4" x="369.59" y="64.6" width="5" height="10"/><rect class="cls-4" x="378.59" y="64.6" width="5" height="10"/><rect class="cls-4" x="387.59" y="64.6" width="5" height="10"/><rect class="cls-4" x="351.59" y="79.6" width="5" height="10"/><rect class="cls-4" x="360.59" y="79.6" width="5" height="10"/><rect class="cls-4" x="369.59" y="79.6" width="5" height="10"/><rect class="cls-4" x="387.59" y="79.6" width="5" height="10"/><rect class="cls-4" x="351.59" y="94.6" width="5" height="10"/><rect class="cls-4" x="369.59" y="94.6" width="5" height="10"/><rect class="cls-4" x="378.59" y="94.6" width="5" height="10"/><rect class="cls-4" x="387.59" y="94.6" width="5" height="10"/><rect class="cls-4" x="351.59" y="109.6" width="5" height="10"/><rect class="cls-4" x="360.59" y="109.6" width="5" height="10"/><rect class="cls-4" x="369.59" y="109.6" width="5" height="10"/><rect class="cls-4" x="378.59" y="109.6" width="5" height="10"/><rect class="cls-4" x="387.59" y="109.6" width="5" height="10"/><rect class="cls-4" x="351.59" y="124.6" width="5" height="10"/><rect class="cls-4" x="369.59" y="124.6" width="5" height="10"/><rect class="cls-4" x="378.59" y="124.6" width="5" height="10"/><rect class="cls-4" x="387.59" y="124.6" width="5" height="10"/><rect class="cls-4" x="351.59" y="139.6" width="5" height="10"/><rect class="cls-4" x="360.59" y="139.6" width="5" height="10"/><rect class="cls-4" x="378.59" y="139.6" width="5" height="10"/><rect class="cls-4" x="387.59" y="139.6" width="5" height="10"/><rect class="cls-4" x="351.59" y="154.6" width="5" height="10"/><rect class="cls-4" x="360.59" y="154.6" width="5" height="10"/><rect class="cls-4" x="369.59" y="154.6" width="5" height="10"/><rect class="cls-4" x="378.59" y="154.6" width="5" height="10"/><rect class="cls-4" x="387.59" y="154.6" width="5" height="10"/><rect class="cls-4" x="360.59" y="47.6" width="5" height="10"/><polygon class="cls-4" points="374.59 55.6 374.59 47.6 369.59 47.6 369.59 55.6 369.59 57.6 374.59 57.6 374.59 55.6"/><rect class="cls-4" x="378.59" y="47.6" width="5" height="10"/><rect class="cls-1" x="544.59" y="109.6" width="36" height="72"/><rect class="cls-2" x="548.59" y="114.6" width="12" height="3"/><rect class="cls-2" x="565.34" y="114.6" width="11.25" height="3"/><rect class="cls-2" x="548.59" y="122.6" width="12" height="3"/><rect class="cls-2" x="565.34" y="122.6" width="11.25" height="3"/><rect class="cls-2" x="548.59" y="130.6" width="12" height="3"/><rect class="cls-2" x="565.34" y="130.6" width="11.25" height="3"/><rect class="cls-2" x="548.59" y="138.6" width="12" height="3"/><rect class="cls-2" x="565.34" y="138.6" width="11.25" height="3"/><rect class="cls-2" x="565.34" y="146.6" width="11.25" height="3"/><rect class="cls-2" x="548.59" y="146.6" width="12" height="3"/><rect class="cls-2" x="548.59" y="154.6" width="12" height="3"/><rect class="cls-2" x="565.34" y="154.6" width="11.25" height="3"/><rect class="cls-2" x="548.59" y="162.6" width="12" height="3"/><rect class="cls-2" x="565.34" y="162.6" width="11.25" height="3"/><rect class="cls-1" x="119.59" y="109.6" width="36" height="72"/><rect class="cls-2" x="124.22" y="114.6" width="7.18" height="3"/><rect class="cls-2" x="134.23" y="114.6" width="6.73" height="3"/><rect class="cls-2" x="134.23" y="122.6" width="6.73" height="3"/><rect class="cls-2" x="124.22" y="130.6" width="7.18" height="3"/><rect class="cls-2" x="134.23" y="130.6" width="6.73" height="3"/><rect class="cls-2" x="124.22" y="138.6" width="7.18" height="3"/><rect class="cls-2" x="134.23" y="138.6" width="6.73" height="3"/><rect class="cls-2" x="134.23" y="146.6" width="6.73" height="3"/><rect class="cls-2" x="124.22" y="154.6" width="7.18" height="3"/><rect class="cls-2" x="134.23" y="154.6" width="6.73" height="3"/><rect class="cls-2" x="124.22" y="162.6" width="7.18" height="3"/><rect class="cls-2" x="143.22" y="114.6" width="7.18" height="3"/><rect class="cls-2" x="143.22" y="122.6" width="7.18" height="3"/><rect class="cls-2" x="143.22" y="138.6" width="7.18" height="3"/><rect class="cls-2" x="143.22" y="146.6" width="7.18" height="3"/><rect class="cls-2" x="143.22" y="154.6" width="7.18" height="3"/><rect class="cls-2" x="134.23" y="162.6" width="6.73" height="3"/><rect class="cls-1" x="584.02" y="125.6" width="28" height="56"/><rect class="cls-2" x="587.62" y="129.49" width="5.58" height="2.33"/><rect class="cls-2" x="595.41" y="129.49" width="5.23" height="2.33"/><rect class="cls-2" x="595.41" y="135.71" width="5.23" height="2.33"/><rect class="cls-2" x="587.62" y="141.94" width="5.58" height="2.33"/><rect class="cls-2" x="595.41" y="141.94" width="5.23" height="2.33"/><rect class="cls-2" x="587.62" y="148.16" width="5.58" height="2.33"/><rect class="cls-2" x="595.41" y="148.16" width="5.23" height="2.33"/><rect class="cls-2" x="595.41" y="154.38" width="5.23" height="2.33"/><rect class="cls-2" x="587.62" y="160.6" width="5.58" height="2.33"/><rect class="cls-2" x="595.41" y="160.6" width="5.23" height="2.33"/><rect class="cls-2" x="587.62" y="166.83" width="5.58" height="2.33"/><rect class="cls-2" x="602.4" y="129.49" width="5.58" height="2.33"/><rect class="cls-2" x="602.4" y="135.71" width="5.58" height="2.33"/><rect class="cls-2" x="602.4" y="148.16" width="5.58" height="2.33"/><rect class="cls-2" x="602.4" y="154.38" width="5.58" height="2.33"/><rect class="cls-2" x="602.4" y="160.6" width="5.58" height="2.33"/><rect class="cls-2" x="595.41" y="166.83" width="5.23" height="2.33"/><path class="cls-1" d="M170.59,97.6v1h-5v-1h-6v83h36v-83Zm21,64h-28v-3h28Zm0-8h-28v-3h28Zm0-8h-28v-3h28Zm0-8h-28v-3h28Zm0-8h-28v-3h28Zm0-8h-28v-3h28Zm0-8h-28v-3h28Zm0-8h-28v-3h28Z"/><rect class="cls-2" x="163.59" y="102.6" width="28" height="3"/><rect class="cls-2" x="163.59" y="110.6" width="28" height="3"/><rect class="cls-2" x="163.59" y="118.6" width="28" height="3"/><rect class="cls-2" x="163.59" y="126.6" width="28" height="3"/><rect class="cls-2" x="163.59" y="134.6" width="28" height="3"/><rect class="cls-2" x="163.59" y="142.6" width="28" height="3"/><rect class="cls-2" x="163.59" y="150.6" width="28" height="3"/><rect class="cls-2" x="163.59" y="158.6" width="28" height="3"/><polygon class="cls-1" points="170.59 98.6 170.59 97.6 170.59 88.6 165.59 88.6 165.59 97.6 165.59 98.6 170.59 98.6"/><path class="cls-1" d="M520.59,98.6v-8h-5v8h-3v-13h-5v13h-11v83h44v-83Zm0,76h-4v-5h4Zm0-7h-4v-5h4Zm0-7h-4v-5h4Zm0-7h-4v-5h4Zm0-7h-4v-5h4Zm0-7h-4v-5h4Zm0-7h-4v-5h4Zm0-7h-4v-5h4Zm0-7h-4v-5h4Zm0-7h-4v-5h4Zm8,63h-4v-5h4Zm0-7h-4v-5h4Zm0-7h-4v-5h4Zm0-7h-4v-5h4Zm0-7h-4v-5h4Zm0-7h-4v-5h4Zm0-7h-4v-5h4Zm0-7h-4v-5h4Zm0-7h-4v-5h4Zm0-7h-4v-5h4Z"/><rect class="cls-2" x="524.59" y="106.6" width="4" height="5"/><rect class="cls-2" x="524.59" y="113.6" width="4" height="5"/><rect class="cls-2" x="524.59" y="120.6" width="4" height="5"/><rect class="cls-2" x="524.59" y="127.6" width="4" height="5"/><rect class="cls-2" x="524.59" y="134.6" width="4" height="5"/><rect class="cls-2" x="524.59" y="141.6" width="4" height="5"/><rect class="cls-2" x="524.59" y="148.6" width="4" height="5"/><rect class="cls-2" x="524.59" y="155.6" width="4" height="5"/><rect class="cls-2" x="524.59" y="162.6" width="4" height="5"/><rect class="cls-2" x="524.59" y="169.6" width="4" height="5"/><rect class="cls-2" x="516.59" y="106.6" width="4" height="5"/><rect class="cls-2" x="516.59" y="113.6" width="4" height="5"/><rect class="cls-2" x="516.59" y="120.6" width="4" height="5"/><rect class="cls-2" x="516.59" y="127.6" width="4" height="5"/><rect class="cls-2" x="516.59" y="134.6" width="4" height="5"/><rect class="cls-2" x="516.59" y="141.6" width="4" height="5"/><rect class="cls-2" x="516.59" y="148.6" width="4" height="5"/><rect class="cls-2" x="516.59" y="155.6" width="4" height="5"/><rect class="cls-2" x="516.59" y="162.6" width="4" height="5"/><rect class="cls-2" x="516.59" y="169.6" width="4" height="5"/><rect class="cls-3" x="27.59" y="179.6" width="669" height="4"/></svg>