<svg id="Outlined_all" data-name="Outlined all" xmlns="http://www.w3.org/2000/svg" viewBox="0 0 721.75 194.07"><defs><style>.cls-1{fill:#18181b;}.cls-2{fill:#fac41c;}</style></defs><title>Property selection</title><rect class="cls-1" x="27.59" y="179.43" width="669" height="4"/><rect class="cls-1" x="401.59" y="39.93" width="49" height="142"/><rect class="cls-2" x="414.59" y="55.93" width="5" height="19"/><rect class="cls-2" x="423.59" y="55.93" width="5" height="19"/><rect class="cls-2" x="432.59" y="55.93" width="5" height="19"/><rect class="cls-2" x="441.59" y="55.93" width="5" height="19"/><rect class="cls-2" x="405.59" y="78.93" width="5" height="19"/><rect class="cls-2" x="414.59" y="78.93" width="5" height="19"/><rect class="cls-2" x="432.59" y="78.93" width="5" height="19"/><rect class="cls-2" x="405.59" y="101.93" width="5" height="19"/><rect class="cls-2" x="414.59" y="101.93" width="5" height="19"/><rect class="cls-2" x="423.59" y="101.93" width="5" height="19"/><rect class="cls-2" x="432.59" y="101.93" width="5" height="19"/><rect class="cls-2" x="441.59" y="101.93" width="5" height="19"/><rect class="cls-2" x="405.59" y="124.93" width="5" height="19"/><rect class="cls-2" x="423.59" y="124.93" width="5" height="19"/><rect class="cls-2" x="432.59" y="124.93" width="5" height="19"/><rect class="cls-2" x="441.59" y="124.93" width="5" height="19"/><rect class="cls-2" x="405.59" y="147.93" width="5" height="19"/><rect class="cls-2" x="414.59" y="147.93" width="5" height="19"/><rect class="cls-2" x="423.59" y="147.93" width="5" height="19"/><rect class="cls-2" x="441.59" y="147.93" width="5" height="19"/><rect class="cls-1" x="200.59" y="67.43" width="39" height="113"/><rect class="cls-2" x="203.59" y="80.43" width="5" height="7"/><rect class="cls-2" x="218.59" y="80.43" width="4" height="7"/><rect class="cls-2" x="225.59" y="80.43" width="4" height="7"/><rect class="cls-2" x="233.59" y="80.43" width="3" height="7"/><rect class="cls-2" x="203.59" y="89.43" width="5" height="8"/><rect class="cls-2" x="211.59" y="89.43" width="4" height="8"/><rect class="cls-2" x="218.59" y="89.43" width="4" height="8"/><rect class="cls-2" x="233.59" y="89.43" width="3" height="8"/><rect class="cls-2" x="203.59" y="98.43" width="5" height="8"/><rect class="cls-2" x="218.59" y="98.43" width="4" height="8"/><rect class="cls-2" x="225.59" y="98.43" width="4" height="8"/><rect class="cls-2" x="233.59" y="98.43" width="3" height="8"/><rect class="cls-2" x="203.59" y="108.43" width="5" height="8"/><rect class="cls-2" x="211.59" y="108.43" width="4" height="8"/><rect class="cls-2" x="218.59" y="108.43" width="4" height="8"/><rect class="cls-2" x="225.59" y="108.43" width="4" height="8"/><rect class="cls-2" x="233.59" y="108.43" width="3" height="8"/><rect class="cls-2" x="203.59" y="117.43" width="5" height="8"/><rect class="cls-2" x="218.59" y="117.43" width="4" height="8"/><rect class="cls-2" x="233.59" y="117.43" width="3" height="8"/><rect class="cls-2" x="203.59" y="127.43" width="5" height="8"/><rect class="cls-2" x="218.59" y="127.43" width="4" height="8"/><rect class="cls-2" x="225.59" y="127.43" width="4" height="8"/><rect class="cls-2" x="233.59" y="127.43" width="3" height="8"/><rect class="cls-2" x="203.59" y="136.43" width="5" height="7"/><rect class="cls-2" x="211.59" y="136.43" width="4" height="7"/><rect class="cls-2" x="218.59" y="136.43" width="4" height="7"/><rect class="cls-2" x="233.59" y="136.43" width="3" height="7"/><rect class="cls-2" x="218.59" y="145.43" width="4" height="8"/><rect class="cls-2" x="225.59" y="145.43" width="4" height="8"/><rect class="cls-2" x="203.59" y="154.43" width="5" height="9"/><rect class="cls-2" x="211.59" y="154.43" width="4" height="9"/><rect class="cls-2" x="218.59" y="154.43" width="4" height="9"/><rect class="cls-2" x="225.59" y="154.43" width="4" height="9"/><rect class="cls-2" x="233.59" y="154.43" width="3" height="9"/><rect class="cls-2" x="203.59" y="164.43" width="5" height="8"/><rect class="cls-2" x="218.59" y="164.43" width="4" height="8"/><rect class="cls-2" x="233.59" y="164.43" width="3" height="8"/><rect class="cls-1" x="244.59" y="52.93" width="44" height="128"/><rect class="cls-2" x="256.59" y="67.93" width="4" height="17"/><rect class="cls-2" x="272.59" y="67.93" width="4" height="17"/><rect class="cls-2" x="280.59" y="67.93" width="4" height="17"/><rect class="cls-2" x="256.59" y="88.93" width="4" height="17"/><rect class="cls-2" x="264.59" y="88.93" width="4" height="17"/><rect class="cls-2" x="280.59" y="88.93" width="4" height="17"/><rect class="cls-2" x="256.59" y="108.93" width="4" height="17"/><rect class="cls-2" x="272.59" y="108.93" width="4" height="17"/><rect class="cls-2" x="280.59" y="108.93" width="4" height="17"/><rect class="cls-2" x="256.59" y="129.93" width="4" height="17"/><rect class="cls-2" x="264.59" y="129.93" width="4" height="17"/><rect class="cls-2" x="280.59" y="129.93" width="4" height="17"/><rect class="cls-2" x="264.59" y="149.93" width="4" height="18"/><rect class="cls-2" x="280.59" y="149.93" width="4" height="18"/><polygon class="cls-1" points="492.59 34.43 454.59 20.43 454.59 180.43 492.59 180.43 492.59 34.43"/><rect class="cls-2" x="458.59" y="43.43" width="30" height="3"/><rect class="cls-2" x="458.59" y="49.43" width="30" height="3"/><rect class="cls-2" x="458.59" y="55.43" width="30" height="3"/><rect class="cls-2" x="458.59" y="61.43" width="30" height="3"/><rect class="cls-2" x="458.59" y="67.43" width="30" height="3"/><rect class="cls-2" x="458.59" y="73.43" width="30" height="3"/><rect class="cls-2" x="458.59" y="79.43" width="30" height="3"/><rect class="cls-2" x="458.59" y="85.43" width="30" height="3"/><rect class="cls-2" x="458.59" y="97.43" width="30" height="3"/><rect class="cls-2" x="458.59" y="103.43" width="30" height="3"/><rect class="cls-2" x="458.59" y="109.43" width="30" height="3"/><rect class="cls-2" x="458.59" y="115.43" width="30" height="3"/><rect class="cls-2" x="458.59" y="121.43" width="30" height="3"/><rect class="cls-2" x="458.59" y="127.43" width="30" height="3"/><rect class="cls-2" x="458.59" y="133.43" width="30" height="3"/><rect class="cls-2" x="458.59" y="139.43" width="30" height="3"/><rect class="cls-2" x="458.59" y="151.43" width="30" height="3"/><rect class="cls-2" x="458.59" y="157.43" width="30" height="3"/><rect class="cls-2" x="458.59" y="163.43" width="30" height="3"/><path class="cls-1" d="M326.43,38.43v-12h-28v12h-5v142h49v-142Zm-21,124h-7v-7h7Zm0-10h-7v-7h7Zm0-20h-7v-7h7Zm0-10h-7v-7h7Zm0-10h-7v-7h7Zm0-10h-7v-7h7Zm0-20h-7v-7h7Zm0-10h-7v-7h7Zm0-10h-7v-7h7Zm10,90h-6v-7h6Zm0-10h-6v-7h6Zm0-10h-6v-7h6Zm0-10h-6v-7h6Zm0-10h-6v-7h6Zm0-10h-6v-7h6Zm0-10h-6v-7h6Zm0-10h-6v-7h6Zm0-20h-6v-7h6Zm11,100h-6v-7h6Zm0-10h-6v-7h6Zm0-10h-6v-7h6Zm0-10h-6v-7h6Zm0-20h-6v-7h6Zm0-10h-6v-7h6Zm0-10h-6v-7h6Zm0-10h-6v-7h6Zm0-10h-6v-7h6Zm0-10h-6v-7h6Zm10,100h-6v-7h6Zm0-20h-6v-7h6Zm0-10h-6v-7h6Zm0-10h-6v-7h6Zm0-10h-6v-7h6Zm0-10h-6v-7h6Zm0-10h-6v-7h6Zm0-10h-6v-7h6Zm0-20h-6v-7h6Z"/><rect class="cls-2" x="298.43" y="55.43" width="7" height="7"/><rect class="cls-2" x="309.43" y="55.43" width="6" height="7"/><rect class="cls-2" x="320.43" y="55.43" width="6" height="7"/><rect class="cls-2" x="330.43" y="55.43" width="6" height="7"/><rect class="cls-2" x="298.43" y="65.43" width="7" height="7"/><rect class="cls-2" x="320.43" y="65.43" width="6" height="7"/><rect class="cls-2" x="298.43" y="75.43" width="7" height="7"/><rect class="cls-2" x="309.43" y="75.43" width="6" height="7"/><rect class="cls-2" x="320.43" y="75.43" width="6" height="7"/><rect class="cls-2" x="330.43" y="75.43" width="6" height="7"/><rect class="cls-2" x="309.43" y="85.43" width="6" height="7"/><rect class="cls-2" x="320.43" y="85.43" width="6" height="7"/><rect class="cls-2" x="330.43" y="85.43" width="6" height="7"/><rect class="cls-2" x="298.43" y="95.43" width="7" height="7"/><rect class="cls-2" x="309.43" y="95.43" width="6" height="7"/><rect class="cls-2" x="320.43" y="95.43" width="6" height="7"/><rect class="cls-2" x="330.43" y="95.43" width="6" height="7"/><rect class="cls-2" x="298.43" y="105.43" width="7" height="7"/><rect class="cls-2" x="309.43" y="105.43" width="6" height="7"/><rect class="cls-2" x="320.43" y="105.43" width="6" height="7"/><rect class="cls-2" x="330.43" y="105.43" width="6" height="7"/><rect class="cls-2" x="298.43" y="115.43" width="7" height="7"/><rect class="cls-2" x="309.43" y="115.43" width="6" height="7"/><rect class="cls-2" x="330.43" y="115.43" width="6" height="7"/><rect class="cls-2" x="298.43" y="125.43" width="7" height="7"/><rect class="cls-2" x="309.43" y="125.43" width="6" height="7"/><rect class="cls-2" x="320.43" y="125.43" width="6" height="7"/><rect class="cls-2" x="330.43" y="125.43" width="6" height="7"/><rect class="cls-2" x="309.43" y="135.43" width="6" height="7"/><rect class="cls-2" x="320.43" y="135.43" width="6" height="7"/><rect class="cls-2" x="330.43" y="135.43" width="6" height="7"/><rect class="cls-2" x="298.43" y="145.43" width="7" height="7"/><rect class="cls-2" x="309.43" y="145.43" width="6" height="7"/><rect class="cls-2" x="320.43" y="145.43" width="6" height="7"/><rect class="cls-2" x="298.43" y="155.43" width="7" height="7"/><rect class="cls-2" x="320.43" y="155.43" width="6" height="7"/><rect class="cls-2" x="330.43" y="155.43" width="6" height="7"/><path class="cls-1" d="M389.59,58.43v-16h-15v-20h-5v20h-14v16h-8v122h49v-122Zm-11-11h5v10h-5Zm-9,8v-8h5v10h-5Zm-9-8h5v10h-5Zm-4,117h-5v-10h5Zm0-15h-5v-10h5Zm0-15h-5v-10h5Zm0-15h-5v-10h5Zm0-15h-5v-10h5Zm0-15h-5v-10h5Zm0-15h-5v-10h5Zm9,90h-5v-10h5Zm0-15h-5v-10h5Zm0-30h-5v-10h5Zm0-30h-5v-10h5Zm0-15h-5v-10h5Zm9,90h-5v-10h5Zm0-30h-5v-10h5Zm0-15h-5v-10h5Zm0-15h-5v-10h5Zm0-15h-5v-10h5Zm0-15h-5v-10h5Zm9,90h-5v-10h5Zm0-15h-5v-10h5Zm0-15h-5v-10h5Zm0-15h-5v-10h5Zm0-15h-5v-10h5Zm0-30h-5v-10h5Zm9,90h-5v-10h5Zm0-15h-5v-10h5Zm0-15h-5v-10h5Zm0-15h-5v-10h5Zm0-15h-5v-10h5Zm0-15h-5v-10h5Zm0-15h-5v-10h5Z"/><rect class="cls-2" x="351.59" y="64.43" width="5" height="10"/><rect class="cls-2" x="360.59" y="64.43" width="5" height="10"/><rect class="cls-2" x="369.59" y="64.43" width="5" height="10"/><rect class="cls-2" x="378.59" y="64.43" width="5" height="10"/><rect class="cls-2" x="387.59" y="64.43" width="5" height="10"/><rect class="cls-2" x="351.59" y="79.43" width="5" height="10"/><rect class="cls-2" x="360.59" y="79.43" width="5" height="10"/><rect class="cls-2" x="369.59" y="79.43" width="5" height="10"/><rect class="cls-2" x="387.59" y="79.43" width="5" height="10"/><rect class="cls-2" x="351.59" y="94.43" width="5" height="10"/><rect class="cls-2" x="369.59" y="94.43" width="5" height="10"/><rect class="cls-2" x="378.59" y="94.43" width="5" height="10"/><rect class="cls-2" x="387.59" y="94.43" width="5" height="10"/><rect class="cls-2" x="351.59" y="109.43" width="5" height="10"/><rect class="cls-2" x="360.59" y="109.43" width="5" height="10"/><rect class="cls-2" x="369.59" y="109.43" width="5" height="10"/><rect class="cls-2" x="378.59" y="109.43" width="5" height="10"/><rect class="cls-2" x="387.59" y="109.43" width="5" height="10"/><rect class="cls-2" x="351.59" y="124.43" width="5" height="10"/><rect class="cls-2" x="369.59" y="124.43" width="5" height="10"/><rect class="cls-2" x="378.59" y="124.43" width="5" height="10"/><rect class="cls-2" x="387.59" y="124.43" width="5" height="10"/><rect class="cls-2" x="351.59" y="139.43" width="5" height="10"/><rect class="cls-2" x="360.59" y="139.43" width="5" height="10"/><rect class="cls-2" x="378.59" y="139.43" width="5" height="10"/><rect class="cls-2" x="387.59" y="139.43" width="5" height="10"/><rect class="cls-2" x="351.59" y="154.43" width="5" height="10"/><rect class="cls-2" x="360.59" y="154.43" width="5" height="10"/><rect class="cls-2" x="369.59" y="154.43" width="5" height="10"/><rect class="cls-2" x="378.59" y="154.43" width="5" height="10"/><rect class="cls-2" x="387.59" y="154.43" width="5" height="10"/><rect class="cls-2" x="360.59" y="47.43" width="5" height="10"/><polygon class="cls-2" points="374.59 55.43 374.59 47.43 369.59 47.43 369.59 55.43 369.59 57.43 374.59 57.43 374.59 55.43"/><rect class="cls-2" x="378.59" y="47.43" width="5" height="10"/><rect class="cls-1" x="544.59" y="109.43" width="36" height="72"/><rect class="cls-2" x="548.59" y="114.43" width="12" height="3"/><rect class="cls-2" x="565.34" y="114.43" width="11.25" height="3"/><rect class="cls-2" x="548.59" y="122.43" width="12" height="3"/><rect class="cls-2" x="565.34" y="122.43" width="11.25" height="3"/><rect class="cls-2" x="548.59" y="130.43" width="12" height="3"/><rect class="cls-2" x="565.34" y="130.43" width="11.25" height="3"/><rect class="cls-2" x="548.59" y="138.43" width="12" height="3"/><rect class="cls-2" x="565.34" y="138.43" width="11.25" height="3"/><rect class="cls-2" x="565.34" y="146.43" width="11.25" height="3"/><rect class="cls-2" x="548.59" y="146.43" width="12" height="3"/><rect class="cls-2" x="548.59" y="154.43" width="12" height="3"/><rect class="cls-2" x="565.34" y="154.43" width="11.25" height="3"/><rect class="cls-2" x="548.59" y="162.43" width="12" height="3"/><rect class="cls-2" x="565.34" y="162.43" width="11.25" height="3"/><rect class="cls-1" x="119.59" y="109.43" width="36" height="72"/><rect class="cls-2" x="124.22" y="114.43" width="7.18" height="3"/><rect class="cls-2" x="134.23" y="114.43" width="6.73" height="3"/><rect class="cls-2" x="134.23" y="122.43" width="6.73" height="3"/><rect class="cls-2" x="124.22" y="130.43" width="7.18" height="3"/><rect class="cls-2" x="134.23" y="130.43" width="6.73" height="3"/><rect class="cls-2" x="124.22" y="138.43" width="7.18" height="3"/><rect class="cls-2" x="134.23" y="138.43" width="6.73" height="3"/><rect class="cls-2" x="134.23" y="146.43" width="6.73" height="3"/><rect class="cls-2" x="124.22" y="154.43" width="7.18" height="3"/><rect class="cls-2" x="134.23" y="154.43" width="6.73" height="3"/><rect class="cls-2" x="124.22" y="162.43" width="7.18" height="3"/><rect class="cls-2" x="143.22" y="114.43" width="7.18" height="3"/><rect class="cls-2" x="143.22" y="122.43" width="7.18" height="3"/><rect class="cls-2" x="143.22" y="138.43" width="7.18" height="3"/><rect class="cls-2" x="143.22" y="146.43" width="7.18" height="3"/><rect class="cls-2" x="143.22" y="154.43" width="7.18" height="3"/><rect class="cls-2" x="134.23" y="162.43" width="6.73" height="3"/><rect class="cls-1" x="584.02" y="125.43" width="28" height="56"/><rect class="cls-2" x="587.62" y="129.32" width="5.58" height="2.33"/><rect class="cls-2" x="595.41" y="129.32" width="5.23" height="2.33"/><rect class="cls-2" x="595.41" y="135.54" width="5.23" height="2.33"/><rect class="cls-2" x="587.62" y="141.76" width="5.58" height="2.33"/><rect class="cls-2" x="595.41" y="141.76" width="5.23" height="2.33"/><rect class="cls-2" x="587.62" y="147.99" width="5.58" height="2.33"/><rect class="cls-2" x="595.41" y="147.99" width="5.23" height="2.33"/><rect class="cls-2" x="595.41" y="154.21" width="5.23" height="2.33"/><rect class="cls-2" x="587.62" y="160.43" width="5.58" height="2.33"/><rect class="cls-2" x="595.41" y="160.43" width="5.23" height="2.33"/><rect class="cls-2" x="587.62" y="166.65" width="5.58" height="2.33"/><rect class="cls-2" x="602.4" y="129.32" width="5.58" height="2.33"/><rect class="cls-2" x="602.4" y="135.54" width="5.58" height="2.33"/><rect class="cls-2" x="602.4" y="147.99" width="5.58" height="2.33"/><rect class="cls-2" x="602.4" y="154.21" width="5.58" height="2.33"/><rect class="cls-2" x="602.4" y="160.43" width="5.58" height="2.33"/><rect class="cls-2" x="595.41" y="166.65" width="5.23" height="2.33"/><path class="cls-1" d="M170.59,97.43v1h-5v-1h-6v83h36v-83Zm21,64h-28v-3h28Zm0-8h-28v-3h28Zm0-8h-28v-3h28Zm0-8h-28v-3h28Zm0-8h-28v-3h28Zm0-8h-28v-3h28Zm0-8h-28v-3h28Zm0-8h-28v-3h28Z"/><rect class="cls-2" x="163.59" y="102.43" width="28" height="3"/><rect class="cls-2" x="163.59" y="110.43" width="28" height="3"/><rect class="cls-2" x="163.59" y="118.43" width="28" height="3"/><rect class="cls-2" x="163.59" y="126.43" width="28" height="3"/><rect class="cls-2" x="163.59" y="134.43" width="28" height="3"/><rect class="cls-2" x="163.59" y="142.43" width="28" height="3"/><rect class="cls-2" x="163.59" y="150.43" width="28" height="3"/><rect class="cls-2" x="163.59" y="158.43" width="28" height="3"/><polygon class="cls-1" points="170.59 98.43 170.59 97.43 170.59 88.43 165.59 88.43 165.59 97.43 165.59 98.43 170.59 98.43"/><path class="cls-1" d="M520.59,98.43v-8h-5v8h-3v-13h-5v13h-11v83h44v-83Zm0,76h-4v-5h4Zm0-7h-4v-5h4Zm0-7h-4v-5h4Zm0-7h-4v-5h4Zm0-7h-4v-5h4Zm0-7h-4v-5h4Zm0-7h-4v-5h4Zm0-7h-4v-5h4Zm0-7h-4v-5h4Zm0-7h-4v-5h4Zm8,63h-4v-5h4Zm0-7h-4v-5h4Zm0-7h-4v-5h4Zm0-7h-4v-5h4Zm0-7h-4v-5h4Zm0-7h-4v-5h4Zm0-7h-4v-5h4Zm0-7h-4v-5h4Zm0-7h-4v-5h4Zm0-7h-4v-5h4Z"/><rect class="cls-2" x="524.59" y="106.43" width="4" height="5"/><rect class="cls-2" x="524.59" y="113.43" width="4" height="5"/><rect class="cls-2" x="524.59" y="120.43" width="4" height="5"/><rect class="cls-2" x="524.59" y="127.43" width="4" height="5"/><rect class="cls-2" x="524.59" y="134.43" width="4" height="5"/><rect class="cls-2" x="524.59" y="141.43" width="4" height="5"/><rect class="cls-2" x="524.59" y="148.43" width="4" height="5"/><rect class="cls-2" x="524.59" y="155.43" width="4" height="5"/><rect class="cls-2" x="524.59" y="162.43" width="4" height="5"/><rect class="cls-2" x="524.59" y="169.43" width="4" height="5"/><rect class="cls-2" x="516.59" y="106.43" width="4" height="5"/><rect class="cls-2" x="516.59" y="113.43" width="4" height="5"/><rect class="cls-2" x="516.59" y="120.43" width="4" height="5"/><rect class="cls-2" x="516.59" y="127.43" width="4" height="5"/><rect class="cls-2" x="516.59" y="134.43" width="4" height="5"/><rect class="cls-2" x="516.59" y="141.43" width="4" height="5"/><rect class="cls-2" x="516.59" y="148.43" width="4" height="5"/><rect class="cls-2" x="516.59" y="155.43" width="4" height="5"/><rect class="cls-2" x="516.59" y="162.43" width="4" height="5"/><rect class="cls-2" x="516.59" y="169.43" width="4" height="5"/></svg>